<svg width="605" height="361" xmlns="http://www.w3.org/2000/svg" xmlns:xlink="http://www.w3.org/1999/xlink" overflow="hidden"><defs><clipPath id="clip0"><rect x="0" y="0" width="605" height="361"/></clipPath><clipPath id="clip1"><rect x="0" y="10" width="604" height="340"/></clipPath><clipPath id="clip2"><rect x="49" y="25" width="534" height="273"/></clipPath><clipPath id="clip3"><rect x="49" y="25" width="534" height="273"/></clipPath><clipPath id="clip4"><rect x="0" y="10" width="604" height="340"/></clipPath><clipPath id="clip5"><rect x="0" y="10" width="604" height="340"/></clipPath><clipPath id="clip6"><rect x="0" y="10" width="604" height="340"/></clipPath><clipPath id="clip7"><rect x="0" y="10" width="604" height="340"/></clipPath><clipPath id="clip8"><rect x="0" y="10" width="604" height="340"/></clipPath><clipPath id="clip9"><rect x="0" y="10" width="604" height="340"/></clipPath><clipPath id="clip10"><rect x="0" y="10" width="604" height="340"/></clipPath><clipPath id="clip11"><rect x="0" y="10" width="604" height="340"/></clipPath><clipPath id="clip12"><rect x="0" y="10" width="604" height="340"/></clipPath><clipPath id="clip13"><rect x="0" y="10" width="604" height="340"/></clipPath><clipPath id="clip14"><rect x="0" y="10" width="604" height="340"/></clipPath></defs><g clip-path="url(#clip0)"><rect x="0" y="0" width="605" height="360.801" fill="#FFFFFF"/><g clip-path="url(#clip1)"><path d="M49.5 297.336 582.5 297.336M49.5 252.367 582.5 252.367M49.5 207.391 582.5 207.391M49.5 161.415 582.5 161.415M49.5 116.439 582.5 116.439M49.5 70.463 582.5 70.463M49.5 25.486 582.5 25.486" stroke="#D9D9D9" stroke-width="1.00055" stroke-linejoin="round" stroke-miterlimit="10" fill="none"/></g><g clip-path="url(#clip2)"><path d="M52.5 161.415 58.5015 152.42 64.5017 143.425 70.5018 134.429 76.502 126.434 81.5021 118.438 87.5023 110.442 93.5024 103.446 99.5026 96.4493 105.503 90.4525 111.503 85.4551 117.503 80.4577 123.503 77.4593 128.503 74.4609 134.504 72.4619 140.504 71.4625 146.504 70.4612 152.504 71.4625 158.504 73.4614 164.504 75.4604 169.504 79.4583 175.505 83.4562 181.505 88.4535 187.505 94.4504 193.505 100.447 199.505 107.444 205.505 114.44 210.505 122.436 216.506 131.431 222.506 140.426 228.506 148.422 234.506 157.417 240.506 167.412 246.506 176.407 251.507 184.403 257.507 193.398 263.507 201.394 269.507 209.39 275.507 217.386 281.507 224.382 287.508 230.379 292.508 236.376 298.508 240.374 304.508 244.372 310.508 248.37 316.508 250.368 322.508 251.368 328.509 252.361 333.509 252.367 339.509 250.368 345.509 248.37 351.509 245.371 357.509 241.373 363.509 237.375 369.51 231.378 374.51 225.382 380.51 219.385 386.51 211.389 392.51 203.393 398.51 195.397 404.511 187.402 410.511 178.406 415.511 169.411 421.511 160.416 427.511 151.42 433.511 142.425 439.511 133.43 445.512 124.435 451.512 116.439 456.512 109.443 462.512 102.446 468.512 95.4499 474.512 89.453 480.513 84.4556 486.513 80.4577 492.513 76.4598 497.513 73.4614 503.513 72.4619 509.513 71.4625 515.513 71.4625 521.514 71.4625 527.514 73.4614 533.514 76.4598 538.514 79.4583 544.514 84.4556 550.514 89.453 556.515 95.4499 562.515 101.447 568.515 108.443 574.515 116.439 580.5 124.435" stroke="#00549F" stroke-width="3.00165" stroke-linecap="round" stroke-linejoin="round" stroke-miterlimit="10" fill="none"/></g><g clip-path="url(#clip3)"><path d="M52.5 161.415 58.5015 154.419 64.5017 147.423 70.5018 140.426 76.502 133.43 81.5021 126.434 87.5023 119.437 93.5024 113.44 99.5026 107.444 105.503 101.447 111.503 96.4493 117.503 91.452 123.503 87.4541 128.503 83.4562 134.504 80.4577 140.504 77.4593 146.504 74.4609 152.504 72.4619 158.504 71.4625 164.504 71.4625 169.504 70.4612 175.505 71.4625 181.505 72.4619 187.505 74.4609 193.505 76.4598 199.505 79.4583 205.505 82.4567 210.505 86.4546 216.506 90.4525 222.506 95.4499 228.506 100.447 234.506 105.445 240.506 111.441 246.506 118.438 251.507 124.435 257.507 131.431 263.507 138.427 269.507 145.424 275.507 152.42 281.507 159.416 287.508 167.412 292.508 174.408 298.508 181.405 304.508 188.401 310.508 195.397 316.508 201.394 322.508 208.391 328.509 214.387 333.509 220.384 339.509 225.382 345.509 230.379 351.509 234.377 357.509 239.374 363.509 242.373 369.51 245.371 374.51 248.37 380.51 250.368 386.51 251.368 392.51 252.367 398.51 252.361 404.511 252.367 410.511 251.368 415.511 249.369 421.511 247.37 427.511 245.371 433.511 241.373 439.511 238.375 445.512 234.377 451.512 229.38 456.512 224.382 462.512 219.385 468.512 213.388 474.512 207.391 480.513 200.395 486.513 193.398 492.513 187.402 497.513 180.405 503.513 172.409 509.513 165.413 515.513 158.417 521.514 151.42 527.514 143.425 533.514 136.428 538.514 130.431 544.514 123.435 550.514 116.439 556.515 110.442 562.515 104.445 568.515 99.4478 574.515 94.4504 580.5 89.453" stroke="#8EBAE5" stroke-width="3.00165" stroke-linecap="round" stroke-linejoin="round" stroke-miterlimit="10" fill="none"/></g><g clip-path="url(#clip4)"><text fill="#595959" font-family="Calibri,Calibri_MSFontService,sans-serif" font-weight="400" font-size="15" transform="matrix(1 0 0 0.999449 13.1178 302)">-1,5</text></g><g clip-path="url(#clip5)"><text fill="#595959" font-family="Calibri,Calibri_MSFontService,sans-serif" font-weight="400" font-size="15" transform="matrix(1 0 0 0.999449 24.2173 256)">-1</text></g><g clip-path="url(#clip6)"><text fill="#595959" font-family="Calibri,Calibri_MSFontService,sans-serif" font-weight="400" font-size="15" transform="matrix(1 0 0 0.999449 13.1178 211)">-0,5</text></g><g clip-path="url(#clip7)"><text fill="#595959" font-family="Calibri,Calibri_MSFontService,sans-serif" font-weight="400" font-size="15" transform="matrix(1 0 0 0.999449 28.7131 166)">0</text></g><g clip-path="url(#clip8)"><text fill="#595959" font-family="Calibri,Calibri_MSFontService,sans-serif" font-weight="400" font-size="15" transform="matrix(1 0 0 0.999449 17.6136 120)">0,5</text></g><g clip-path="url(#clip9)"><text fill="#595959" font-family="Calibri,Calibri_MSFontService,sans-serif" font-weight="400" font-size="15" transform="matrix(1 0 0 0.999449 28.7131 75)">1</text></g><g clip-path="url(#clip10)"><text fill="#595959" font-family="Calibri,Calibri_MSFontService,sans-serif" font-weight="400" font-size="15" transform="matrix(1 0 0 0.999449 17.6136 30)">1,5</text></g><g clip-path="url(#clip11)"><path d="M242.5 332.317 268.5 332.317" stroke="#00549F" stroke-width="3.00165" stroke-linecap="round" stroke-linejoin="round" stroke-miterlimit="10" fill="none" fill-rule="evenodd"/></g><g clip-path="url(#clip12)"><text fill="#595959" font-family="Calibri,Calibri_MSFontService,sans-serif" font-weight="400" font-size="15" transform="matrix(1 0 0 0.999449 271.091 336)">sin(x)</text></g><g clip-path="url(#clip13)"><path d="M311.5 332.317 337.5 332.317" stroke="#8EBAE5" stroke-width="3.00165" stroke-linecap="round" stroke-linejoin="round" stroke-miterlimit="10" fill="none" fill-rule="evenodd"/></g><g clip-path="url(#clip14)"><text fill="#595959" font-family="Calibri,Calibri_MSFontService,sans-serif" font-weight="400" font-size="15" transform="matrix(1 0 0 0.999449 340.287 336)">sin(0,8x)</text></g><path d="M5.56203e-06-2 27.7513-1.99992 27.7513 2.00008-5.56203e-06 2ZM25.7513-5.99993 37.7513 0.000104987 25.7513 6.00007Z" transform="matrix(-1.00055 0 0 1 243.772 116.936)"/><path d="M4.55883e-06-2 36.0587-1.99992 36.0587 2.00008-4.55883e-06 2ZM34.0587-5.99992 46.0587 0.000104987 34.0587 6.00008Z" transform="matrix(-1.00055 0 0 1 283.084 161.911)"/><path d="M3.96434e-06-2 42.9656-1.99991 42.9656 2.00009-3.96434e-06 2ZM40.9656-5.99992 52.9656 0.000104987 40.9655 6.00008Z" transform="matrix(-1.00055 0 0 1 320.995 207.885)"/><path d="M3.08671e-06-2 58.025-1.99991 58.025 2.00009-3.08671e-06 2ZM56.025-5.99991 68.025 0.000104987 56.025 6.00009Z" transform="matrix(-1.00055 0 0 1 396.063 252.861)"/><path d="M2.50348e-06-2 73.8727-1.99991 73.8727 2.00009-2.50348e-06 2ZM71.8727-5.99991 83.8727 0.000104987 71.8726 6.00009Z" transform="matrix(-1.00055 0 0 1 473.919 207.885)"/><path d="M2.27359e-06-2 82.3534-1.99991 82.3534 2.00009-2.27359e-06 2ZM80.3534-5.99991 92.3534 0.000104987 80.3534 6.00009Z" transform="matrix(-1.00055 0 0 1 513.404 161.911)"/><path d="M2.12165e-06-2 88.967-1.99991 88.967 2.00009-2.12165e-06 2ZM86.967-5.99991 98.967 0.000104987 86.967 6.00009Z" transform="matrix(-1.00055 0 0 1 551.022 116.936)"/></g></svg>