<svg width="605" height="1040" xmlns="http://www.w3.org/2000/svg" xmlns:xlink="http://www.w3.org/1999/xlink" overflow="hidden"><defs><clipPath id="clip0"><rect x="0" y="0" width="605" height="1040"/></clipPath></defs><g clip-path="url(#clip0)"><rect x="0" y="0" width="605" height="1040.43" fill="#FFFFFF"/><path d="M54.8015 89.4508 54.8015 132.776 88.0228 132.776 88.0228 126.43 114.5 144.92 88.0228 163.41 88.0228 157.064 30.4999 157.064 30.4999 89.4508Z" stroke="#FFFFFF" stroke-width="1.33333" stroke-miterlimit="8" fill="#C7DDF2" fill-rule="evenodd"/><path d="M16.5 16.9935C16.5 8.98817 22.9932 2.49858 31.0029 2.49858L125.997 2.49858C134.007 2.49858 140.5 8.98817 140.5 16.9935L140.5 74.9558C140.5 82.9611 134.007 89.4507 125.997 89.4507L31.0029 89.4507C22.9932 89.4507 16.5 82.9611 16.5 74.9558Z" stroke="#FFFFFF" stroke-width="1.33407" stroke-miterlimit="8" fill="#00549F" fill-rule="evenodd"/><text fill="#FFFFFF" font-family="Calibri,Calibri_MSFontService,sans-serif" font-weight="400" font-size="16" transform="matrix(1 0 0 0.999449 29.8386 41)">Selection<tspan font-size="16" x="63.2482" y="0">of</tspan><tspan font-size="16" x="80.1975" y="0">RL </tspan><tspan font-size="16" x="6.02332" y="18.0099">environment</tspan><tspan fill="#000000" font-size="15" x="113.767" y="0">•</tspan><tspan fill="#000000" font-size="15" x="121.078" y="0">From</tspan><tspan fill="#000000" font-size="15" x="155.711" y="0">rl</tspan><tspan fill="#000000" font-size="15" x="164.195" y="0">-</tspan><tspan fill="#000000" font-size="15" x="168.691" y="0">baselines</tspan><tspan fill="#000000" font-size="15" x="223.961" y="0">-</tspan><tspan fill="#000000" font-size="15" x="228.457" y="0">zoo</tspan><tspan fill="#000000" font-size="15" x="113.767" y="19.0105">•</tspan><tspan fill="#000000" font-size="15" x="121.078" y="19.0105">Implementation in Python</tspan></text><path d="M181.802 186.397 181.802 229.723 214.023 229.723 214.023 223.377 240.5 241.867 214.023 260.356 214.023 254.011 157.5 254.011 157.5 186.397Z" stroke="#FFFFFF" stroke-width="1.33333" stroke-miterlimit="8" fill="#C7DDF2" fill-rule="evenodd"/><path d="M142.5 114.773C142.5 106.86 148.919 100.445 156.836 100.445L252.164 100.445C260.081 100.445 266.5 106.86 266.5 114.773L266.5 172.069C266.5 179.982 260.081 186.397 252.164 186.397L156.836 186.397C148.919 186.397 142.5 179.982 142.5 172.069Z" stroke="#FFFFFF" stroke-width="1.33407" stroke-miterlimit="8" fill="#00549F" fill-rule="evenodd"/><text fill="#FFFFFF" font-family="Calibri,Calibri_MSFontService,sans-serif" font-weight="400" font-size="16" transform="matrix(1 0 0 0.999449 152.087 147)">Data <tspan font-size="16" x="33.8386" y="0">generation</tspan><tspan fill="#000000" font-size="15" x="118.552" y="-7.00386">•</tspan><tspan fill="#000000" font-size="15" x="125.863" y="-7.00386">A </tspan><tspan fill="#000000" font-size="15" x="137.669" y="-7.00386">dataset</tspan><tspan fill="#000000" font-size="15" x="185.629" y="-7.00386">for</tspan><tspan fill="#000000" font-size="15" x="206.274" y="-7.00386">each</tspan><tspan fill="#000000" font-size="15" x="237.838" y="-7.00386">RL </tspan><tspan fill="#000000" font-size="15" x="124.555" y="9.00496">agent</tspan><tspan fill="#000000" font-size="15" x="161.742" y="9.00496">(PPO2, ACKTR, …)</tspan></text><path d="M307.473 284.343 307.473 327.083 341.381 327.083 341.381 320.823 367.5 339.063 341.381 357.303 341.381 351.043 283.5 351.043 283.5 284.343Z" stroke="#FFFFFF" stroke-width="1.33333" stroke-miterlimit="8" fill="#C7DDF2" fill-rule="evenodd"/><path d="M269.5 211.886C269.5 203.881 275.993 197.391 284.003 197.391L378.997 197.391C387.007 197.391 393.5 203.881 393.5 211.886L393.5 269.848C393.5 277.854 387.007 284.343 378.997 284.343L284.003 284.343C275.993 284.343 269.5 277.854 269.5 269.848Z" stroke="#FFFFFF" stroke-width="1.33407" stroke-miterlimit="8" fill="#00549F" fill-rule="evenodd"/><text fill="#FFFFFF" font-family="Calibri,Calibri_MSFontService,sans-serif" font-weight="400" font-size="16" transform="matrix(1 0 0 0.999449 298.248 244)">Clustering<tspan fill="#000000" font-size="15" x="98.9764" y="-35.0193">•</tspan><tspan fill="#000000" font-size="15" x="106.287" y="-35.0193">SWS </tspan><tspan fill="#000000" font-size="15" x="136.144" y="-35.0193">vs. CWS </tspan><tspan fill="#000000" font-size="15" x="186.465" y="-35.0193">windows</tspan><tspan fill="#000000" font-size="15" x="98.9764" y="-16.0088">•</tspan><tspan fill="#000000" font-size="15" x="106.287" y="-16.0088">Univariate </tspan><tspan fill="#000000" font-size="15" x="171.496" y="-16.0088">clustering</tspan><tspan fill="#000000" font-size="15" x="98.9764" y="3.00165">•</tspan><tspan fill="#000000" font-size="15" x="106.287" y="3.00165">Mulitvariate</tspan><tspan fill="#000000" font-size="15" x="182.909" y="3.00165">clustering</tspan><tspan fill="#000000" font-size="15" x="98.9764" y="22.0121">•</tspan><tspan fill="#000000" font-size="15" x="106.287" y="22.0121">Clustering in feature </tspan><tspan fill="#000000" font-size="15" x="231.136" y="22.0121">space</tspan><tspan fill="#000000" font-size="15" x="98.9764" y="40.0221">•</tspan><tspan fill="#000000" font-size="15" x="106.287" y="40.0221">Cluster </tspan><tspan fill="#000000" font-size="15" x="151.579" y="40.0221">meaningfulness</tspan><tspan fill="#000000" font-size="15" x="248.692" y="40.0221">index</tspan></text><path d="M395.5 309.666C395.5 301.752 401.919 295.337 409.836 295.337L505.164 295.337C513.081 295.337 519.5 301.752 519.5 309.666L519.5 366.962C519.5 374.875 513.081 381.29 505.164 381.29L409.836 381.29C401.919 381.29 395.5 374.875 395.5 366.962Z" stroke="#FFFFFF" stroke-width="1.33407" stroke-miterlimit="8" fill="#00549F" fill-rule="evenodd"/><text fill="#FFFFFF" font-family="Calibri,Calibri_MSFontService,sans-serif" font-weight="400" font-size="16" transform="matrix(1 0 0 0.999449 414.86 333)">Discussion<tspan font-size="16" x="71.6528" y="0">of</tspan><tspan font-size="16" x="20.8315" y="18.0099">results</tspan></text></g></svg>