<svg width="605" height="1040" xmlns="http://www.w3.org/2000/svg" xmlns:xlink="http://www.w3.org/1999/xlink" overflow="hidden"><defs><clipPath id="clip0"><rect x="0" y="0" width="605" height="1040"/></clipPath></defs><g clip-path="url(#clip0)"><rect x="0" y="0" width="605" height="1040.43" fill="#FFFFFF"/><text font-family="Calibri,Calibri_MSFontService,sans-serif" font-weight="400" font-size="15" transform="matrix(1 0 0 0.999449 58.3372 116)">Time series<tspan font-size="15" x="142.056" y="-97.0535">Time </tspan>series<tspan font-size="15" x="357.18" y="-99.0546">Time </tspan><tspan font-size="15" x="390.031" y="-99.0546">series</tspan></text><rect x="191.5" y="80.4556" width="87" height="44.9752" stroke="#00549F" stroke-width="1.33407" stroke-miterlimit="8" fill="none"/><text font-family="Calibri,Calibri_MSFontService,sans-serif" font-weight="400" font-size="15" transform="matrix(1 0 0 0.999449 211.485 98)">Feature<tspan font-size="15" x="-7.08391" y="17.0094">Extraction</tspan><tspan font-size="15" x="-149.275" y="159.088">Clustering</tspan></text><rect x="53.5" y="237.369" width="80" height="26.9851" stroke="#00549F" stroke-width="1.33407" stroke-miterlimit="8" fill="none"/><path d="M235.834 27.4848 235.834 73.0092 235.167 73.0092 235.167 27.4848ZM239.502 71.6759 235.5 79.6759 231.498 71.6759Z" fill="#00549F"/><path d="M235.834 125.431 235.834 227.815 235.167 227.815 235.167 125.431ZM239.502 226.482 235.5 234.482 231.498 226.482Z" fill="#00549F"/><text font-family="Calibri,Calibri_MSFontService,sans-serif" font-weight="400" font-size="15" transform="matrix(1 0 0 0.999449 179.299 170)">Features<tspan font-size="15" x="307.066" y="-71.0391">Modeling</tspan><tspan font-size="15" x="157.092" y="-72.0397">Discretization</tspan></text><rect x="327.5" y="80.4556" width="101" height="26.9851" stroke="#00549F" stroke-width="1.33407" stroke-miterlimit="8" fill="none"/><rect x="477.5" y="80.4556" width="76" height="27.9846" stroke="#00549F" stroke-width="1.33407" stroke-miterlimit="8" fill="none"/><path d="M450.713 26.2291 510.877 76.2691 510.451 76.7815 450.287 26.7416ZM512.199 72.5978 515.791 80.7897 507.078 78.747Z" fill="#00549F"/><path d="M0.199148-0.267304 66.9512 49.4646 66.5529 49.9992-0.199148 0.267304ZM68.0726 45.7277 72.0982 53.7149 63.2931 52.143Z" fill="#00549F" transform="matrix(-1.00055 0 0 1 449.638 26.4854)"/><text font-family="Calibri,Calibri_MSFontService,sans-serif" font-weight="400" font-size="15" transform="matrix(1 0 0 0.999449 59.6843 313)">Clusters<tspan font-size="15" x="0" y="17.0094">and </tspan>maybe<tspan font-size="15" x="0" y="35.0193">Cluster</tspan><tspan font-size="15" x="0" y="53.0292">Centers</tspan><tspan font-size="15" x="141.382" y="0">Clusters</tspan><tspan font-size="15" x="141.382" y="17.0094">and </tspan>maybe<tspan font-size="15" x="141.382" y="35.0193">Cluster</tspan><tspan font-size="15" x="141.382" y="53.0292">Centers</tspan><tspan font-size="15" x="425.923" y="0">Clusters</tspan><tspan font-size="15" x="425.923" y="17.0094">and </tspan>maybe<tspan font-size="15" x="425.923" y="35.0193">Cluster</tspan><tspan font-size="15" x="425.923" y="53.0292">Centers</tspan></text><path d="M0.333333-3.09523e-07 0.333432 106.396-0.333235 106.396-0.333333 3.09523e-07ZM4.0001 105.063 0.000104987 113.063-3.9999 105.063Z" fill="#00549F" transform="matrix(-1.00055 0 0 1 92.5001 125.431)"/><text font-family="Calibri,Calibri_MSFontService,sans-serif" font-weight="400" font-size="15" transform="matrix(1 0 0 0.999449 23.2329 363)">(a)<tspan font-size="15" x="144.582" y="0">(b)</tspan><tspan font-size="15" x="180.275" y="-106.058">Clustering</tspan></text><rect x="195.5" y="237.369" width="79" height="26.9851" stroke="#00549F" stroke-width="1.33407" stroke-miterlimit="8" fill="none"/><text font-family="Calibri,Calibri_MSFontService,sans-serif" font-weight="400" font-size="15" transform="matrix(1 0 0 0.999449 485.607 255)">Clustering</text><rect x="477.5" y="235.37" width="79" height="27.9846" stroke="#00549F" stroke-width="1.33407" stroke-miterlimit="8" fill="none"/><text font-family="Calibri,Calibri_MSFontService,sans-serif" font-weight="400" font-size="15" transform="matrix(1 0 0 0.999449 312.788 363)">(c)<tspan font-size="15" x="36.4515" y="-176.097">Modeling</tspan></text><rect x="341.5" y="171.405" width="74" height="24.9863" stroke="#00549F" stroke-width="1.33407" stroke-miterlimit="8" fill="none"/><path d="M0.333333-0.000344607 0.389538 54.366-0.277128 54.3667-0.333333 0.000344607ZM4.05482 53.0288 0.0630971 61.033-3.94517 53.0371Z" fill="#00549F" transform="matrix(-1.00055 0 0 1 377.563 107.441)"/><text font-family="Calibri,Calibri_MSFontService,sans-serif" font-weight="400" font-size="15" transform="matrix(1 0 0 0.999449 343.122 313)">Model<tspan font-size="15" x="0" y="17.0094">parameters</tspan></text><path d="M378.833 196.392 378.842 288.504 378.175 288.504 378.166 196.392ZM382.51 287.17 378.509 295.171 374.506 287.171Z" fill="#00549F"/><path d="M0.333333-1.15711e-06 0.333415 23.5774-0.333251 23.5774-0.333333 1.15711e-06ZM4.00008 22.2441 0.000104987 30.2441-3.99992 22.2441Z" fill="#00549F" transform="matrix(-1.00055 0 0 1 235.5 264.354)"/><path d="M0.333332-0.000930306 0.399135 23.5766-0.267529 23.5785-0.333332 0.000930306ZM4.06207 22.2331 0.0844094 30.2442-3.9379 22.2554Z" fill="#00549F" transform="matrix(-1.00055 0 0 1 93.5845 264.354)"/><path d="M515.833 108.436 517.429 229.04 516.762 229.049 515.167 108.445ZM521.08 227.658 517.184 235.711 513.076 227.764Z" fill="#00549F"/><text font-family="Calibri,Calibri_MSFontService,sans-serif" font-weight="400" font-size="15" transform="matrix(1 0 0 0.999449 520.143 157)">Coefficients<tspan font-size="15" x="0" y="17.0094">or</tspan><tspan font-size="15" x="16.1756" y="17.0094">Residuals</tspan></text></g></svg>