<svg width="720" height="1040" xmlns="http://www.w3.org/2000/svg" xmlns:xlink="http://www.w3.org/1999/xlink" overflow="hidden"><defs><clipPath id="clip0"><rect x="0" y="0" width="720" height="1040"/></clipPath><linearGradient x1="456" y1="348.167" x2="456" y2="261.833" gradientUnits="userSpaceOnUse" spreadMethod="reflect" id="stroke1"><stop offset="0" stop-color="#FFFFFF"/><stop offset="0.22" stop-color="#FFFFFF"/><stop offset="0.23" stop-color="#00549F"/><stop offset="1" stop-color="#00549F"/></linearGradient></defs><g clip-path="url(#clip0)"><rect x="0" y="0" width="720" height="1040" fill="#FFFFFF"/><path d="M482.5 193C482.5 169.528 501.528 150.5 525 150.5 548.472 150.5 567.5 169.528 567.5 193 567.5 216.472 548.472 235.5 525 235.5 501.528 235.5 482.5 216.472 482.5 193Z" stroke="#4D4D4D" stroke-width="1.33333" stroke-miterlimit="8" stroke-dasharray="1.33333 1.33333" fill="none" fill-rule="evenodd"/><path d="M513.5 191C513.5 167.528 532.528 148.5 556 148.5 579.472 148.5 598.5 167.528 598.5 191 598.5 214.472 579.472 233.5 556 233.5 532.528 233.5 513.5 214.472 513.5 191Z" stroke="#4D4D4D" stroke-width="1.33333" stroke-miterlimit="8" stroke-dasharray="1.33333 1.33333" fill="none" fill-rule="evenodd"/><path d="M365.5 211C365.5 187.528 384.528 168.5 408 168.5 431.472 168.5 450.5 187.528 450.5 211 450.5 234.472 431.472 253.5 408 253.5 384.528 253.5 365.5 234.472 365.5 211Z" stroke="#4D4D4D" stroke-width="1.33333" stroke-miterlimit="8" stroke-dasharray="4 1.33333" fill="none" fill-rule="evenodd"/><path d="M487.5 225C487.5 201.528 506.528 182.5 530 182.5 553.472 182.5 572.5 201.528 572.5 225 572.5 248.472 553.472 267.5 530 267.5 506.528 267.5 487.5 248.472 487.5 225Z" stroke="#4D4D4D" stroke-width="1.33333" stroke-miterlimit="8" stroke-dasharray="4 1.33333" fill="none" fill-rule="evenodd"/><path d="M369.5 271C369.5 247.528 388.528 228.5 412 228.5 435.472 228.5 454.5 247.528 454.5 271 454.5 294.472 435.472 313.5 412 313.5 388.528 313.5 369.5 294.472 369.5 271Z" stroke="#4D4D4D" stroke-width="1.33333" stroke-miterlimit="8" stroke-dasharray="4 1.33333" fill="none" fill-rule="evenodd"/><path d="M459.5 224C459.5 200.528 478.528 181.5 502 181.5 525.472 181.5 544.5 200.528 544.5 224 544.5 247.472 525.472 266.5 502 266.5 478.528 266.5 459.5 247.472 459.5 224Z" stroke="#4D4D4D" stroke-width="1.33333" stroke-miterlimit="8" stroke-dasharray="4 1.33333" fill="none" fill-rule="evenodd"/><path d="M159.5 126.5C159.5 103.304 178.528 84.5001 202 84.5001 225.472 84.5001 244.5 103.304 244.5 126.5 244.5 149.696 225.472 168.5 202 168.5 178.528 168.5 159.5 149.696 159.5 126.5Z" stroke="#4D4D4D" stroke-width="1.33333" stroke-miterlimit="8" stroke-dasharray="4 1.33333" fill="none" fill-rule="evenodd"/><path d="M146.5 183C146.5 159.528 165.528 140.5 189 140.5 212.472 140.5 231.5 159.528 231.5 183 231.5 206.472 212.472 225.5 189 225.5 165.528 225.5 146.5 206.472 146.5 183Z" stroke="#4D4D4D" stroke-width="1.33333" stroke-miterlimit="8" stroke-dasharray="4 1.33333" fill="none" fill-rule="evenodd"/><path d="M209.5 195C209.5 171.528 228.528 152.5 252 152.5 275.472 152.5 294.5 171.528 294.5 195 294.5 218.472 275.472 237.5 252 237.5 228.528 237.5 209.5 218.472 209.5 195Z" stroke="#00549F" stroke-width="2.66667" stroke-miterlimit="8" fill="none" fill-rule="evenodd"/><path d="M225.5 156C225.5 132.528 244.528 113.5 268 113.5 291.472 113.5 310.5 132.528 310.5 156 310.5 179.472 291.472 198.5 268 198.5 244.528 198.5 225.5 179.472 225.5 156Z" stroke="#00549F" stroke-width="1.33333" stroke-miterlimit="8" fill="none" fill-rule="evenodd"/><path d="M203.5 227C203.5 203.528 222.528 184.5 246 184.5 269.472 184.5 288.5 203.528 288.5 227 288.5 250.472 269.472 269.5 246 269.5 222.528 269.5 203.5 250.472 203.5 227Z" stroke="#00549F" stroke-width="1.33333" stroke-miterlimit="8" fill="none" fill-rule="evenodd"/><path d="M183.5 162C183.5 138.528 202.528 119.5 226 119.5 249.472 119.5 268.5 138.528 268.5 162 268.5 185.472 249.472 204.5 226 204.5 202.528 204.5 183.5 185.472 183.5 162Z" stroke="#00549F" stroke-width="1.33333" stroke-miterlimit="8" fill="none" fill-rule="evenodd"/><path d="M419.5 275C419.5 251.528 438.304 232.5 461.5 232.5 484.696 232.5 503.5 251.528 503.5 275 503.5 298.472 484.696 317.5 461.5 317.5 438.304 317.5 419.5 298.472 419.5 275Z" stroke="#00549F" stroke-width="2.66667" stroke-miterlimit="8" fill="none" fill-rule="evenodd"/><path d="M391.5 244C391.5 220.528 410.528 201.5 434 201.5 457.472 201.5 476.5 220.528 476.5 244 476.5 267.472 457.472 286.5 434 286.5 410.528 286.5 391.5 267.472 391.5 244Z" stroke="#00549F" stroke-width="1.33333" stroke-miterlimit="8" fill="none" fill-rule="evenodd"/><path d="M456.5 256C456.5 232.528 475.528 213.5 499 213.5 522.472 213.5 541.5 232.528 541.5 256 541.5 279.472 522.472 298.5 499 298.5 475.528 298.5 456.5 279.472 456.5 256Z" stroke="#00549F" stroke-width="1.33333" stroke-miterlimit="8" fill="none" fill-rule="evenodd"/><text font-family="Cambria Math,Cambria Math_MSFontService,sans-serif" font-weight="400" font-size="15" transform="translate(182.442 122)">𝒒<tspan font-size="15" x="20.1079" y="36">𝒎</tspan><tspan font-size="15" x="82.6487" y="87">𝒑</tspan><tspan font-size="15" x="271.784" y="169">𝒐</tspan><tspan font-size="15" x="237.676" y="93">𝒔</tspan><tspan font-size="15" x="380.27" y="62">𝒓</tspan></text><path d="M413.5 305C413.5 281.528 432.528 262.5 456 262.5 479.472 262.5 498.5 281.528 498.5 305 498.5 328.472 479.472 347.5 456 347.5 432.528 347.5 413.5 328.472 413.5 305Z" stroke="url(#stroke1)" stroke-width="1.33333" stroke-miterlimit="8" fill="none" fill-rule="evenodd"/><rect x="91.5001" y="65.5001" width="538" height="265" stroke="#00549F" stroke-width="1.33333" stroke-miterlimit="8" fill="none"/><path d="M223.324 160.487 207.502 135.49 208.629 134.777 224.45 159.774ZM205.399 138.399 204.5 129.5 212.158 134.121Z" fill="#CC071E"/><path d="M248.536 193.466 231.855 170.3 232.937 169.521 249.618 192.687ZM229.929 173.329 228.5 164.5 236.421 168.655Z" fill="#CC071E"/><path d="M430.481 242.178 413.875 219.288 414.954 218.505 431.561 241.395ZM411.96 222.324 410.5 213.5 418.435 217.627Z" fill="#CC071E"/><path d="M457.793 272.625 440.305 252.015 441.322 251.152 458.81 271.762ZM438.626 255.188 436.5 246.5 444.726 250.012Z" fill="#CC071E"/><path d="M0.30522-0.592693 26.5393 12.9171 25.9289 14.1025-0.30522 0.592693ZM26.88 9.3432 32.161 16.562 23.2174 16.4555Z" fill="#CC071E" transform="matrix(1 0 0 -1 464.5 275.062)"/><path d="M0.544608-0.384508 16.9515 22.8538 15.8623 23.6228-0.544608 0.384508ZM18.9055 19.8421 20.252 28.6844 12.3702 24.4562Z" fill="#CC071E" transform="matrix(1 0 0 -1 532.5 222.184)"/><path d="M0.471404-0.471405 23.2772 22.3344 22.3344 23.2772-0.471404 0.471405ZM24.6915 19.0345 27.5199 27.5198 19.0346 24.6914Z" fill="#CC071E" transform="matrix(1 0 0 -1 500.5 255.02)"/><path d="M265.5 155C265.5 153.067 267.067 151.5 269 151.5 270.933 151.5 272.5 153.067 272.5 155 272.5 156.933 270.933 158.5 269 158.5 267.067 158.5 265.5 156.933 265.5 155Z" stroke="#8EBAE5" stroke-width="1.33333" stroke-miterlimit="8" fill="#8EBAE5" fill-rule="evenodd"/><path d="M186.5 184C186.5 182.067 188.067 180.5 190 180.5 191.933 180.5 193.5 182.067 193.5 184 193.5 185.933 191.933 187.5 190 187.5 188.067 187.5 186.5 185.933 186.5 184Z" stroke="#8EBAE5" stroke-width="1.33333" stroke-miterlimit="8" fill="#8EBAE5" fill-rule="evenodd"/><path d="M129.5 81.5001C129.5 79.2909 131.291 77.5001 133.5 77.5001 135.709 77.5001 137.5 79.2909 137.5 81.5001 137.5 83.7092 135.709 85.5001 133.5 85.5001 131.291 85.5001 129.5 83.7092 129.5 81.5001Z" stroke="#8EBAE5" stroke-width="1.33333" stroke-miterlimit="8" fill="#8EBAE5" fill-rule="evenodd"/><path d="M111.5 108C111.5 106.067 113.067 104.5 115 104.5 116.933 104.5 118.5 106.067 118.5 108 118.5 109.933 116.933 111.5 115 111.5 113.067 111.5 111.5 109.933 111.5 108Z" stroke="#8EBAE5" stroke-width="1.33333" stroke-miterlimit="8" fill="#8EBAE5" fill-rule="evenodd"/><path d="M124.5 132C124.5 130.067 126.067 128.5 128 128.5 129.933 128.5 131.5 130.067 131.5 132 131.5 133.933 129.933 135.5 128 135.5 126.067 135.5 124.5 133.933 124.5 132Z" stroke="#8EBAE5" stroke-width="1.33333" stroke-miterlimit="8" fill="#8EBAE5" fill-rule="evenodd"/><path d="M115.5 164C115.5 162.067 117.291 160.5 119.5 160.5 121.709 160.5 123.5 162.067 123.5 164 123.5 165.933 121.709 167.5 119.5 167.5 117.291 167.5 115.5 165.933 115.5 164Z" stroke="#8EBAE5" stroke-width="1.33333" stroke-miterlimit="8" fill="#8EBAE5" fill-rule="evenodd"/><path d="M127.5 195C127.5 193.067 129.067 191.5 131 191.5 132.933 191.5 134.5 193.067 134.5 195 134.5 196.933 132.933 198.5 131 198.5 129.067 198.5 127.5 196.933 127.5 195Z" stroke="#8EBAE5" stroke-width="1.33333" stroke-miterlimit="8" fill="#8EBAE5" fill-rule="evenodd"/><path d="M194.5 264C194.5 262.067 196.291 260.5 198.5 260.5 200.709 260.5 202.5 262.067 202.5 264 202.5 265.933 200.709 267.5 198.5 267.5 196.291 267.5 194.5 265.933 194.5 264Z" stroke="#8EBAE5" stroke-width="1.33333" stroke-miterlimit="8" fill="#8EBAE5" fill-rule="evenodd"/><path d="M137.5 262C137.5 260.067 139.067 258.5 141 258.5 142.933 258.5 144.5 260.067 144.5 262 144.5 263.933 142.933 265.5 141 265.5 139.067 265.5 137.5 263.933 137.5 262Z" stroke="#8EBAE5" stroke-width="1.33333" stroke-miterlimit="8" fill="#8EBAE5" fill-rule="evenodd"/><path d="M184.5 309.5C184.5 307.291 186.067 305.5 188 305.5 189.933 305.5 191.5 307.291 191.5 309.5 191.5 311.709 189.933 313.5 188 313.5 186.067 313.5 184.5 311.709 184.5 309.5Z" stroke="#8EBAE5" stroke-width="1.33333" stroke-miterlimit="8" fill="#8EBAE5" fill-rule="evenodd"/><path d="M243.5 294C243.5 292.067 245.067 290.5 247 290.5 248.933 290.5 250.5 292.067 250.5 294 250.5 295.933 248.933 297.5 247 297.5 245.067 297.5 243.5 295.933 243.5 294Z" stroke="#8EBAE5" stroke-width="1.33333" stroke-miterlimit="8" fill="#8EBAE5" fill-rule="evenodd"/><path d="M302.5 274C302.5 272.067 304.067 270.5 306 270.5 307.933 270.5 309.5 272.067 309.5 274 309.5 275.933 307.933 277.5 306 277.5 304.067 277.5 302.5 275.933 302.5 274Z" stroke="#8EBAE5" stroke-width="1.33333" stroke-miterlimit="8" fill="#8EBAE5" fill-rule="evenodd"/><path d="M368.5 308C368.5 306.067 370.067 304.5 372 304.5 373.933 304.5 375.5 306.067 375.5 308 375.5 309.933 373.933 311.5 372 311.5 370.067 311.5 368.5 309.933 368.5 308Z" stroke="#8EBAE5" stroke-width="1.33333" stroke-miterlimit="8" fill="#8EBAE5" fill-rule="evenodd"/><path d="M338.5 172C338.5 170.067 340.067 168.5 342 168.5 343.933 168.5 345.5 170.067 345.5 172 345.5 173.933 343.933 175.5 342 175.5 340.067 175.5 338.5 173.933 338.5 172Z" stroke="#8EBAE5" stroke-width="1.33333" stroke-miterlimit="8" fill="#8EBAE5" fill-rule="evenodd"/><path d="M299.5 104C299.5 102.067 301.067 100.5 303 100.5 304.933 100.5 306.5 102.067 306.5 104 306.5 105.933 304.933 107.5 303 107.5 301.067 107.5 299.5 105.933 299.5 104Z" stroke="#8EBAE5" stroke-width="1.33333" stroke-miterlimit="8" fill="#8EBAE5" fill-rule="evenodd"/><path d="M337.5 127C337.5 125.067 339.067 123.5 341 123.5 342.933 123.5 344.5 125.067 344.5 127 344.5 128.933 342.933 130.5 341 130.5 339.067 130.5 337.5 128.933 337.5 127Z" stroke="#8EBAE5" stroke-width="1.33333" stroke-miterlimit="8" fill="#8EBAE5" fill-rule="evenodd"/><path d="M384.5 102C384.5 100.067 386.067 98.5001 388 98.5001 389.933 98.5001 391.5 100.067 391.5 102 391.5 103.933 389.933 105.5 388 105.5 386.067 105.5 384.5 103.933 384.5 102Z" stroke="#8EBAE5" stroke-width="1.33333" stroke-miterlimit="8" fill="#8EBAE5" fill-rule="evenodd"/><path d="M475.5 92.0001C475.5 90.0671 477.067 88.5001 479 88.5001 480.933 88.5001 482.5 90.0671 482.5 92.0001 482.5 93.9331 480.933 95.5001 479 95.5001 477.067 95.5001 475.5 93.9331 475.5 92.0001Z" stroke="#8EBAE5" stroke-width="1.33333" stroke-miterlimit="8" fill="#8EBAE5" fill-rule="evenodd"/><path d="M475.5 130C475.5 128.067 477.067 126.5 479 126.5 480.933 126.5 482.5 128.067 482.5 130 482.5 131.933 480.933 133.5 479 133.5 477.067 133.5 475.5 131.933 475.5 130Z" stroke="#8EBAE5" stroke-width="1.33333" stroke-miterlimit="8" fill="#8EBAE5" fill-rule="evenodd"/><path d="M538.5 111C538.5 109.067 540.067 107.5 542 107.5 543.933 107.5 545.5 109.067 545.5 111 545.5 112.933 543.933 114.5 542 114.5 540.067 114.5 538.5 112.933 538.5 111Z" stroke="#8EBAE5" stroke-width="1.33333" stroke-miterlimit="8" fill="#8EBAE5" fill-rule="evenodd"/><path d="M587.5 98.0001C587.5 96.0671 589.067 94.5001 591 94.5001 592.933 94.5001 594.5 96.0671 594.5 98.0001 594.5 99.9331 592.933 101.5 591 101.5 589.067 101.5 587.5 99.9331 587.5 98.0001Z" stroke="#8EBAE5" stroke-width="1.33333" stroke-miterlimit="8" fill="#8EBAE5" fill-rule="evenodd"/><path d="M603.5 132C603.5 130.067 605.067 128.5 607 128.5 608.933 128.5 610.5 130.067 610.5 132 610.5 133.933 608.933 135.5 607 135.5 605.067 135.5 603.5 133.933 603.5 132Z" stroke="#8EBAE5" stroke-width="1.33333" stroke-miterlimit="8" fill="#8EBAE5" fill-rule="evenodd"/><path d="M601.5 251C601.5 249.067 603.067 247.5 605 247.5 606.933 247.5 608.5 249.067 608.5 251 608.5 252.933 606.933 254.5 605 254.5 603.067 254.5 601.5 252.933 601.5 251Z" stroke="#8EBAE5" stroke-width="1.33333" stroke-miterlimit="8" fill="#8EBAE5" fill-rule="evenodd"/><path d="M587.5 286C587.5 284.067 589.067 282.5 591 282.5 592.933 282.5 594.5 284.067 594.5 286 594.5 287.933 592.933 289.5 591 289.5 589.067 289.5 587.5 287.933 587.5 286Z" stroke="#8EBAE5" stroke-width="1.33333" stroke-miterlimit="8" fill="#8EBAE5" fill-rule="evenodd"/><path d="M549.5 305C549.5 303.067 551.067 301.5 553 301.5 554.933 301.5 556.5 303.067 556.5 305 556.5 306.933 554.933 308.5 553 308.5 551.067 308.5 549.5 306.933 549.5 305Z" stroke="#8EBAE5" stroke-width="1.33333" stroke-miterlimit="8" fill="#8EBAE5" fill-rule="evenodd"/><path d="M430.5 244C430.5 242.067 432.067 240.5 434 240.5 435.933 240.5 437.5 242.067 437.5 244 437.5 245.933 435.933 247.5 434 247.5 432.067 247.5 430.5 245.933 430.5 244Z" stroke="#8EBAE5" stroke-width="1.33333" stroke-miterlimit="8" fill="#8EBAE5" fill-rule="evenodd"/><path d="M404.5 211C404.5 209.067 406.067 207.5 408 207.5 409.933 207.5 411.5 209.067 411.5 211 411.5 212.933 409.933 214.5 408 214.5 406.067 214.5 404.5 212.933 404.5 211Z" stroke="#8EBAE5" stroke-width="1.33333" stroke-miterlimit="8" fill="#8EBAE5" fill-rule="evenodd"/><path d="M551.5 191.5C551.5 189.291 553.291 187.5 555.5 187.5 557.709 187.5 559.5 189.291 559.5 191.5 559.5 193.709 557.709 195.5 555.5 195.5 553.291 195.5 551.5 193.709 551.5 191.5Z" stroke="#8EBAE5" stroke-width="1.33333" stroke-miterlimit="8" fill="#8EBAE5" fill-rule="evenodd"/><path d="M521.5 194C521.5 192.067 523.067 190.5 525 190.5 526.933 190.5 528.5 192.067 528.5 194 528.5 195.933 526.933 197.5 525 197.5 523.067 197.5 521.5 195.933 521.5 194Z" stroke="#8EBAE5" stroke-width="1.33333" stroke-miterlimit="8" fill="#8EBAE5" fill-rule="evenodd"/><path d="M407.5 271C407.5 269.067 409.291 267.5 411.5 267.5 413.709 267.5 415.5 269.067 415.5 271 415.5 272.933 413.709 274.5 411.5 274.5 409.291 274.5 407.5 272.933 407.5 271Z" stroke="#8EBAE5" stroke-width="1.33333" stroke-miterlimit="8" fill="#8EBAE5" fill-rule="evenodd"/><path d="M453.5 305C453.5 303.067 455.067 301.5 457 301.5 458.933 301.5 460.5 303.067 460.5 305 460.5 306.933 458.933 308.5 457 308.5 455.067 308.5 453.5 306.933 453.5 305Z" stroke="#8EBAE5" stroke-width="1.33333" stroke-miterlimit="8" fill="#8EBAE5" fill-rule="evenodd"/><path d="M243.5 228C243.5 226.067 245.067 224.5 247 224.5 248.933 224.5 250.5 226.067 250.5 228 250.5 229.933 248.933 231.5 247 231.5 245.067 231.5 243.5 229.933 243.5 228Z" stroke="#8EBAE5" stroke-width="1.33333" stroke-miterlimit="8" fill="#8EBAE5" fill-rule="evenodd"/><path d="M457.5 275C457.5 273.067 459.291 271.5 461.5 271.5 463.709 271.5 465.5 273.067 465.5 275 465.5 276.933 463.709 278.5 461.5 278.5 459.291 278.5 457.5 276.933 457.5 275Z" stroke="#8EBAE5" stroke-width="1.33333" stroke-miterlimit="8" fill="#8EBAE5" fill-rule="evenodd"/><path d="M495.5 256C495.5 254.067 497.067 252.5 499 252.5 500.933 252.5 502.5 254.067 502.5 256 502.5 257.933 500.933 259.5 499 259.5 497.067 259.5 495.5 257.933 495.5 256Z" stroke="#8EBAE5" stroke-width="1.33333" stroke-miterlimit="8" fill="#8EBAE5" fill-rule="evenodd"/><path d="M498.5 225C498.5 223.067 500.067 221.5 502 221.5 503.933 221.5 505.5 223.067 505.5 225 505.5 226.933 503.933 228.5 502 228.5 500.067 228.5 498.5 226.933 498.5 225Z" stroke="#8EBAE5" stroke-width="1.33333" stroke-miterlimit="8" fill="#8EBAE5" fill-rule="evenodd"/><path d="M198.5 126.5C198.5 124.291 200.067 122.5 202 122.5 203.933 122.5 205.5 124.291 205.5 126.5 205.5 128.709 203.933 130.5 202 130.5 200.067 130.5 198.5 128.709 198.5 126.5Z" stroke="#8EBAE5" stroke-width="1.33333" stroke-miterlimit="8" fill="#8EBAE5" fill-rule="evenodd"/><path d="M222.5 162C222.5 160.067 224.291 158.5 226.5 158.5 228.709 158.5 230.5 160.067 230.5 162 230.5 163.933 228.709 165.5 226.5 165.5 224.291 165.5 222.5 163.933 222.5 162Z" stroke="#8EBAE5" stroke-width="1.33333" stroke-miterlimit="8" fill="#8EBAE5" fill-rule="evenodd"/><path d="M248.5 196C248.5 194.067 250.067 192.5 252 192.5 253.933 192.5 255.5 194.067 255.5 196 255.5 197.933 253.933 199.5 252 199.5 250.067 199.5 248.5 197.933 248.5 196Z" stroke="#8EBAE5" stroke-width="1.33333" stroke-miterlimit="8" fill="#8EBAE5" fill-rule="evenodd"/><path d="M526.5 225C526.5 223.067 528.067 221.5 530 221.5 531.933 221.5 533.5 223.067 533.5 225 533.5 226.933 531.933 228.5 530 228.5 528.067 228.5 526.5 226.933 526.5 225Z" stroke="#8EBAE5" stroke-width="1.33333" stroke-miterlimit="8" fill="#8EBAE5" fill-rule="evenodd"/></g></svg>