<svg width="720" height="1040" xmlns="http://www.w3.org/2000/svg" xmlns:xlink="http://www.w3.org/1999/xlink" overflow="hidden"><defs><clipPath id="clip0"><rect x="0" y="0" width="720" height="1040"/></clipPath></defs><g clip-path="url(#clip0)"><rect x="0" y="0" width="720" height="1040" fill="#FFFFFF"/><rect x="54.5001" y="50.5001" width="187" height="146" stroke="#00549F" stroke-width="1.33333" stroke-miterlimit="8" fill="none"/><text font-family="Arial,Arial_MSFontService,sans-serif" font-weight="700" font-size="15" transform="translate(85.7909 224)">(a)<tspan font-weight="400" font-size="15" x="21.8333" y="0">Initial clustering</tspan></text><path d="M95 89C95 87.3431 96.3431 86 98 86 99.6569 86 101 87.3431 101 89 101 90.6569 99.6569 92 98 92 96.3431 92 95 90.6569 95 89Z" fill="#8EBAE5" fill-rule="evenodd"/><path d="M82 95.5C82 93.567 83.3431 92 85 92 86.6569 92 88 93.567 88 95.5 88 97.433 86.6569 99 85 99 83.3431 99 82 97.433 82 95.5Z" fill="#8EBAE5" fill-rule="evenodd"/><path d="M127 121C127 119.343 128.343 118 130 118 131.657 118 133 119.343 133 121 133 122.657 131.657 124 130 124 128.343 124 127 122.657 127 121Z" fill="#8EBAE5" fill-rule="evenodd"/><path d="M144 153C144 151.343 145.343 150 147 150 148.657 150 150 151.343 150 153 150 154.657 148.657 156 147 156 145.343 156 144 154.657 144 153Z" fill="#8EBAE5" fill-rule="evenodd"/><path d="M141 172.5C141 170.567 142.343 169 144 169 145.657 169 147 170.567 147 172.5 147 174.433 145.657 176 144 176 142.343 176 141 174.433 141 172.5Z" fill="#8EBAE5" fill-rule="evenodd"/><path d="M159 165C159 163.343 160.343 162 162 162 163.657 162 165 163.343 165 165 165 166.657 163.657 168 162 168 160.343 168 159 166.657 159 165Z" fill="#8EBAE5" fill-rule="evenodd"/><path d="M192 141C192 139.343 193.343 138 195 138 196.657 138 198 139.343 198 141 198 142.657 196.657 144 195 144 193.343 144 192 142.657 192 141Z" fill="#8EBAE5" fill-rule="evenodd"/><path d="M204 147C204 145.343 205.343 144 207 144 208.657 144 210 145.343 210 147 210 148.657 208.657 150 207 150 205.343 150 204 148.657 204 147Z" fill="#8EBAE5" fill-rule="evenodd"/><path d="M177 71C177 69.3431 178.343 68 180 68 181.657 68 183 69.3431 183 71 183 72.6569 181.657 74 180 74 178.343 74 177 72.6569 177 71Z" fill="#8EBAE5" fill-rule="evenodd"/><path d="M198 77C198 75.3431 199.343 74 201 74 202.657 74 204 75.3431 204 77 204 78.6569 202.657 80 201 80 199.343 80 198 78.6569 198 77Z" fill="#8EBAE5" fill-rule="evenodd"/><path d="M162 84C162 82.3431 163.343 81 165 81 166.657 81 168 82.3431 168 84 168 85.6569 166.657 87 165 87 163.343 87 162 85.6569 162 84Z" fill="#8EBAE5" fill-rule="evenodd"/><path d="M209 103C209 101.343 210.343 100 212 100 213.657 100 215 101.343 215 103 215 104.657 213.657 106 212 106 210.343 106 209 104.657 209 103Z" fill="#8EBAE5" fill-rule="evenodd"/><path d="M183 110C183 108.343 184.343 107 186 107 187.657 107 189 108.343 189 110 189 111.657 187.657 113 186 113 184.343 113 183 111.657 183 110Z" fill="#8EBAE5" fill-rule="evenodd"/><path d="M169 111.5C169 109.567 170.343 108 172 108 173.657 108 175 109.567 175 111.5 175 113.433 173.657 115 172 115 170.343 115 169 113.433 169 111.5Z" fill="#8EBAE5" fill-rule="evenodd"/><path d="M146 105C146 103.343 147.343 102 149 102 150.657 102 152 103.343 152 105 152 106.657 150.657 108 149 108 147.343 108 146 106.657 146 105Z" fill="#8EBAE5" fill-rule="evenodd"/><path d="M116 107C116 105.343 117.343 104 119 104 120.657 104 122 105.343 122 107 122 108.657 120.657 110 119 110 117.343 110 116 108.657 116 107Z" fill="#8EBAE5" fill-rule="evenodd"/><path d="M82 113C82 111.343 83.3431 110 85 110 86.6569 110 88 111.343 88 113 88 114.657 86.6569 116 85 116 83.3431 116 82 114.657 82 113Z" fill="#8EBAE5" fill-rule="evenodd"/><path d="M92 132C92 130.343 93.3431 129 95 129 96.6569 129 98 130.343 98 132 98 133.657 96.6569 135 95 135 93.3431 135 92 133.657 92 132Z" fill="#8EBAE5" fill-rule="evenodd"/><path d="M82 147C82 145.343 83.3431 144 85 144 86.6569 144 88 145.343 88 147 88 148.657 86.6569 150 85 150 83.3431 150 82 148.657 82 147Z" fill="#8EBAE5" fill-rule="evenodd"/><path d="M127 147C127 145.343 128.343 144 130 144 131.657 144 133 145.343 133 147 133 148.657 131.657 150 130 150 128.343 150 127 148.657 127 147Z" fill="#8EBAE5" fill-rule="evenodd"/><path d="M121 162C121 160.343 122.343 159 124 159 125.657 159 127 160.343 127 162 127 163.657 125.657 165 124 165 122.343 165 121 163.657 121 162Z" fill="#8EBAE5" fill-rule="evenodd"/><path d="M182.5 63.5001C180.181 64.4277 181.401 63.9775 178.833 64.8334 178.5 64.9445 178.126 64.9719 177.833 65.1667 174.968 67.0773 178.593 64.7867 175.833 66.1667 175.475 66.3459 175.199 66.6707 174.833 66.8334 174.191 67.1187 173.5 67.2778 172.833 67.5001L170.833 68.1667C170.5 68.2778 170.126 68.3052 169.833 68.5001 169.5 68.7223 169.192 68.9875 168.833 69.1667 168.519 69.3239 168.141 69.3295 167.833 69.5001 167.133 69.8891 166.5 70.389 165.833 70.8334 165.5 71.0556 165.117 71.2168 164.833 71.5001 164.5 71.8334 164.205 72.2106 163.833 72.5001 163.201 72.9919 162.4 73.2669 161.833 73.8334 159.55 76.1166 160.618 75.3104 158.833 76.5001 157.278 78.8334 158.167 78.0556 156.5 79.1667 154.845 81.6496 156.972 78.6002 154.833 81.1667 154.577 81.4744 154.45 81.8835 154.167 82.1667 152.163 84.1706 153.966 80.6338 151.167 84.8334L149.833 86.8334C149.611 87.1667 149.293 87.4533 149.167 87.8334 149.056 88.1667 149.004 88.5262 148.833 88.8334 148.444 89.5338 147.944 90.1667 147.5 90.8334 147.278 91.1667 146.96 91.4533 146.833 91.8334 146.373 93.2134 146.695 92.541 145.833 93.8334 145.722 94.2778 145.626 94.7262 145.5 95.1667 145.404 95.5046 145.259 95.8277 145.167 96.1667 144.926 97.0507 144.5 98.8334 144.5 98.8334 144.555 99.7079 144.397 104.513 145.5 106.167 145.722 106.5 145.988 106.808 146.167 107.167 146.709 108.251 146.211 108.211 147.167 109.167 147.45 109.45 147.833 109.611 148.167 109.833 149.389 111.667 148.167 110.111 149.833 111.5 150.195 111.802 150.441 112.239 150.833 112.5 151.126 112.695 151.526 112.663 151.833 112.833 152.534 113.222 153.167 113.722 153.833 114.167 154.167 114.389 154.453 114.707 154.833 114.833 155.5 115.056 156.249 115.11 156.833 115.5 157.47 115.925 158.028 116.423 158.833 116.5 160.827 116.69 162.835 116.696 164.833 116.833 167.071 116.988 169.273 117.253 171.5 117.5L181.833 117.167C186.367 116.989 189.411 116.776 193.833 116.5 194.611 116.389 195.396 116.321 196.167 116.167 196.511 116.098 196.824 115.91 197.167 115.833 197.826 115.687 198.502 115.621 199.167 115.5 199.972 115.354 201.344 115.08 202.167 114.833 203.176 114.531 204.167 114.167 205.167 113.833 205.5 113.722 205.826 113.585 206.167 113.5 208.182 112.996 207.065 113.312 209.5 112.5L210.5 112.167C210.833 112.056 211.208 112.028 211.5 111.833 211.833 111.611 212.142 111.346 212.5 111.167 212.814 111.01 213.193 111.004 213.5 110.833 214.2 110.444 215.5 109.5 215.5 109.5L216.833 107.5C217.056 107.167 217.373 106.88 217.5 106.5 217.611 106.167 217.663 105.807 217.833 105.5 218.222 104.8 218.913 104.26 219.167 103.5 219.278 103.167 219.343 102.814 219.5 102.5 219.679 102.142 220.004 101.866 220.167 101.5 220.452 100.858 220.611 100.167 220.833 99.5001L221.167 98.5001 221.5 97.5001C221.389 93.389 221.367 89.2744 221.167 85.1667 221.157 84.9775 220.664 83.129 220.5 82.8334 220.111 82.133 219.611 81.5001 219.167 80.8334L218.5 79.8334C218.278 79.5001 218.167 79.0556 217.833 78.8334L216.833 78.1667C216.722 77.8334 216.657 77.4809 216.5 77.1667 216.15 76.4664 215.437 75.6358 214.833 75.1667 214.201 74.6749 212.833 73.8334 212.833 73.8334 211.722 72.1667 212.5 73.0556 210.167 71.5001L209.167 70.8334C208.944 70.5001 208.813 70.0837 208.5 69.8334 208.226 69.6139 207.814 69.6572 207.5 69.5001 207.142 69.3208 206.858 69.0126 206.5 68.8334 206.186 68.6762 205.814 68.6572 205.5 68.5001 205.142 68.3208 204.858 68.0126 204.5 67.8334 204.186 67.6762 203.807 67.6707 203.5 67.5001 202.8 67.111 202.217 66.525 201.5 66.1667 200.121 65.4771 199.814 65.2452 198.167 64.8334 197.722 64.7223 197.274 64.6259 196.833 64.5001 196.496 64.4036 196.176 64.2458 195.833 64.1667 194.729 63.9119 192.5 63.5001 192.5 63.5001 188.005 63.9496 190.077 63.9465 185.167 63.5001L182.5 63.5001Z" stroke="#00549F" stroke-miterlimit="8" stroke-dasharray="1 1" fill="none" fill-rule="evenodd"/><path d="M88.5615 81.5001C87.9479 81.8334 87.4256 82.3649 86.888 82.8334 86.5318 83.1438 86.2575 83.5439 85.8839 83.8334 85.2489 84.3252 83.8757 85.1667 83.8757 85.1667 83.6525 85.5001 83.4907 85.8835 83.2063 86.1667 82.9219 86.45 82.4671 86.5319 82.2022 86.8334 79.4689 89.9445 82.1185 88.0001 79.8593 89.5001 79.7478 89.8334 79.6959 90.1929 79.5246 90.5001L77.5164 93.5001C77.2933 93.8334 76.9743 94.12 76.847 94.5001L75.8429 97.5001C75.7314 97.8334 75.6661 98.1858 75.5082 98.5001 74.6332 100.243 74.9599 99.3513 74.5042 101.167 74.3926 104.833 74.333 108.502 74.1694 112.167 74.1098 113.503 73.9212 114.831 73.8348 116.167 73.6981 118.276 73.6116 120.389 73.5001 122.5 73.6116 124.722 73.7591 126.943 73.8348 129.167 73.9822 133.499 73.9882 137.836 74.1694 142.167 74.2419 143.897 74.4017 144.976 74.8389 146.5 74.9357 146.838 75.0157 147.186 75.1735 147.5 75.3535 147.858 75.663 148.142 75.8429 148.5 76.0008 148.814 75.982 149.208 76.1776 149.5 76.4402 149.892 76.8911 150.128 77.1817 150.5 77.6756 151.132 78.0743 151.833 78.5205 152.5 78.7437 152.833 78.9055 153.217 79.1899 153.5L80.194 154.5C80.8456 156.447 80.0189 154.659 81.5328 156.167 83.4666 158.093 80.7389 156.255 83.2063 158.167 83.8413 158.659 84.5451 159.056 85.2145 159.5L86.2186 160.167 88.2268 161.5C88.5615 161.722 88.9465 161.883 89.2309 162.167 90.8038 163.733 89.8412 162.905 92.2432 164.5 92.5779 164.722 92.8657 165.04 93.2473 165.167 94.2861 165.512 94.5562 165.549 95.5902 166.167 96.28 166.579 96.8351 167.247 97.5984 167.5 97.9331 167.611 98.2869 167.676 98.6025 167.833 98.9622 168.013 99.2369 168.342 99.6066 168.5 100.029 168.681 100.503 168.708 100.945 168.833 103.509 169.563 100.313 168.665 102.954 169.833 104.082 170.333 105.414 170.641 106.635 170.833 108.194 171.078 111.321 171.5 111.321 171.5 118.479 171.203 117.19 171.524 121.697 170.833 122.367 170.731 123.042 170.647 123.705 170.5 124.049 170.424 124.37 170.263 124.709 170.167 125.528 169.934 127.459 169.563 128.056 169.167L129.06 168.5C130.845 165.833 128.502 169.056 130.734 166.833 131.018 166.55 131.145 166.141 131.403 165.833 131.706 165.471 132.072 165.167 132.407 164.833 132.519 164.5 132.57 164.141 132.742 163.833 133.132 163.133 133.826 162.593 134.081 161.833 134.192 161.5 134.244 161.141 134.415 160.833 134.806 160.133 135.5 159.593 135.754 158.833 135.977 158.167 136.032 157.418 136.423 156.833 136.647 156.5 136.929 156.199 137.093 155.833 137.379 155.191 137.539 154.5 137.762 153.833 137.874 153.5 137.901 153.126 138.097 152.833 138.32 152.5 138.586 152.192 138.766 151.833 138.924 151.519 138.93 151.141 139.101 150.833L141.109 147.833C141.332 147.5 141.651 147.213 141.779 146.833 142.593 144.399 142.277 145.515 142.783 143.5 142.894 140.944 142.957 138.386 143.117 135.833 143.428 130.88 143.795 134.576 143.117 128.5 142.936 126.879 142.292 125.367 141.779 123.833 141.667 123.5 141.529 123.174 141.444 122.833 141.337 122.406 141.015 120.978 140.774 120.5 140.595 120.142 140.285 119.858 140.105 119.5 139.947 119.186 139.928 118.814 139.77 118.5 139.59 118.142 139.281 117.858 139.101 117.5 138.943 117.186 138.938 116.807 138.766 116.5 138.376 115.8 137.874 115.167 137.428 114.5 137.204 114.167 136.885 113.88 136.758 113.5 136.647 113.167 136.595 112.807 136.423 112.5 136.033 111.8 135.531 111.167 135.085 110.5L134.415 109.5C134.192 109.167 133.873 108.88 133.746 108.5 132.905 105.987 134.039 109.085 132.742 106.5 131.773 104.57 133.306 106.396 131.403 104.5 130.814 102.74 131.264 103.792 129.729 101.5 129.506 101.167 129.187 100.88 129.06 100.5 128.472 98.7427 129.114 100.165 127.721 98.5001 125.391 95.7156 128.981 99.4215 126.048 96.5001 125.712 95.4978 125.765 95.3616 125.044 94.5001 124.741 94.138 124.343 93.8622 124.04 93.5001 122.645 91.8334 124.207 93.0556 122.366 91.8334 121.25 90.1667 122.031 91.0556 119.688 89.5001L118.684 88.8334C118.35 88.6111 118.062 88.2934 117.68 88.1667 117.346 88.0556 116.985 88.004 116.676 87.8334 115.973 87.4443 115.431 86.7534 114.668 86.5001L110.652 85.1667C110.317 85.0556 109.941 85.0282 109.648 84.8334 109.313 84.6111 109.003 84.3459 108.643 84.1667 108.328 84.0096 107.948 84.004 107.639 83.8334 106.936 83.4443 106.394 82.7534 105.631 82.5001 101.969 81.2844 107.516 83.2232 103.623 81.5001 102.978 81.2147 102.202 81.2232 101.615 80.8334 101.28 80.6111 100.97 80.3459 100.611 80.1667 99.676 79.7013 98.127 79.6229 97.2637 79.5001 96.148 79.6111 95.0248 79.6636 93.9167 79.8334 93.568 79.8868 93.2518 80.0702 92.9126 80.1667 92.4702 80.2926 92.0161 80.3742 91.5738 80.5001 91.2346 80.5965 90.9157 80.7645 90.5697 80.8334 88.8173 81.1825 89.1751 81.1667 88.5615 81.5001Z" stroke="#00549F" stroke-miterlimit="8" stroke-dasharray="1 1" fill="none" fill-rule="evenodd"/><path d="M181 172.5C181 170.567 182.343 169 184 169 185.657 169 187 170.567 187 172.5 187 174.433 185.657 176 184 176 182.343 176 181 174.433 181 172.5Z" fill="#8EBAE5" fill-rule="evenodd"/><path d="M212.84 139.869C210.496 138.447 211.717 139.224 209.188 137.52L208.192 136.849C207.86 136.625 207.574 136.305 207.196 136.178 203.563 134.954 209.065 136.906 205.204 135.171 204.564 134.884 203.212 134.5 203.212 134.5 196.827 134.769 195.181 134.653 189.267 135.507 188.492 135.619 187.713 135.701 186.943 135.842 186.494 135.925 186.062 136.087 185.615 136.178 184.954 136.311 184.28 136.366 183.623 136.513 183.281 136.59 182.968 136.772 182.627 136.849 181.969 136.997 181.292 137.037 180.634 137.185 180.293 137.261 179.975 137.423 179.638 137.52 179.2 137.647 178.758 137.765 178.31 137.856 175.67 138.389 172.932 138.413 170.342 139.198 169.336 139.503 168.35 139.869 167.354 140.205L161.378 142.218 158.389 143.225 157.393 143.56C157.061 143.672 156.689 143.7 156.397 143.896 156.065 144.12 155.766 144.403 155.401 144.567 154.762 144.854 154.073 145.015 153.409 145.238L148.429 146.916 147.433 147.252C147.101 147.364 146.728 147.391 146.437 147.587 144.858 148.651 145.819 148.131 143.449 148.93L142.453 149.265 141.457 149.601C141.235 149.936 141.075 150.322 140.793 150.607 139.464 151.95 140.018 150.496 139.132 152.285 138.976 152.602 138.957 152.976 138.8 153.292 138.622 153.653 138.298 153.93 138.136 154.299 137.852 154.945 137.694 155.641 137.472 156.312 137.362 156.648 137.334 157.024 137.14 157.319L135.148 160.339C134.927 160.675 134.61 160.963 134.484 161.346 133.65 163.876 134.775 160.757 133.488 163.359 133.332 163.675 133.313 164.049 133.156 164.366 132.978 164.727 132.671 165.012 132.492 165.373 132.336 165.689 132.317 166.063 132.16 166.379 131.982 166.74 131.658 167.017 131.496 167.386 130.883 168.779 130.784 169.642 130.5 171.077 131.421 173.869 130.02 169.42 131.164 174.433 131.321 175.122 131.607 175.775 131.828 176.446L132.16 177.453C132.271 177.789 132.298 178.165 132.492 178.46 132.714 178.795 132.856 179.201 133.156 179.466 133.757 179.998 135.148 180.809 135.148 180.809 136.268 182.506 135.205 181.341 136.808 182.151 137.165 182.331 137.44 182.658 137.804 182.822 138.444 183.109 139.214 183.101 139.796 183.493 141.353 184.542 140.399 184.098 142.785 184.5L150.753 184.164 168.682 183.829C170.211 183.779 171.812 183.362 173.33 183.158 185.883 181.466 168.464 183.956 178.642 182.487 180.546 181.845 178.694 182.423 181.298 181.815 184.226 181.133 183.23 181.247 185.615 180.809 186.642 180.62 188.69 180.415 189.599 179.802 192.026 178.167 188.974 180.163 191.923 178.46 192.269 178.26 192.562 177.969 192.919 177.789 193.232 177.63 193.609 177.625 193.915 177.453 194.613 177.061 195.243 176.558 195.907 176.111L196.903 175.44C197.235 175.216 197.617 175.054 197.899 174.768 200.809 171.827 197.118 175.427 199.891 173.091 202.448 170.938 199.41 173.079 201.883 171.413 202.105 171.077 202.282 170.708 202.547 170.406L205.536 167.386C205.868 167.05 206.271 166.774 206.532 166.379L208.524 163.359C208.745 163.024 209.009 162.713 209.188 162.352 209.409 161.905 209.657 161.47 209.852 161.01 209.99 160.685 210.027 160.32 210.184 160.003 210.362 159.643 210.669 159.357 210.848 158.997 211.004 158.68 211.023 158.306 211.18 157.99 211.358 157.629 211.682 157.352 211.844 156.983 212.128 156.337 212.287 155.641 212.508 154.97L212.84 153.963C212.951 153.628 213.103 153.303 213.172 152.956 213.393 151.838 213.479 150.683 213.836 149.601 214.312 148.156 214.083 148.937 214.5 147.252 214.389 145.798 214.393 144.33 214.168 142.889 214.059 142.19 213.504 140.876 212.84 139.869Z" stroke="#00549F" stroke-miterlimit="8" stroke-dasharray="1 1" fill="none" fill-rule="evenodd"/><path d="M163.5 83.5001 163.5 91.0591" stroke="#00549F" stroke-width="1.33333" stroke-miterlimit="8" fill="none" fill-rule="evenodd"/><path d="M0 0 7.55905 0.000104987" stroke="#00549F" stroke-width="1.33333" stroke-miterlimit="8" fill="none" fill-rule="evenodd" transform="matrix(-1 0 0 1 167.059 87.5001)"/><path d="M180.5 168.5 180.5 176.059" stroke="#00549F" stroke-width="1.33333" stroke-miterlimit="8" fill="none" fill-rule="evenodd"/><path d="M0 0 7.55905 0.000104987" stroke="#00549F" stroke-width="1.33333" stroke-miterlimit="8" fill="none" fill-rule="evenodd" transform="matrix(-1 0 0 1 184.059 171.5)"/><path d="M95.5001 128.5 95.5002 136.059" stroke="#00549F" stroke-width="1.33333" stroke-miterlimit="8" fill="none" fill-rule="evenodd"/><path d="M0 0 7.55905 0.000104987" stroke="#00549F" stroke-width="1.33333" stroke-miterlimit="8" fill="none" fill-rule="evenodd" transform="matrix(-1 0 0 1 99.0591 132.5)"/><rect x="258.5" y="50.5001" width="187" height="146" stroke="#00549F" stroke-width="1.33333" stroke-miterlimit="8" fill="none"/><text font-family="Arial,Arial_MSFontService,sans-serif" font-weight="700" font-size="15" transform="translate(319.23 224)">(b)<tspan font-weight="400" font-size="15" x="22.6667" y="0">Iterate</tspan></text><path d="M299 89C299 87.3431 300.343 86 302 86 303.657 86 305 87.3431 305 89 305 90.6569 303.657 92 302 92 300.343 92 299 90.6569 299 89Z" fill="#8EBAE5" fill-rule="evenodd"/><path d="M286 95.5C286 93.567 287.343 92 289 92 290.657 92 292 93.567 292 95.5 292 97.433 290.657 99 289 99 287.343 99 286 97.433 286 95.5Z" fill="#8EBAE5" fill-rule="evenodd"/><path d="M331 121C331 119.343 332.343 118 334 118 335.657 118 337 119.343 337 121 337 122.657 335.657 124 334 124 332.343 124 331 122.657 331 121Z" fill="#8EBAE5" fill-rule="evenodd"/><path d="M348 153C348 151.343 349.343 150 351 150 352.657 150 354 151.343 354 153 354 154.657 352.657 156 351 156 349.343 156 348 154.657 348 153Z" fill="#8EBAE5" fill-rule="evenodd"/><path d="M345 172.5C345 170.567 346.343 169 348 169 349.657 169 351 170.567 351 172.5 351 174.433 349.657 176 348 176 346.343 176 345 174.433 345 172.5Z" fill="#8EBAE5" fill-rule="evenodd"/><path d="M363 165C363 163.343 364.343 162 366 162 367.657 162 369 163.343 369 165 369 166.657 367.657 168 366 168 364.343 168 363 166.657 363 165Z" fill="#8EBAE5" fill-rule="evenodd"/><path d="M396 141C396 139.343 397.343 138 399 138 400.657 138 402 139.343 402 141 402 142.657 400.657 144 399 144 397.343 144 396 142.657 396 141Z" fill="#8EBAE5" fill-rule="evenodd"/><path d="M408 147C408 145.343 409.343 144 411 144 412.657 144 414 145.343 414 147 414 148.657 412.657 150 411 150 409.343 150 408 148.657 408 147Z" fill="#8EBAE5" fill-rule="evenodd"/><path d="M381 71C381 69.3431 382.343 68 384 68 385.657 68 387 69.3431 387 71 387 72.6569 385.657 74 384 74 382.343 74 381 72.6569 381 71Z" fill="#8EBAE5" fill-rule="evenodd"/><path d="M402 77C402 75.3431 403.343 74 405 74 406.657 74 408 75.3431 408 77 408 78.6569 406.657 80 405 80 403.343 80 402 78.6569 402 77Z" fill="#8EBAE5" fill-rule="evenodd"/><path d="M366 84C366 82.3431 367.343 81 369 81 370.657 81 372 82.3431 372 84 372 85.6569 370.657 87 369 87 367.343 87 366 85.6569 366 84Z" fill="#8EBAE5" fill-rule="evenodd"/><path d="M413 103C413 101.343 414.343 100 416 100 417.657 100 419 101.343 419 103 419 104.657 417.657 106 416 106 414.343 106 413 104.657 413 103Z" fill="#8EBAE5" fill-rule="evenodd"/><path d="M387 110C387 108.343 388.343 107 390 107 391.657 107 393 108.343 393 110 393 111.657 391.657 113 390 113 388.343 113 387 111.657 387 110Z" fill="#8EBAE5" fill-rule="evenodd"/><path d="M373 111.5C373 109.567 374.343 108 376 108 377.657 108 379 109.567 379 111.5 379 113.433 377.657 115 376 115 374.343 115 373 113.433 373 111.5Z" fill="#8EBAE5" fill-rule="evenodd"/><path d="M350 105C350 103.343 351.343 102 353 102 354.657 102 356 103.343 356 105 356 106.657 354.657 108 353 108 351.343 108 350 106.657 350 105Z" fill="#8EBAE5" fill-rule="evenodd"/><path d="M320 107C320 105.343 321.343 104 323 104 324.657 104 326 105.343 326 107 326 108.657 324.657 110 323 110 321.343 110 320 108.657 320 107Z" fill="#8EBAE5" fill-rule="evenodd"/><path d="M286 113C286 111.343 287.343 110 289 110 290.657 110 292 111.343 292 113 292 114.657 290.657 116 289 116 287.343 116 286 114.657 286 113Z" fill="#8EBAE5" fill-rule="evenodd"/><path d="M295 132C295 130.343 296.567 129 298.5 129 300.433 129 302 130.343 302 132 302 133.657 300.433 135 298.5 135 296.567 135 295 133.657 295 132Z" fill="#8EBAE5" fill-rule="evenodd"/><path d="M286 147C286 145.343 287.343 144 289 144 290.657 144 292 145.343 292 147 292 148.657 290.657 150 289 150 287.343 150 286 148.657 286 147Z" fill="#8EBAE5" fill-rule="evenodd"/><path d="M331 147C331 145.343 332.343 144 334 144 335.657 144 337 145.343 337 147 337 148.657 335.657 150 334 150 332.343 150 331 148.657 331 147Z" fill="#8EBAE5" fill-rule="evenodd"/><path d="M325 162C325 160.343 326.343 159 328 159 329.657 159 331 160.343 331 162 331 163.657 329.657 165 328 165 326.343 165 325 163.657 325 162Z" fill="#8EBAE5" fill-rule="evenodd"/><path d="M385.5 63.5001C383.181 64.4277 384.401 63.9775 381.833 64.8334 381.5 64.9445 381.126 64.9719 380.833 65.1667 377.968 67.0773 381.594 64.7867 378.833 66.1667 378.475 66.3459 378.199 66.6707 377.833 66.8334 377.191 67.1187 376.5 67.2778 375.833 67.5001L373.833 68.1667C373.5 68.2778 373.126 68.3052 372.833 68.5001 372.5 68.7223 372.192 68.9875 371.833 69.1667 371.519 69.3239 371.141 69.3295 370.833 69.5001 370.133 69.8891 369.5 70.389 368.833 70.8334 368.5 71.0556 368.117 71.2168 367.833 71.5001 367.5 71.8334 367.205 72.2106 366.833 72.5001 366.201 72.9919 365.4 73.2669 364.833 73.8334 362.55 76.1166 363.618 75.3104 361.833 76.5001 360.278 78.8334 361.167 78.0556 359.5 79.1667 357.845 81.6496 359.972 78.6002 357.833 81.1667 357.577 81.4744 357.45 81.8835 357.167 82.1667 355.163 84.1706 356.966 80.6338 354.167 84.8334L352.833 86.8334C352.611 87.1667 352.293 87.4533 352.167 87.8334 352.056 88.1667 352.004 88.5262 351.833 88.8334 351.444 89.5338 350.944 90.1667 350.5 90.8334 350.278 91.1667 349.96 91.4533 349.833 91.8334 349.373 93.2134 349.695 92.541 348.833 93.8334 348.722 94.2778 348.626 94.7262 348.5 95.1667 348.404 95.5046 348.259 95.8277 348.167 96.1667 347.926 97.0507 347.5 98.8334 347.5 98.8334 347.555 99.7079 347.397 104.513 348.5 106.167 348.722 106.5 348.988 106.808 349.167 107.167 349.709 108.251 349.211 108.211 350.167 109.167 350.45 109.45 350.833 109.611 351.167 109.833 352.389 111.667 351.167 110.111 352.833 111.5 353.195 111.802 353.441 112.239 353.833 112.5 354.126 112.695 354.526 112.663 354.833 112.833 355.534 113.222 356.167 113.722 356.833 114.167 357.167 114.389 357.453 114.707 357.833 114.833 358.5 115.056 359.249 115.11 359.833 115.5 360.47 115.925 361.028 116.423 361.833 116.5 363.827 116.69 365.835 116.696 367.833 116.833 370.071 116.988 372.273 117.253 374.5 117.5L384.833 117.167C389.367 116.989 392.411 116.776 396.833 116.5 397.611 116.389 398.396 116.321 399.167 116.167 399.511 116.098 399.824 115.91 400.167 115.833 400.826 115.687 401.502 115.621 402.167 115.5 402.972 115.354 404.344 115.08 405.167 114.833 406.176 114.531 407.167 114.167 408.167 113.833 408.5 113.722 408.826 113.585 409.167 113.5 411.182 112.996 410.065 113.312 412.5 112.5L413.5 112.167C413.833 112.056 414.208 112.028 414.5 111.833 414.833 111.611 415.142 111.346 415.5 111.167 415.814 111.01 416.193 111.004 416.5 110.833 417.2 110.444 418.5 109.5 418.5 109.5L419.833 107.5C420.056 107.167 420.373 106.88 420.5 106.5 420.611 106.167 420.663 105.807 420.833 105.5 421.222 104.8 421.913 104.26 422.167 103.5 422.278 103.167 422.343 102.814 422.5 102.5 422.679 102.142 423.004 101.866 423.167 101.5 423.452 100.858 423.611 100.167 423.833 99.5001L424.167 98.5001 424.5 97.5001C424.389 93.389 424.367 89.2744 424.167 85.1667 424.157 84.9775 423.664 83.129 423.5 82.8334 423.111 82.133 422.611 81.5001 422.167 80.8334L421.5 79.8334C421.278 79.5001 421.167 79.0556 420.833 78.8334L419.833 78.1667C419.722 77.8334 419.657 77.4809 419.5 77.1667 419.15 76.4664 418.437 75.6358 417.833 75.1667 417.201 74.6749 415.833 73.8334 415.833 73.8334 414.722 72.1667 415.5 73.0556 413.167 71.5001L412.167 70.8334C411.944 70.5001 411.813 70.0837 411.5 69.8334 411.226 69.6139 410.814 69.6572 410.5 69.5001 410.142 69.3208 409.858 69.0126 409.5 68.8334 409.186 68.6762 408.814 68.6572 408.5 68.5001 408.142 68.3208 407.858 68.0126 407.5 67.8334 407.186 67.6762 406.807 67.6707 406.5 67.5001 405.8 67.111 405.217 66.525 404.5 66.1667 403.121 65.4771 402.814 65.2452 401.167 64.8334 400.722 64.7223 400.274 64.6259 399.833 64.5001 399.496 64.4036 399.176 64.2458 398.833 64.1667 397.729 63.9119 395.5 63.5001 395.5 63.5001 391.005 63.9496 393.077 63.9465 388.167 63.5001L385.5 63.5001Z" stroke="#00549F" stroke-width="0.666667" stroke-miterlimit="8" stroke-dasharray="0.666667 0.666667" fill="none" fill-rule="evenodd"/><path d="M292.561 81.5001C291.948 81.8334 291.426 82.3649 290.888 82.8334 290.532 83.1438 290.258 83.5439 289.884 83.8334 289.249 84.3252 287.876 85.1667 287.876 85.1667 287.653 85.5001 287.491 85.8835 287.206 86.1667 286.922 86.45 286.467 86.5319 286.202 86.8334 283.469 89.9445 286.119 88.0001 283.859 89.5001 283.748 89.8334 283.696 90.1929 283.525 90.5001L281.516 93.5001C281.293 93.8334 280.974 94.12 280.847 94.5001L279.843 97.5001C279.731 97.8334 279.666 98.1858 279.508 98.5001 278.633 100.243 278.96 99.3513 278.504 101.167 278.393 104.833 278.333 108.502 278.169 112.167 278.11 113.503 277.921 114.831 277.835 116.167 277.698 118.276 277.612 120.389 277.5 122.5 277.612 124.722 277.759 126.943 277.835 129.167 277.982 133.499 277.988 137.836 278.169 142.167 278.242 143.897 278.402 144.976 278.839 146.5 278.936 146.838 279.016 147.186 279.174 147.5 279.354 147.858 279.663 148.142 279.843 148.5 280.001 148.814 279.982 149.208 280.178 149.5 280.44 149.892 280.891 150.128 281.182 150.5 281.676 151.132 282.074 151.833 282.521 152.5 282.744 152.833 282.906 153.217 283.19 153.5L284.194 154.5C284.846 156.447 284.019 154.659 285.533 156.167 287.467 158.093 284.739 156.255 287.206 158.167 287.841 158.659 288.545 159.056 289.215 159.5L290.219 160.167 292.227 161.5C292.561 161.722 292.946 161.883 293.231 162.167 294.804 163.733 293.841 162.905 296.243 164.5 296.578 164.722 296.866 165.04 297.247 165.167 298.286 165.512 298.556 165.549 299.59 166.167 300.28 166.579 300.835 167.247 301.598 167.5 301.933 167.611 302.287 167.676 302.602 167.833 302.962 168.013 303.237 168.342 303.607 168.5 304.029 168.681 304.503 168.708 304.945 168.833 307.509 169.563 304.313 168.665 306.954 169.833 308.082 170.333 309.414 170.641 310.635 170.833 312.194 171.078 315.321 171.5 315.321 171.5 322.479 171.203 321.19 171.524 325.697 170.833 326.367 170.731 327.042 170.647 327.705 170.5 328.049 170.424 328.37 170.263 328.709 170.167 329.528 169.934 331.459 169.563 332.056 169.167L333.06 168.5C334.845 165.833 332.502 169.056 334.734 166.833 335.018 166.55 335.145 166.141 335.403 165.833 335.706 165.471 336.072 165.167 336.407 164.833 336.519 164.5 336.57 164.141 336.742 163.833 337.132 163.133 337.826 162.593 338.081 161.833 338.192 161.5 338.244 161.141 338.415 160.833 338.806 160.133 339.5 159.593 339.754 158.833 339.977 158.167 340.032 157.418 340.423 156.833 340.647 156.5 340.929 156.199 341.093 155.833 341.379 155.191 341.539 154.5 341.762 153.833 341.874 153.5 341.901 153.126 342.097 152.833 342.32 152.5 342.586 152.192 342.766 151.833 342.924 151.519 342.93 151.141 343.101 150.833L345.109 147.833C345.332 147.5 345.651 147.213 345.779 146.833 346.593 144.399 346.277 145.515 346.783 143.5 346.894 140.944 346.957 138.386 347.117 135.833 347.428 130.88 347.795 134.576 347.117 128.5 346.936 126.879 346.292 125.367 345.779 123.833 345.667 123.5 345.53 123.174 345.444 122.833 345.337 122.406 345.015 120.978 344.775 120.5 344.595 120.142 344.285 119.858 344.105 119.5 343.947 119.186 343.928 118.814 343.77 118.5 343.59 118.142 343.281 117.858 343.101 117.5 342.943 117.186 342.938 116.807 342.766 116.5 342.376 115.8 341.874 115.167 341.428 114.5 341.204 114.167 340.885 113.88 340.758 113.5 340.647 113.167 340.595 112.807 340.423 112.5 340.033 111.8 339.531 111.167 339.085 110.5L338.415 109.5C338.192 109.167 337.873 108.88 337.746 108.5 336.905 105.987 338.039 109.085 336.742 106.5 335.773 104.57 337.306 106.396 335.403 104.5 334.814 102.74 335.264 103.792 333.729 101.5 333.506 101.167 333.187 100.88 333.06 100.5 332.472 98.7427 333.114 100.165 331.721 98.5001 329.391 95.7156 332.981 99.4215 330.048 96.5001 329.712 95.4978 329.765 95.3616 329.044 94.5001 328.741 94.138 328.343 93.8622 328.04 93.5001 326.645 91.8334 328.207 93.0556 326.366 91.8334 325.25 90.1667 326.031 91.0556 323.688 89.5001L322.684 88.8334C322.35 88.6111 322.062 88.2934 321.68 88.1667 321.346 88.0556 320.985 88.004 320.676 87.8334 319.973 87.4443 319.431 86.7534 318.668 86.5001L314.652 85.1667C314.317 85.0556 313.941 85.0282 313.648 84.8334 313.313 84.6111 313.003 84.3459 312.643 84.1667 312.328 84.0096 311.948 84.004 311.639 83.8334 310.936 83.4443 310.394 82.7534 309.631 82.5001 305.969 81.2844 311.516 83.2232 307.623 81.5001 306.978 81.2147 306.202 81.2232 305.615 80.8334 305.28 80.6111 304.97 80.3459 304.611 80.1667 303.676 79.7013 302.127 79.6229 301.264 79.5001 300.148 79.6111 299.025 79.6636 297.917 79.8334 297.568 79.8868 297.252 80.0702 296.913 80.1667 296.47 80.2926 296.016 80.3742 295.574 80.5001 295.235 80.5965 294.916 80.7645 294.57 80.8334 292.817 81.1825 293.175 81.1667 292.561 81.5001Z" stroke="#00549F" stroke-width="0.666667" stroke-miterlimit="8" stroke-dasharray="0.666667 0.666667" fill="none" fill-rule="evenodd"/><path d="M385 172.5C385 170.567 386.343 169 388 169 389.657 169 391 170.567 391 172.5 391 174.433 389.657 176 388 176 386.343 176 385 174.433 385 172.5Z" fill="#8EBAE5" fill-rule="evenodd"/><path d="M416.82 139.869C414.448 138.447 415.684 139.224 413.125 137.52L412.117 136.849C411.781 136.625 411.492 136.305 411.109 136.178 407.433 134.954 413.001 136.906 409.093 135.171 408.446 134.884 407.077 134.5 407.077 134.5 400.616 134.769 398.951 134.653 392.966 135.507 392.183 135.619 391.394 135.701 390.615 135.842 390.16 135.925 389.724 136.087 389.271 136.178 388.603 136.311 387.92 136.366 387.255 136.513 386.909 136.59 386.593 136.772 386.247 136.849 385.582 136.997 384.896 137.037 384.231 137.185 383.886 137.261 383.564 137.423 383.223 137.52 382.779 137.647 382.332 137.765 381.88 137.856 379.208 138.389 376.437 138.413 373.816 139.198 372.799 139.503 371.8 139.869 370.793 140.205L364.745 142.218 361.721 143.225 360.714 143.56C360.378 143.672 360 143.7 359.706 143.896 359.37 144.12 359.067 144.403 358.698 144.567 358.05 144.854 357.354 145.015 356.682 145.238L351.642 146.916 350.634 147.252C350.298 147.364 349.921 147.391 349.627 147.587 348.029 148.651 349.002 148.131 346.603 148.93L345.595 149.265 344.587 149.601C344.363 149.936 344.201 150.322 343.915 150.607 342.571 151.95 343.131 150.496 342.235 152.285 342.077 152.602 342.058 152.976 341.899 153.292 341.719 153.653 341.391 153.93 341.227 154.299 340.94 154.945 340.779 155.641 340.555 156.312 340.443 156.648 340.416 157.024 340.219 157.319L338.204 160.339C337.98 160.675 337.659 160.963 337.532 161.346 336.687 163.876 337.826 160.757 336.524 163.359 336.365 163.675 336.346 164.049 336.188 164.366 336.007 164.727 335.697 165.012 335.516 165.373 335.357 165.689 335.338 166.063 335.18 166.379 334.999 166.74 334.672 167.017 334.508 167.386 333.888 168.779 333.787 169.642 333.5 171.077 334.432 173.869 333.014 169.42 334.172 174.433 334.331 175.122 334.62 175.775 334.844 176.446L335.18 177.453C335.292 177.789 335.319 178.165 335.516 178.46 335.74 178.795 335.884 179.201 336.188 179.466 336.796 179.998 338.204 180.809 338.204 180.809 339.336 182.506 338.261 181.341 339.883 182.151 340.245 182.331 340.522 182.658 340.891 182.822 341.539 183.109 342.318 183.101 342.907 183.493 344.482 184.542 343.517 184.098 345.931 184.5L353.994 184.164 372.136 183.829C373.684 183.779 375.304 183.362 376.84 183.158 389.543 181.466 371.916 183.956 382.215 182.487 384.142 181.845 382.268 182.423 384.903 181.815 387.865 181.133 386.858 181.247 389.271 180.809 390.31 180.62 392.382 180.415 393.302 179.802 395.758 178.167 392.67 180.163 395.654 178.46 396.005 178.26 396.301 177.969 396.662 177.789 396.979 177.63 397.36 177.625 397.67 177.453 398.376 177.061 399.014 176.558 399.686 176.111L400.694 175.44C401.03 175.216 401.416 175.054 401.702 174.768 404.646 171.827 400.911 175.427 403.717 173.091 406.304 170.938 403.231 173.079 405.733 171.413 405.957 171.077 406.137 170.708 406.405 170.406L409.429 167.386C409.765 167.05 410.173 166.774 410.437 166.379L412.453 163.359C412.677 163.024 412.944 162.713 413.125 162.352 413.349 161.905 413.599 161.47 413.797 161.01 413.936 160.685 413.974 160.32 414.132 160.003 414.313 159.643 414.624 159.357 414.804 158.997 414.963 158.68 414.982 158.306 415.14 157.99 415.321 157.629 415.648 157.352 415.812 156.983 416.1 156.337 416.26 155.641 416.484 154.97L416.82 153.963C416.932 153.628 417.087 153.303 417.156 152.956 417.38 151.838 417.467 150.683 417.828 149.601 418.31 148.156 418.078 148.937 418.5 147.252 418.388 145.798 418.392 144.33 418.164 142.889 418.054 142.19 417.492 140.876 416.82 139.869Z" stroke="#00549F" stroke-width="0.666667" stroke-miterlimit="8" stroke-dasharray="0.666667 0.666667" fill="none" fill-rule="evenodd"/><path d="M347.58 106.297C347.741 107.622 348.327 108.268 348.868 109.159 349.266 109.814 349.726 110.431 350.155 111.067L350.799 112.021C351.013 112.339 351.169 112.705 351.442 112.975L353.373 114.883C353.695 115.201 353.96 115.588 354.339 115.837L355.305 116.473C356.903 118.842 354.849 115.933 356.914 118.381 357.161 118.675 357.266 119.084 357.557 119.335 358.14 119.839 359.488 120.607 359.488 120.607 359.703 120.925 359.841 121.31 360.132 121.561L363.029 123.469C363.35 123.681 363.721 123.835 363.994 124.105 366.815 126.893 363.237 123.482 365.925 125.695 366.275 125.983 366.531 126.373 366.891 126.649L369.787 128.558C372.926 130.625 368.125 127.31 371.718 130.466 372.297 130.973 373.006 131.314 373.649 131.738L374.615 132.374C374.829 132.692 374.967 133.076 375.259 133.328 375.841 133.831 376.546 134.176 377.19 134.6 377.511 134.812 377.882 134.965 378.155 135.236 378.477 135.554 378.761 135.914 379.121 136.19 379.731 136.659 380.408 137.038 381.052 137.462 381.374 137.674 381.744 137.828 382.017 138.098 382.729 138.801 383.052 139.245 383.948 139.688 384.252 139.838 384.61 139.856 384.914 140.006 385.437 140.264 386.802 141.344 387.167 141.596 388.117 142.253 389.098 142.868 390.063 143.504 390.385 143.716 390.662 144.019 391.029 144.14 391.351 144.246 391.698 144.295 391.994 144.458 392.67 144.829 393.282 145.306 393.925 145.73L394.891 146.366C395.213 146.578 395.489 146.881 395.856 147.002L396.822 147.32C399.852 150.314 394.993 145.797 399.718 148.91 400.04 149.122 400.328 149.395 400.684 149.546 401.542 149.909 404.013 150.127 404.546 150.182 405.724 150.305 406.906 150.394 408.086 150.5 410.759 150.311 411.98 150.413 414.201 149.864 414.53 149.783 414.863 149.696 415.167 149.546 415.513 149.375 415.81 149.122 416.132 148.91L417.42 147.002C417.634 146.684 417.941 146.411 418.063 146.048 418.278 145.412 418.331 144.698 418.707 144.14 418.922 143.822 419.194 143.535 419.351 143.186 419.626 142.573 419.78 141.914 419.994 141.278L420.316 140.324 420.96 138.416C421.067 138.098 421.199 137.787 421.282 137.462L422.247 133.646C422.734 131.723 422.429 132.788 423.213 130.466 423.32 130.148 423.468 129.84 423.535 129.512 423.642 128.982 423.773 128.456 423.856 127.922 423.988 127.077 424.036 126.22 424.178 125.377 424.251 124.946 424.393 124.529 424.5 124.105 424.332 119.284 424.107 112.207 423.856 107.251 423.291 96.0807 423.938 105.592 423.213 100.573 422.674 96.8451 423.261 98.8074 422.569 96.7568 422.462 96.0148 422.418 95.2611 422.247 94.5307 422.095 93.8775 421.768 93.2731 421.604 92.6227 421.496 92.1987 421.409 91.7693 421.282 91.3506 420.989 90.3874 420.638 89.4426 420.316 88.4886 420.209 88.1705 420.061 87.8633 419.994 87.5345 419.887 87.0045 419.805 86.4688 419.672 85.9445 419.49 85.2226 418.928 83.9841 418.707 83.4004 418.588 83.0865 418.55 82.7395 418.385 82.4464 418.009 81.7782 417.342 81.2635 417.098 80.5384 416.532 78.8618 417.15 80.2184 415.81 78.6303 415.563 78.3368 415.34 78.0181 415.167 77.6763 415.015 77.3765 415.057 76.984 414.845 76.7223 414.603 76.4238 414.201 76.2983 413.879 76.0863 413.665 75.7682 413.527 75.3839 413.236 75.1322 412.654 74.6288 411.948 74.2842 411.305 73.8602L410.339 73.2242C410.017 73.0122 409.647 72.8584 409.374 72.5882 409.052 72.2702 408.778 71.8956 408.408 71.6342 406.845 70.5313 407.556 71.3721 406.155 70.6801 405.809 70.5092 405.545 70.1947 405.19 70.0441 404.783 69.8719 404.326 69.8517 403.902 69.7261 403.252 69.5335 402.615 69.3021 401.971 69.0901 401.649 68.9841 401.342 68.8195 401.006 68.7721L398.753 68.4541C396.05 68.1202 395.883 68.1852 393.282 67.8181 392.636 67.7269 391.994 67.606 391.351 67.5001 387.381 67.606 383.409 67.6315 379.442 67.8181 378.896 67.8438 378.371 68.0394 377.833 68.1361 373.84 68.8534 377.419 68.0712 374.937 68.7721 373.859 69.0764 372.738 69.2223 371.718 69.7261 370.035 70.5575 370.896 70.2471 369.144 70.6801 368.432 71.3835 368.109 71.8275 367.213 72.2702 365.761 72.9873 366.665 72.085 365.282 73.2242 364.932 73.5122 364.675 73.9021 364.316 74.1782 363.705 74.6475 362.932 74.9098 362.385 75.4502 361.18 76.6413 361.851 76.262 360.454 76.7223 357.633 79.5094 361.211 76.0986 358.523 78.3123 356.045 80.3528 358.989 78.3232 356.592 79.9024 356.377 80.2204 356.205 80.5707 355.948 80.8564 355.343 81.5286 354.424 81.9599 354.017 82.7644 353.2 84.3783 353.773 83.7735 352.408 84.6725 351.343 87.8287 353.13 83.0073 351.121 86.5805 350.791 87.1665 350.691 87.8525 350.477 88.4886 350.37 88.8066 350.343 89.1636 350.155 89.4426L349.511 90.3966C349.33 91.6531 349.181 92.9727 348.868 94.2127 348.785 94.5379 348.653 94.8487 348.546 95.1667 347.891 99.6985 348.544 94.8712 347.902 101.209 347.487 105.309 347.419 104.972 347.58 106.297Z" stroke="#00549F" stroke-miterlimit="8" stroke-dasharray="4 3" fill="none" fill-rule="evenodd"/><path d="M326.833 157.012C326.278 157.5 324.786 158.514 324.167 159.291 323.675 159.908 323.087 160.502 322.833 161.244L322.5 162.221C322.629 163.354 322.712 165.95 323.5 167.105 323.944 167.756 324.073 168.811 324.833 169.058L325.833 169.384C326.056 169.709 326.187 170.116 326.5 170.361 326.774 170.575 327.186 170.533 327.5 170.686 327.858 170.861 328.142 171.162 328.5 171.337 328.978 171.571 330.406 171.884 330.833 171.988 331.167 172.206 331.475 172.465 331.833 172.64 332.366 172.9 333.668 173.152 334.167 173.291 334.505 173.385 334.829 173.522 335.167 173.616 335.607 173.739 336.06 173.819 336.5 173.942 336.838 174.036 337.162 174.173 337.5 174.267 337.941 174.39 338.395 174.464 338.833 174.593 339.506 174.79 340.152 175.078 340.833 175.244 341.278 175.353 341.728 175.441 342.167 175.57 343.867 176.068 343.963 176.246 345.5 176.547 348.198 177.074 348.057 176.844 351.5 177.198 352.281 177.278 353.051 177.454 353.833 177.523 356.574 177.767 362.271 178.013 364.833 178.174 366.279 178.266 367.722 178.392 369.167 178.5 374.389 178.392 379.616 178.425 384.833 178.174 386.403 178.099 389.5 177.523 389.5 177.523 389.833 177.415 390.193 177.364 390.5 177.198 391.2 176.818 392.5 175.895 392.5 175.895 392.837 175.402 393.5 174.616 393.5 173.942 393.5 173.733 392.991 171.97 392.833 171.663 392.654 171.313 392.346 171.036 392.167 170.686 392.01 170.379 392.053 169.977 391.833 169.709 391.583 169.404 391.167 169.275 390.833 169.058 390.611 168.733 390.468 168.339 390.167 168.081 389.564 167.566 388.167 166.779 388.167 166.779 386.389 164.174 388.722 167.322 386.5 165.151 384.278 162.981 387.5 165.26 384.833 163.523 384.178 162.563 384.129 162.353 383.167 161.57 382.859 161.319 382.474 161.169 382.167 160.919 381.805 160.624 381.539 160.225 381.167 159.942L378.167 157.988 377.167 157.337C376.833 157.12 376.547 156.81 376.167 156.686 375.833 156.578 375.481 156.514 375.167 156.361 374.808 156.185 374.533 155.868 374.167 155.709 373.525 155.431 372.833 155.275 372.167 155.058L370.167 154.407 368.167 153.756C367.833 153.647 367.508 153.514 367.167 153.43L364.5 152.779C364.056 152.671 363.601 152.595 363.167 152.454L361.167 151.802C360.833 151.694 360.508 151.56 360.167 151.477 359.722 151.368 359.281 151.248 358.833 151.151 358.28 151.031 357.728 150.899 357.167 150.826 356.06 150.681 354.944 150.609 353.833 150.5 351.513 151.255 354.012 150.522 349.5 151.151 348.334 151.314 348.211 151.524 347.167 151.802 346.283 152.038 345.369 152.171 344.5 152.454 344.167 152.562 343.838 152.685 343.5 152.779 341.083 153.454 343.042 152.782 339.5 153.43 338.599 153.595 337.737 153.934 336.833 154.081 336.167 154.19 335.493 154.264 334.833 154.407 334.49 154.481 334.176 154.658 333.833 154.733 333.174 154.876 332.489 154.898 331.833 155.058 331.152 155.225 330.515 155.543 329.833 155.709 329.406 155.814 327.978 156.127 327.5 156.361 327.359 156.429 327.389 156.523 326.833 157.012Z" stroke="#00549F" stroke-miterlimit="8" stroke-dasharray="4 3" fill="none" fill-rule="evenodd"/><path d="M283.128 93.0768C282.798 93.6272 282.478 94.1837 282.138 94.728 281.928 95.0645 281.64 95.356 281.479 95.7187 281.196 96.3549 280.819 97.7001 280.819 97.7001 280.709 100.562 280.674 103.428 280.489 106.286 280.453 106.846 280.245 107.382 280.16 107.937 280.025 108.814 279.907 109.695 279.83 110.579 279.687 112.228 279.61 113.881 279.5 115.533 280.264 131.591 279.415 114.284 280.16 128.081 280.278 130.283 280.321 132.488 280.489 134.686 280.541 135.354 280.741 136.003 280.819 136.667 281.46 142.121 280.684 138.436 281.809 142.942 281.993 143.68 282.477 145.762 282.798 146.244 283.018 146.574 283.28 146.88 283.458 147.235 283.613 147.546 283.618 147.921 283.787 148.226L285.766 151.198C285.986 151.528 286.05 152.063 286.426 152.188 290.034 153.393 284.569 151.472 288.404 153.179 290.344 154.042 291.77 154.094 294.011 154.17 299.285 154.349 304.564 154.39 309.84 154.5L317.096 154.17C321.602 154.027 326.113 154.04 330.617 153.84 330.849 153.829 332.599 153.343 332.926 153.179 333.28 153.002 333.56 152.696 333.915 152.519 334.226 152.363 334.575 152.298 334.904 152.188 335.234 151.858 335.535 151.497 335.894 151.198 336.198 150.944 336.635 150.847 336.883 150.537 337.1 150.265 337.02 149.836 337.213 149.547 337.472 149.158 337.872 148.886 338.202 148.556 339.405 144.943 337.487 150.415 339.192 146.574 339.474 145.938 339.631 145.254 339.851 144.593L340.181 143.602 340.84 141.621C340.95 141.291 341.113 140.974 341.17 140.63L341.5 138.649C341.405 136.468 341.102 126.489 340.511 124.119 340.405 123.695 340.088 122.281 339.851 121.807 339.674 121.452 339.369 121.171 339.192 120.816 339.036 120.505 339.017 120.137 338.862 119.826 338.684 119.471 338.379 119.19 338.202 118.835 338.047 118.524 338.028 118.156 337.872 117.844 337.695 117.489 337.374 117.216 337.213 116.854 336.931 116.217 336.773 115.533 336.553 114.872L334.904 109.919 334.575 108.928C334.465 108.598 334.438 108.227 334.245 107.937 334.025 107.607 333.762 107.302 333.585 106.947 333.43 106.635 333.411 106.267 333.255 105.956 333.078 105.601 332.773 105.32 332.596 104.965 332.44 104.654 332.435 104.279 332.266 103.974 331.881 103.281 331.387 102.654 330.947 101.993 330.727 101.663 330.413 101.379 330.287 101.002 330.019 100.197 329.937 99.6612 329.298 99.021 329.018 98.7404 328.638 98.5807 328.309 98.3605 327.566 96.1295 328.596 98.5477 326.989 96.7094 324.296 93.6272 326.907 95.5535 324.681 94.0675 322.922 91.4256 325.231 94.6179 323.032 92.4163 320.833 90.2147 324.021 92.5264 321.383 90.7652 319.514 87.9582 322.592 92.3063 318.745 88.4535 317.195 86.9016 318.143 87.7219 315.777 86.1419L314.787 85.4814C314.458 85.2613 314.174 84.9465 313.798 84.821L311.819 84.1605C311.489 84.0505 311.171 83.8985 310.83 83.8303L309.181 83.5001 304.564 83.8303C302.805 83.9477 301.044 84.014 299.287 84.1605 298.324 84.2409 296.107 84.5187 295 84.821 294.329 85.0041 293.6 85.0953 293.021 85.4814L291.043 86.8024C290.713 87.0226 290.333 87.1822 290.053 87.4628 289.723 87.7931 289.432 88.1668 289.064 88.4535 288.438 88.9408 287.745 89.3342 287.085 89.7745 286.755 89.9947 286.472 90.3094 286.096 90.4349 284.73 90.8907 285.396 90.5721 284.117 91.4256L282.798 93.407C282.578 93.7373 282.419 94.1171 282.138 94.3977L283.128 93.0768Z" stroke="#00549F" stroke-miterlimit="8" stroke-dasharray="4 3" fill="none" fill-rule="evenodd"/><path d="M302.5 121.5 302.5 129.059" stroke="#00549F" stroke-width="1.33333" stroke-miterlimit="8" fill="none" fill-rule="evenodd"/><path d="M0 0 7.55905 0.000104987" stroke="#00549F" stroke-width="1.33333" stroke-miterlimit="8" fill="none" fill-rule="evenodd" transform="matrix(-1 0 0 1 307.059 125.5)"/><path d="M385.5 96.5001 385.5 104.059" stroke="#00549F" stroke-width="1.33333" stroke-miterlimit="8" fill="none" fill-rule="evenodd"/><path d="M0 0 7.55905 0.000104987" stroke="#00549F" stroke-width="1.33333" stroke-miterlimit="8" fill="none" fill-rule="evenodd" transform="matrix(-1 0 0 1 389.059 99.5001)"/><path d="M371.5 157.5 371.5 165.059" stroke="#00549F" stroke-width="1.33333" stroke-miterlimit="8" fill="none" fill-rule="evenodd"/><path d="M0 0 7.55905 0.000104987" stroke="#00549F" stroke-width="1.33333" stroke-miterlimit="8" fill="none" fill-rule="evenodd" transform="matrix(-1 0 0 1 375.059 161.5)"/><rect x="462.5" y="50.5001" width="187" height="146" stroke="#00549F" stroke-width="1.33333" stroke-miterlimit="8" fill="none"/><text font-family="Arial,Arial_MSFontService,sans-serif" font-weight="700" font-size="15" transform="translate(495.622 224)">(c)<tspan font-weight="400" font-size="15" x="21.8333" y="0">Final clustering</tspan></text><path d="M503 90C503 88.3431 504.343 87 506 87 507.657 87 509 88.3431 509 90 509 91.6569 507.657 93 506 93 504.343 93 503 91.6569 503 90Z" fill="#8EBAE5" fill-rule="evenodd"/><path d="M490 96C490 94.3431 491.343 93 493 93 494.657 93 496 94.3431 496 96 496 97.6569 494.657 99 493 99 491.343 99 490 97.6569 490 96Z" fill="#8EBAE5" fill-rule="evenodd"/><path d="M535 122C535 120.343 536.343 119 538 119 539.657 119 541 120.343 541 122 541 123.657 539.657 125 538 125 536.343 125 535 123.657 535 122Z" fill="#8EBAE5" fill-rule="evenodd"/><path d="M552 154C552 152.343 553.343 151 555 151 556.657 151 558 152.343 558 154 558 155.657 556.657 157 555 157 553.343 157 552 155.657 552 154Z" fill="#8EBAE5" fill-rule="evenodd"/><path d="M549 173C549 171.343 550.343 170 552 170 553.657 170 555 171.343 555 173 555 174.657 553.657 176 552 176 550.343 176 549 174.657 549 173Z" fill="#8EBAE5" fill-rule="evenodd"/><path d="M568 165C568 163.343 569.343 162 571 162 572.657 162 574 163.343 574 165 574 166.657 572.657 168 571 168 569.343 168 568 166.657 568 165Z" fill="#8EBAE5" fill-rule="evenodd"/><path d="M601 141C601 139.343 602.343 138 604 138 605.657 138 607 139.343 607 141 607 142.657 605.657 144 604 144 602.343 144 601 142.657 601 141Z" fill="#8EBAE5" fill-rule="evenodd"/><path d="M613 147.5C613 145.567 614.343 144 616 144 617.657 144 619 145.567 619 147.5 619 149.433 617.657 151 616 151 614.343 151 613 149.433 613 147.5Z" fill="#8EBAE5" fill-rule="evenodd"/><path d="M586 71C586 69.3431 587.343 68 589 68 590.657 68 592 69.3431 592 71 592 72.6569 590.657 74 589 74 587.343 74 586 72.6569 586 71Z" fill="#8EBAE5" fill-rule="evenodd"/><path d="M607 77C607 75.3431 608.343 74 610 74 611.657 74 613 75.3431 613 77 613 78.6569 611.657 80 610 80 608.343 80 607 78.6569 607 77Z" fill="#8EBAE5" fill-rule="evenodd"/><path d="M570 84C570 82.3431 571.343 81 573 81 574.657 81 576 82.3431 576 84 576 85.6569 574.657 87 573 87 571.343 87 570 85.6569 570 84Z" fill="#8EBAE5" fill-rule="evenodd"/><path d="M618 103C618 101.343 619.343 100 621 100 622.657 100 624 101.343 624 103 624 104.657 622.657 106 621 106 619.343 106 618 104.657 618 103Z" fill="#8EBAE5" fill-rule="evenodd"/><path d="M592 110C592 108.343 593.343 107 595 107 596.657 107 598 108.343 598 110 598 111.657 596.657 113 595 113 593.343 113 592 111.657 592 110Z" fill="#8EBAE5" fill-rule="evenodd"/><path d="M578 112C578 110.343 579.343 109 581 109 582.657 109 584 110.343 584 112 584 113.657 582.657 115 581 115 579.343 115 578 113.657 578 112Z" fill="#8EBAE5" fill-rule="evenodd"/><path d="M555 105C555 103.343 556.343 102 558 102 559.657 102 561 103.343 561 105 561 106.657 559.657 108 558 108 556.343 108 555 106.657 555 105Z" fill="#8EBAE5" fill-rule="evenodd"/><path d="M525 107C525 105.343 526.343 104 528 104 529.657 104 531 105.343 531 107 531 108.657 529.657 110 528 110 526.343 110 525 108.657 525 107Z" fill="#8EBAE5" fill-rule="evenodd"/><path d="M490 113.5C490 111.567 491.343 110 493 110 494.657 110 496 111.567 496 113.5 496 115.433 494.657 117 493 117 491.343 117 490 115.433 490 113.5Z" fill="#8EBAE5" fill-rule="evenodd"/><path d="M500 132C500 130.343 501.343 129 503 129 504.657 129 506 130.343 506 132 506 133.657 504.657 135 503 135 501.343 135 500 133.657 500 132Z" fill="#8EBAE5" fill-rule="evenodd"/><path d="M490 147.5C490 145.567 491.343 144 493 144 494.657 144 496 145.567 496 147.5 496 149.433 494.657 151 493 151 491.343 151 490 149.433 490 147.5Z" fill="#8EBAE5" fill-rule="evenodd"/><path d="M536 147.5C536 145.567 537.343 144 539 144 540.657 144 542 145.567 542 147.5 542 149.433 540.657 151 539 151 537.343 151 536 149.433 536 147.5Z" fill="#8EBAE5" fill-rule="evenodd"/><path d="M530 162C530 160.343 531.343 159 533 159 534.657 159 536 160.343 536 162 536 163.657 534.657 165 533 165 531.343 165 530 163.657 530 162Z" fill="#8EBAE5" fill-rule="evenodd"/><path d="M590 173C590 171.343 591.343 170 593 170 594.657 170 596 171.343 596 173 596 174.657 594.657 176 593 176 591.343 176 590 174.657 590 173Z" fill="#8EBAE5" fill-rule="evenodd"/><path d="M552.58 106.764C552.741 108.105 553.326 108.759 553.868 109.661 554.266 110.324 554.726 110.948 555.155 111.592L555.799 112.558C556.013 112.879 556.169 113.25 556.442 113.523L558.373 115.454C558.695 115.776 558.96 116.167 559.339 116.42L560.305 117.063C561.903 119.46 559.849 116.516 561.914 118.994 562.161 119.291 562.266 119.705 562.557 119.96 563.14 120.469 564.488 121.247 564.488 121.247 564.703 121.569 564.841 121.958 565.132 122.213L568.029 124.144C568.35 124.358 568.721 124.514 568.994 124.787 571.815 127.608 568.237 124.156 570.925 126.397 571.275 126.688 571.531 127.083 571.891 127.362L574.787 129.293C577.926 131.386 573.125 128.031 576.718 131.224 577.297 131.738 578.006 132.082 578.649 132.512L579.615 133.155C579.829 133.477 579.967 133.866 580.259 134.121 580.841 134.63 581.546 134.979 582.19 135.408 582.511 135.623 582.882 135.778 583.155 136.052 583.477 136.374 583.761 136.738 584.121 137.017 584.731 137.492 585.408 137.876 586.052 138.305 586.374 138.519 586.744 138.675 587.017 138.948 587.729 139.66 588.052 140.109 588.948 140.558 589.252 140.709 589.61 140.728 589.914 140.879 590.437 141.141 591.802 142.233 592.167 142.489 593.117 143.154 594.098 143.776 595.063 144.42 595.385 144.634 595.662 144.941 596.029 145.063 596.351 145.171 596.698 145.22 596.994 145.385 597.67 145.761 598.282 146.243 598.925 146.672L599.891 147.316C600.213 147.531 600.489 147.837 600.856 147.96L601.822 148.282C604.852 151.312 599.993 146.74 604.718 149.891 605.04 150.105 605.328 150.382 605.684 150.535 606.542 150.902 609.013 151.122 609.546 151.178 610.724 151.302 611.906 151.393 613.086 151.5 615.759 151.309 616.98 151.412 619.201 150.856 619.53 150.774 619.863 150.686 620.167 150.535 620.513 150.362 620.81 150.105 621.132 149.891L622.42 147.96C622.634 147.638 622.941 147.361 623.063 146.994 623.278 146.351 623.331 145.628 623.707 145.063 623.922 144.741 624.193 144.451 624.351 144.098 624.626 143.478 624.78 142.81 624.994 142.167L625.316 141.201 625.96 139.27C626.067 138.948 626.199 138.634 626.282 138.305L627.247 134.443C627.734 132.497 627.429 133.575 628.213 131.224 628.32 130.902 628.468 130.591 628.535 130.259 628.642 129.722 628.773 129.19 628.856 128.649 628.988 127.795 629.036 126.928 629.178 126.075 629.251 125.638 629.393 125.216 629.5 124.787 629.332 119.907 629.107 112.746 628.856 107.73 628.291 96.425 628.938 106.051 628.213 100.971 627.674 97.1987 628.261 99.1846 627.569 97.1093 627.462 96.3583 627.418 95.5955 627.247 94.8564 627.095 94.1953 626.768 93.5836 626.604 92.9253 626.496 92.4963 626.409 92.0617 626.282 91.638 625.989 90.6631 625.638 89.7069 625.316 88.7414 625.209 88.4196 625.061 88.1086 624.994 87.7759 624.887 87.2395 624.805 86.6974 624.672 86.1667 624.49 85.4362 623.928 84.1827 623.707 83.592 623.588 83.2743 623.55 82.9231 623.385 82.6265 623.009 81.9503 622.342 81.4294 622.098 80.6955 621.532 78.9987 622.15 80.3716 620.81 78.7644 620.563 78.4673 620.34 78.1449 620.167 77.7989 620.015 77.4955 620.057 77.0983 619.845 76.8334 619.603 76.5313 619.201 76.4043 618.879 76.1897 618.665 75.8679 618.527 75.4789 618.236 75.2242 617.654 74.7147 616.948 74.3659 616.305 73.9368L615.339 73.2932C615.017 73.0786 614.647 72.923 614.374 72.6495 614.052 72.3276 613.778 71.9485 613.408 71.684 611.845 70.5678 612.556 71.4188 611.155 70.7184 610.809 70.5454 610.545 70.2271 610.19 70.0748 609.783 69.9005 609.326 69.88 608.902 69.7529 608.252 69.558 607.615 69.3238 606.971 69.1092 606.649 69.002 606.342 68.8354 606.006 68.7874L603.753 68.4656C601.05 68.1277 600.883 68.1935 598.282 67.8219 597.636 67.7297 596.994 67.6073 596.351 67.5001 592.381 67.6073 588.409 67.633 584.443 67.8219 583.896 67.8479 583.371 68.0459 582.833 68.1437 578.84 68.8697 582.419 68.078 579.937 68.7874 578.859 69.0954 577.738 69.243 576.718 69.7529 575.035 70.5944 575.896 70.2802 574.144 70.7184 573.432 71.4302 573.109 71.8796 572.213 72.3276 570.761 73.0534 571.665 72.1402 570.282 73.2932 569.932 73.5846 569.675 73.9792 569.316 74.2587 568.705 74.7336 567.932 74.9991 567.385 75.546 566.18 76.7515 566.851 76.3676 565.454 76.8334 562.633 79.6541 566.211 76.2022 563.523 78.4426 561.045 80.5076 563.989 78.4536 561.592 80.0518 561.377 80.3736 561.205 80.7282 560.948 81.0173 560.343 81.6977 559.424 82.1342 559.017 82.9483 558.2 84.5816 558.773 83.9696 557.408 84.8794 556.343 88.0736 558.13 83.1941 556.121 86.8104 555.791 87.4035 555.691 88.0978 555.477 88.7414 555.37 89.0633 555.343 89.4246 555.155 89.7069L554.511 90.6725C554.33 91.9441 554.181 93.2796 553.868 94.5345 553.785 94.8637 553.653 95.1782 553.546 95.5001 552.891 100.086 553.544 95.201 552.902 101.615 552.487 105.765 552.419 105.423 552.58 106.764Z" stroke="#00549F" stroke-width="0.666667" stroke-miterlimit="8" stroke-dasharray="2 0.666667" fill="none" fill-rule="evenodd"/><path d="M531.833 157.012C531.278 157.5 529.786 158.514 529.167 159.291 528.675 159.908 528.087 160.502 527.833 161.244L527.5 162.221C527.629 163.354 527.712 165.95 528.5 167.105 528.944 167.756 529.073 168.811 529.833 169.058L530.833 169.384C531.056 169.709 531.187 170.116 531.5 170.361 531.774 170.575 532.186 170.533 532.5 170.686 532.858 170.861 533.142 171.162 533.5 171.337 533.978 171.571 535.406 171.884 535.833 171.988 536.167 172.206 536.475 172.465 536.833 172.64 537.366 172.9 538.668 173.152 539.167 173.291 539.505 173.385 539.829 173.522 540.167 173.616 540.607 173.739 541.06 173.819 541.5 173.942 541.838 174.036 542.162 174.173 542.5 174.267 542.941 174.39 543.395 174.464 543.833 174.593 544.506 174.79 545.152 175.078 545.833 175.244 546.278 175.353 546.728 175.441 547.167 175.57 548.867 176.068 548.964 176.246 550.5 176.547 553.198 177.074 553.057 176.844 556.5 177.198 557.281 177.278 558.051 177.454 558.833 177.523 561.575 177.767 567.271 178.013 569.833 178.174 571.279 178.266 572.722 178.392 574.167 178.5 579.389 178.392 584.616 178.425 589.833 178.174 591.403 178.099 594.5 177.523 594.5 177.523 594.833 177.415 595.193 177.364 595.5 177.198 596.2 176.818 597.5 175.895 597.5 175.895 597.837 175.402 598.5 174.616 598.5 173.942 598.5 173.733 597.991 171.97 597.833 171.663 597.654 171.313 597.346 171.036 597.167 170.686 597.01 170.379 597.053 169.977 596.833 169.709 596.583 169.404 596.167 169.275 595.833 169.058 595.611 168.733 595.468 168.339 595.167 168.081 594.564 167.566 593.167 166.779 593.167 166.779 591.389 164.174 593.722 167.322 591.5 165.151 589.278 162.981 592.5 165.26 589.833 163.523 589.178 162.563 589.129 162.353 588.167 161.57 587.859 161.319 587.474 161.169 587.167 160.919 586.805 160.624 586.539 160.225 586.167 159.942L583.167 157.988 582.167 157.337C581.833 157.12 581.547 156.81 581.167 156.686 580.833 156.578 580.481 156.514 580.167 156.361 579.808 156.185 579.533 155.868 579.167 155.709 578.525 155.431 577.833 155.275 577.167 155.058L575.167 154.407 573.167 153.756C572.833 153.647 572.508 153.514 572.167 153.43L569.5 152.779C569.056 152.671 568.601 152.595 568.167 152.454L566.167 151.802C565.833 151.694 565.508 151.56 565.167 151.477 564.722 151.368 564.281 151.248 563.833 151.151 563.28 151.031 562.728 150.899 562.167 150.826 561.06 150.681 559.944 150.609 558.833 150.5 556.513 151.255 559.012 150.522 554.5 151.151 553.334 151.314 553.211 151.524 552.167 151.802 551.283 152.038 550.369 152.171 549.5 152.454 549.167 152.562 548.838 152.685 548.5 152.779 546.083 153.454 548.042 152.782 544.5 153.43 543.599 153.595 542.737 153.934 541.833 154.081 541.167 154.19 540.493 154.264 539.833 154.407 539.49 154.481 539.176 154.658 538.833 154.733 538.174 154.876 537.489 154.898 536.833 155.058 536.152 155.225 535.515 155.543 534.833 155.709 534.406 155.814 532.978 156.127 532.5 156.361 532.359 156.429 532.389 156.523 531.833 157.012Z" stroke="#00549F" stroke-width="0.666667" stroke-miterlimit="8" stroke-dasharray="2 0.666667" fill="none" fill-rule="evenodd"/><path d="M487.186 93.0768C486.851 93.6272 486.526 94.1837 486.181 94.728 485.967 95.0645 485.674 95.356 485.511 95.7187 485.224 96.3549 484.84 97.7001 484.84 97.7001 484.729 100.562 484.693 103.428 484.505 106.286 484.469 106.846 484.257 107.382 484.17 107.937 484.033 108.814 483.913 109.695 483.835 110.579 483.69 112.228 483.612 113.881 483.5 115.533 484.276 131.591 483.413 114.284 484.17 128.081 484.291 130.283 484.334 132.488 484.505 134.686 484.558 135.354 484.761 136.003 484.84 136.667 485.491 142.121 484.703 138.436 485.846 142.942 486.033 143.68 486.525 145.762 486.851 146.244 487.075 146.574 487.341 146.88 487.521 147.235 487.679 147.546 487.685 147.921 487.856 148.226L489.867 151.198C490.091 151.528 490.155 152.063 490.537 152.188 494.204 153.393 488.65 151.472 492.548 153.179 494.519 154.042 495.968 154.094 498.245 154.17 503.605 154.349 508.968 154.39 514.33 154.5L521.702 154.17C526.281 154.027 530.865 154.04 535.442 153.84 535.677 153.829 537.455 153.343 537.787 153.179 538.148 153.002 538.432 152.696 538.793 152.519 539.109 152.363 539.463 152.298 539.798 152.188 540.133 151.858 540.439 151.497 540.803 151.198 541.113 150.944 541.557 150.847 541.809 150.537 542.029 150.265 541.948 149.836 542.144 149.547 542.407 149.158 542.814 148.886 543.149 148.556 544.371 144.943 542.422 150.415 544.154 146.574 544.441 145.938 544.601 145.254 544.825 144.593L545.16 143.602 545.83 141.621C545.942 141.291 546.107 140.974 546.165 140.63L546.5 138.649C546.404 136.468 546.096 126.489 545.495 124.119 545.387 123.695 545.065 122.281 544.825 121.807 544.644 121.452 544.334 121.171 544.154 120.816 543.996 120.505 543.977 120.137 543.819 119.826 543.639 119.471 543.329 119.19 543.149 118.835 542.991 118.524 542.972 118.156 542.814 117.844 542.634 117.489 542.307 117.216 542.144 116.854 541.857 116.217 541.697 115.533 541.473 114.872L539.798 109.919 539.463 108.928C539.351 108.598 539.324 108.227 539.128 107.937 538.904 107.607 538.638 107.302 538.458 106.947 538.299 106.635 538.28 106.267 538.122 105.956 537.942 105.601 537.632 105.32 537.452 104.965 537.294 104.654 537.289 104.279 537.117 103.974 536.726 103.281 536.223 102.654 535.777 101.993 535.553 101.663 535.234 101.379 535.106 101.002 534.834 100.197 534.751 99.6612 534.101 99.021 533.816 98.7404 533.431 98.5807 533.096 98.3605 532.341 96.1295 533.388 98.5477 531.755 96.7094 529.019 93.6272 531.672 95.5535 529.41 94.0675 527.622 91.4256 529.968 94.6179 527.734 92.4163 525.5 90.2147 528.739 92.5264 526.059 90.7652 524.16 87.9582 527.287 92.3063 523.378 88.4535 521.803 86.9016 522.767 87.7219 520.362 86.1419L519.356 85.4814C519.021 85.2613 518.733 84.9465 518.351 84.821L516.34 84.1605C516.005 84.0505 515.682 83.8985 515.335 83.8303L513.66 83.5001 508.968 83.8303C507.181 83.9477 505.391 84.014 503.606 84.1605 502.628 84.2409 500.375 84.5187 499.25 84.821 498.568 85.0041 497.827 85.0953 497.239 85.4814L495.229 86.8024C494.894 87.0226 494.508 87.1822 494.223 87.4628 493.888 87.7931 493.592 88.1668 493.218 88.4535 492.582 88.9408 491.878 89.3342 491.208 89.7745 490.872 89.9947 490.584 90.3094 490.202 90.4349 488.815 90.8907 489.491 90.5721 488.192 91.4256L486.851 93.407C486.628 93.7373 486.466 94.1171 486.181 94.3977L487.186 93.0768Z" stroke="#00549F" stroke-width="0.666667" stroke-miterlimit="8" stroke-dasharray="2 0.666667" fill="none" fill-rule="evenodd"/><path d="M507.5 113.5 507.5 121.059" stroke="#00549F" stroke-width="1.33333" stroke-miterlimit="8" fill="none" fill-rule="evenodd"/><path d="M0 0 7.55905 0.000104987" stroke="#00549F" stroke-width="1.33333" stroke-miterlimit="8" fill="none" fill-rule="evenodd" transform="matrix(-1 0 0 1 511.059 116.5)"/><path d="M590.5 99.5001 590.5 107.059" stroke="#00549F" stroke-width="1.33333" stroke-miterlimit="8" fill="none" fill-rule="evenodd"/><path d="M0 0 7.55905 0.000104987" stroke="#00549F" stroke-width="1.33333" stroke-miterlimit="8" fill="none" fill-rule="evenodd" transform="matrix(-1 0 0 1 594.059 103.5)"/><path d="M559.5 160.5 559.5 168.059" stroke="#00549F" stroke-width="1.33333" stroke-miterlimit="8" fill="none" fill-rule="evenodd"/><path d="M0 0 7.55905 0.000104987" stroke="#00549F" stroke-width="1.33333" stroke-miterlimit="8" fill="none" fill-rule="evenodd" transform="matrix(-1 0 0 1 563.059 164.5)"/><path d="M486.5 90.4068C486.111 90.9577 485.296 91.1933 484.833 91.7289 484.605 91.9934 484.671 92.4158 484.5 92.7204 484.111 93.4148 483.42 93.9498 483.167 94.7034L481.833 98.6695 481.167 100.653C481.056 100.983 480.919 101.306 480.833 101.644L480.5 102.966C480.611 107.373 480.677 111.781 480.833 116.186 480.858 116.876 481.362 125.269 481.5 126.432 481.541 126.778 481.737 127.089 481.833 127.424 481.959 127.861 482.077 128.3 482.167 128.746 482.299 129.403 482.336 130.079 482.5 130.729 482.67 131.405 482.944 132.051 483.167 132.712L483.5 133.703C483.611 134.034 483.748 134.357 483.833 134.695 483.944 135.136 484.041 135.58 484.167 136.017 484.263 136.352 484.408 136.672 484.5 137.009L485.5 140.975C485.611 141.415 485.689 141.866 485.833 142.297L487.167 146.263 487.833 148.246C487.944 148.576 487.972 148.947 488.167 149.237 488.611 149.898 489.247 150.467 489.5 151.22 489.771 152.027 489.854 152.563 490.5 153.203 490.783 153.484 491.192 153.61 491.5 153.864 491.862 154.164 492.128 154.569 492.5 154.856 496.284 157.774 493.086 155.312 495.5 156.509 497.789 157.643 494.951 156.862 498.167 157.5 501.531 157.083 499.984 157.45 502.833 156.509L503.833 156.178 504.833 155.848 506.167 153.864C506.389 153.534 506.707 153.25 506.833 152.873 506.944 152.542 506.996 152.186 507.167 151.881 507.556 151.187 508.247 150.652 508.5 149.898 508.982 148.463 508.585 149.153 509.833 147.915 510.482 145.985 509.659 147.758 511.167 146.263 513.093 144.353 510.376 146.175 512.833 144.28 513.466 143.792 514.267 143.519 514.833 142.958 515.696 142.102 516.637 141.039 517.833 140.644 518.167 140.534 518.526 140.483 518.833 140.314 519.534 139.928 520.056 139.184 520.833 138.992 521.579 138.807 523.68 138.322 524.167 138 527.108 136.056 522.407 139.038 527.167 136.678 529.129 135.705 528.029 136.173 530.5 135.356 533.014 134.525 529.915 135.646 532.5 134.364 532.814 134.209 533.193 134.203 533.5 134.034 534.2 133.648 534.833 133.153 535.5 132.712L537.5 131.39 538.5 130.729C538.722 130.398 538.91 130.042 539.167 129.737 540.088 128.641 540.213 128.985 540.833 127.754 540.991 127.443 541.01 127.074 541.167 126.763 541.346 126.407 541.671 126.134 541.833 125.771 542.297 124.737 542.556 123.565 542.833 122.466 542.944 120.814 543.001 119.156 543.167 117.509 543.223 116.95 543.5 116.418 543.5 115.856 543.5 114.529 543.333 113.206 543.167 111.89 543.045 110.925 542.498 107.748 542.167 106.271 542.067 105.828 541.933 105.393 541.833 104.949 541.205 102.146 541.874 104.409 540.833 101.314L540.5 100.322C540.389 99.9916 540.252 99.6686 540.167 99.3306 540.056 98.8899 540.014 98.4261 539.833 98.0085 539.676 97.6435 539.346 97.3723 539.167 97.017 539.01 96.7054 539.004 96.3301 538.833 96.0255 538.444 95.331 537.753 94.7961 537.5 94.0424 537.081 92.7955 536.98 92.2043 535.833 91.0678 535.5 90.7373 535.123 90.4452 534.833 90.0763 534.342 89.4492 534.067 88.655 533.5 88.0933 533.167 87.7628 532.802 87.4608 532.5 87.1017 532.244 86.7966 532.1 86.4071 531.833 86.1102 531.207 85.4115 530.5 84.7882 529.833 84.1272L528.833 83.1357C528.5 82.8051 528.226 82.4034 527.833 82.1441 527.5 81.9237 527.181 81.6802 526.833 81.4831 526.002 81.0121 525.394 80.7334 524.5 80.4916 523.616 80.2526 522.745 79.9209 521.833 79.8306L518.5 79.5001C512.456 80.2491 519.321 79.4688 508.5 80.1611 507.496 80.2253 506.5 80.3814 505.5 80.4916 504.611 80.712 503.703 80.8653 502.833 81.1526 502.167 81.373 501.523 81.6769 500.833 81.8136 499.939 81.991 497.892 82.3259 497.167 82.8051 496.833 83.0255 496.525 83.2885 496.167 83.4662 495.853 83.622 495.474 83.6275 495.167 83.7967 494.466 84.1824 493.833 84.6781 493.167 85.1187 490.301 87.0131 493.927 84.7419 491.167 86.1102 490.808 86.2879 490.525 86.5935 490.167 86.7712 489.853 86.9271 489.474 86.9326 489.167 87.1017 488.466 87.4875 487.167 88.4238 487.167 88.4238 486.438 89.507 486.889 89.8559 486.5 90.4068Z" stroke="#00549F" stroke-miterlimit="8" fill="none" fill-rule="evenodd"/><path d="M534.764 145.483C533.774 146.474 532.57 147.29 531.793 148.457 528.454 153.468 532.068 148.325 529.481 151.43 528.609 152.478 528.64 152.964 528.16 154.404L527.83 155.396C527.72 156.497 527.5 157.593 527.5 158.7 527.5 159.048 527.781 159.347 527.83 159.691 528.309 163.043 527.877 162.522 528.491 164.978 528.575 165.316 528.652 165.665 528.821 165.97 529.206 166.664 529.481 167.512 530.142 167.952L531.132 168.613C533.003 171.422 529.921 167.071 533.774 170.926 535.325 172.479 534.376 171.658 536.745 173.239L537.736 173.9C538.066 174.12 538.35 174.435 538.727 174.561 539.057 174.671 539.406 174.736 539.717 174.891 542.857 176.462 537.578 174.508 542.689 176.213L543.679 176.544C544.01 176.654 544.38 176.681 544.67 176.874 546.24 177.921 545.284 177.409 547.642 178.196L549.623 178.857C549.953 178.967 550.272 179.119 550.613 179.187L552.264 179.517C552.923 179.637 553.589 179.716 554.245 179.848 554.69 179.937 555.121 180.089 555.566 180.178 558.758 180.817 556.37 180.204 559.859 180.839 560.305 180.92 560.731 181.1 561.179 181.17 562.164 181.321 563.16 181.39 564.151 181.5L575.708 181.17C578.684 181.025 584.623 180.509 584.623 180.509 585.063 180.399 585.507 180.303 585.943 180.178 586.278 180.083 586.598 179.94 586.934 179.848 587.81 179.609 588.715 179.474 589.576 179.187L591.557 178.526C591.887 178.416 592.21 178.28 592.547 178.196 592.987 178.086 593.433 177.996 593.868 177.865 594.535 177.665 595.849 177.204 595.849 177.204 597.363 174.932 596.919 175.975 597.5 174.23 597.266 172.356 597.307 171.825 596.84 170.265 596.64 169.598 596.565 168.862 596.179 168.283 595.205 166.82 594.403 165.335 592.877 164.317L590.896 162.996C590.566 162.775 590.186 162.616 589.906 162.335 588.635 161.063 589.304 161.603 587.925 160.683 586.032 157.842 588.552 161.185 586.274 159.361 585.964 159.113 585.894 158.65 585.613 158.37 585.333 158.089 584.927 157.963 584.623 157.709 584.264 157.41 584.001 157.004 583.632 156.717 583.006 156.23 582.311 155.836 581.651 155.396L579.67 154.074 576.698 152.091 575.708 151.43C575.377 151.21 575.094 150.895 574.717 150.77 574.057 150.549 573.315 150.495 572.736 150.109 572.406 149.888 572.108 149.609 571.745 149.448 570.129 148.729 569.921 148.9 568.443 148.457 567.777 148.256 567.123 148.016 566.462 147.796L560.519 145.813 558.538 145.152C558.208 145.042 557.889 144.89 557.547 144.822 556.447 144.601 555.334 144.433 554.245 144.161 552.38 143.694 553.37 143.92 551.274 143.5 548.082 143.61 544.886 143.643 541.698 143.83 540.565 143.897 539.091 144.48 538.066 144.822 536.645 145.296 537.413 145.068 535.755 145.483L534.764 145.483Z" stroke="#00549F" stroke-miterlimit="8" fill="none" fill-rule="evenodd"/><path d="M571.251 72.8619C570.582 73.3081 569.933 73.7866 569.243 74.2004 568.209 74.8207 567.939 74.8581 566.9 75.2043 565.521 77.2729 567.052 75.255 565.227 76.8775 564.519 77.5063 563.744 78.0978 563.218 78.8853 562.995 79.2199 562.833 79.6048 562.549 79.8892 562.265 80.1735 561.88 80.3353 561.545 80.5584 561.322 80.8931 561.133 81.2534 560.876 81.5623 560.07 82.5285 559.855 82.5774 558.867 83.2355 558.644 83.5701 558.482 83.955 558.198 84.2393 557.914 84.5237 557.459 84.6059 557.194 84.9086 556.664 85.5139 556.301 86.2471 555.855 86.9164 555.632 87.251 555.47 87.6359 555.186 87.9203L554.182 88.9242C554.07 89.2588 554.043 89.6345 553.847 89.9281 552.796 91.5042 552.904 90.2936 552.174 91.9359 551.887 92.5806 551.727 93.2744 551.504 93.9436L550.835 95.9514 550.5 96.9553C550.612 99.5208 550.645 102.091 550.835 104.652 550.869 105.11 551.079 105.539 551.169 105.99 551.303 106.656 551.34 107.34 551.504 107.998L552.508 111.01C552.62 111.344 552.757 111.671 552.843 112.014 552.954 112.46 552.972 112.941 553.178 113.352 553.427 113.851 553.847 114.245 554.182 114.691 555.023 117.214 553.888 114.104 555.186 116.699 555.344 117.014 555.3 117.427 555.52 117.702 555.772 118.016 556.19 118.149 556.525 118.372 558.297 121.915 555.493 116.662 559.537 122.053 559.871 122.499 560.217 122.937 560.541 123.391 560.775 123.718 560.953 124.086 561.21 124.395 561.513 124.758 561.911 125.035 562.214 125.399 563.609 127.072 562.047 125.845 563.888 127.072 564.201 127.542 565.238 129.138 565.561 129.414 565.94 129.739 566.494 129.794 566.9 130.084 567.285 130.359 567.531 130.797 567.904 131.088 568.539 131.581 569.243 131.98 569.912 132.426L571.92 133.765C572.255 133.988 572.543 134.307 572.925 134.434 573.259 134.545 573.613 134.611 573.929 134.769 574.288 134.948 574.583 135.238 574.933 135.438 576.894 136.558 575.645 135.612 577.276 136.776 577.729 137.101 578.115 137.531 578.614 137.78 579.245 138.096 580.035 138.058 580.622 138.449 581.292 138.896 581.867 139.534 582.631 139.788 583.757 140.163 583.816 140.13 584.974 140.792 585.323 140.991 585.61 141.298 585.978 141.461L588.99 142.465C589.325 142.577 589.7 142.604 589.994 142.8 591.381 143.724 590.608 143.371 592.337 143.804 592.672 144.027 592.981 144.293 593.341 144.473 593.656 144.631 594.036 144.636 594.345 144.807 595.048 145.198 595.59 145.892 596.353 146.146 598.877 146.987 595.766 145.852 598.361 147.15 598.677 147.308 599.05 147.327 599.365 147.484 599.725 147.664 600.002 147.99 600.369 148.154 601.014 148.44 601.708 148.6 602.378 148.823L604.386 149.492 607.398 150.496 608.402 150.831C608.737 150.942 609.06 151.096 609.406 151.165L611.08 151.5C613.311 151.389 615.547 151.351 617.774 151.165 618.232 151.127 618.672 150.963 619.112 150.831 619.788 150.628 620.533 150.553 621.12 150.162 622.602 149.174 624.106 148.361 625.137 146.815L626.476 144.807 627.145 143.804C627.368 143.469 627.687 143.181 627.814 142.8 628.276 141.414 627.953 142.089 628.818 140.792 628.93 140.346 628.992 139.884 629.153 139.453 630.192 136.684 629.589 139.719 630.492 136.107 630.603 135.661 630.7 135.211 630.827 134.769 630.923 134.429 631.068 134.105 631.161 133.765 631.767 131.545 631.775 131.366 632.165 129.414 632.277 127.407 632.5 125.402 632.5 123.391 632.5 117.449 632.333 117.618 631.831 113.352 631.402 109.712 631.76 111.398 631.161 109.002 631.05 107.552 630.979 106.098 630.827 104.652 630.756 103.977 630.582 103.317 630.492 102.644 630.358 101.643 630.3 100.632 630.157 99.6323 630.077 99.0693 629.903 98.5222 629.823 97.9592 629.68 96.9593 629.686 95.938 629.488 94.9475 629.349 94.2557 629.042 93.609 628.818 92.9397L628.484 91.9359C628.372 91.6012 628.235 91.2742 628.149 90.932 628.037 90.4858 627.947 90.034 627.814 89.5934 627.612 88.9177 627.316 88.2701 627.145 87.5857 627.033 87.1395 626.942 86.6877 626.81 86.2471 626.608 85.5714 626.364 84.9086 626.141 84.2393 626.029 83.9047 626.002 83.529 625.806 83.2355 623.414 79.6481 627.139 85.0925 624.133 81.2277 623.639 80.5928 623.363 79.7886 622.794 79.2199 622.459 78.8853 622.093 78.5795 621.79 78.216 620.532 76.7073 621.553 76.8313 619.112 75.2043L617.104 73.8658 616.1 73.1965C614.984 71.5234 615.765 72.4158 613.422 70.8541 613.088 70.631 612.8 70.3121 612.418 70.1849 612.084 70.0734 611.723 70.0215 611.414 69.8503 610.711 69.4597 610.169 68.766 609.406 68.5117 608.737 68.2886 607.985 68.2338 607.398 67.8425 606.196 67.0414 606.093 66.8453 604.386 66.5039 600.684 65.7636 604.144 66.3775 597.357 65.8347 596.35 65.7542 595.349 65.6116 594.345 65.5001 593.676 65.6116 593.002 65.7016 592.337 65.8347 591.886 65.9249 591.447 66.0695 590.998 66.1693 590.443 66.2927 589.88 66.3805 589.325 66.5039 588.875 66.6038 588.435 66.7388 587.986 66.8386 586.757 67.1115 586.14 67.1581 584.974 67.5078 584.298 67.7105 583.635 67.954 582.965 68.1771L578.949 69.5156 577.945 69.8503C577.61 69.9618 577.234 69.9893 576.941 70.1849 575.35 71.2455 576.318 70.7269 573.929 71.5234L571.92 72.1927 571.251 72.8619Z" stroke="#00549F" stroke-miterlimit="8" fill="none" fill-rule="evenodd"/></g></svg>