<svg width="853" height="1137" xmlns="http://www.w3.org/2000/svg" xmlns:xlink="http://www.w3.org/1999/xlink" overflow="hidden"><defs><clipPath id="clip0"><rect x="0" y="0" width="853" height="1137"/></clipPath></defs><g clip-path="url(#clip0)"><rect x="0" y="0" width="853" height="1136.67" fill="#FFFFFF"/><path d="M151 320.072 738.647 320.072 738.647 321.74 151 321.74ZM737.313 316.905 745.318 320.906 737.313 324.907Z" fill="#00549F"/><path d="M160 168.811C181.753 162.348 203.507 155.885 222.981 161.327 242.455 166.77 257.372 204.416 276.846 201.468 296.321 198.52 316.348 143.638 339.827 143.638 363.307 143.638 388.168 200.107 417.725 201.468 447.282 202.829 485.126 150.896 517.168 151.803 549.211 152.71 575.177 208.385 609.982 206.911 644.788 205.436 710.669 150.555 726 142.958" stroke="#00549F" stroke-width="1.66764" stroke-miterlimit="8" fill="none" fill-rule="evenodd"/><path d="M160 272.397C169.496 242.479 178.992 212.561 195.984 215.086 212.977 217.612 236.216 282.717 261.955 287.548 287.694 292.378 323.178 243.742 350.416 244.071 377.654 244.4 396.271 286.45 425.383 289.524 454.495 292.598 492.103 260.979 525.089 262.516 558.074 264.053 589.81 301.711 623.295 298.746 656.781 295.782 712.381 257.904 726 244.73" stroke="#00549F" stroke-width="1.66764" stroke-miterlimit="8" stroke-dasharray="6.67058 5.00293" fill="none" fill-rule="evenodd"/><path d="M3.73413 5.58766 24.7394 47.4812 23.2491 48.2285 2.24381 6.3349ZM0.00999637 8.94689 0 0 7.16351 5.36014ZM26.9732 44.8692 26.9832 53.8161 19.8197 48.456Z" fill="#00549F" transform="matrix(1.00029 0 0 -1 196 214.769)"/><path d="M424.248 282.495 417.747 207.657 419.408 207.513 425.91 282.351ZM428.951 280.748 425.656 289.066 420.976 281.44ZM414.705 209.26 418 200.941 422.68 208.567Z" fill="#00549F"/><path d="M349.057 237.693 339.871 150.677 341.529 150.502 350.716 237.518ZM353.727 235.859 350.586 244.237 345.766 236.699ZM336.86 152.336 340 143.958 344.82 151.496Z" fill="#00549F"/><path d="M1.95663 6.42937 14.57 79.4423 12.9272 79.7262 0.313813 6.71318ZM-2.5805 8.56668 0 0 5.30504 7.20441ZM17.4643 77.5889 14.8838 86.1555 9.5788 78.9511Z" fill="#00549F" transform="matrix(1.00029 0 0 -1 262 287.097)"/><path d="M523.61 255.914 516.645 158.666 518.308 158.547 525.274 255.795ZM528.339 254.239 524.919 262.507 520.355 254.81ZM513.58 160.223 517 151.955 521.564 159.652Z" fill="#00549F"/><path d="M621.529 292.368 610.13 213.659 611.781 213.42 623.18 292.129ZM626.124 290.355 623.31 298.848 618.202 291.502ZM607.186 215.432 610 206.939 615.108 214.286Z" fill="#00549F"/><text font-family="Arial,Arial_MSFontService,sans-serif" font-weight="400" font-size="15" transform="matrix(1 0 0 0.999707 756.731 327)">Time<tspan font-size="15" x="-690.583" y="-156.046">Sequence </tspan><tspan font-family="Cambria Math,Cambria Math_MSFontService,sans-serif" font-size="15" x="-620.375" y="-156.046">ğ‘‹</tspan><tspan font-size="15" x="-690.776" y="-57.0167">Sequence </tspan><tspan font-family="Cambria Math,Cambria Math_MSFontService,sans-serif" font-size="15" x="-620.568" y="-57.0167">ğ‘Œ</tspan></text></g></svg>