<svg width="720" height="1040" xmlns="http://www.w3.org/2000/svg" xmlns:xlink="http://www.w3.org/1999/xlink" overflow="hidden"><defs><clipPath id="clip0"><rect x="0" y="0" width="720" height="1040"/></clipPath></defs><g clip-path="url(#clip0)"><rect x="0" y="0" width="720" height="1040" fill="#FFFFFF"/><path d="M555.5 100.725C556.169 100.86 556.827 101.074 557.507 101.129L566.739 101.938C568.203 106.363 565.869 99.661 567.943 104.365 568.287 105.144 568.479 105.983 568.746 106.792L569.148 108.006C569.281 108.41 569.197 108.983 569.549 109.219L571.957 110.837C572.359 110.702 572.862 110.734 573.162 110.433 575.693 107.882 574.159 108.827 575.169 106.792 575.384 106.357 575.732 106.001 575.972 105.579 576.268 105.055 576.477 104.484 576.774 103.961 577.014 103.539 577.361 103.182 577.577 102.747 578.23 101.432 577.631 101.479 578.781 100.32 579.122 99.9765 579.584 99.781 579.986 99.5114 580.521 98.7024 580.676 97.3918 581.591 97.0844L584 96.2754 585.204 95.8708C585.605 96.0057 586.038 96.0682 586.408 96.2754 587.251 96.7475 588.816 97.8934 588.816 97.8934 589.084 98.7024 589.15 99.6107 589.619 100.32 589.887 100.725 590.226 101.09 590.422 101.534 590.766 102.313 590.957 103.152 591.225 103.961L593.232 110.028 593.633 111.242C593.767 111.646 593.8 112.1 594.035 112.455 596.028 115.468 593.466 111.767 596.042 114.882 597.438 116.571 596.072 115.836 598.049 116.5 598.338 116.442 600.731 116.046 601.26 115.691 602.187 115.068 602.674 114.159 603.267 113.264 603.401 112.86 603.479 112.432 603.668 112.051 604.79 109.791 604.583 111.889 605.274 108.41L606.478 102.343C606.612 101.669 606.664 100.972 606.879 100.32 607.301 99.0468 607.38 98.9112 607.682 97.4889 607.968 96.1444 608.054 94.7483 608.485 93.4439L609.689 89.8035 610.091 88.59C610.224 88.1855 610.389 87.7902 610.492 87.3764 610.626 86.8372 610.735 86.291 610.893 85.7586 611.258 84.5334 611.696 83.3316 612.098 82.1181 612.541 80.7764 612.499 81.3309 612.499 80.5001" stroke="#00549F" stroke-width="1.33333" stroke-miterlimit="8" stroke-dasharray="4 1.33333" fill="none" fill-rule="evenodd"/><path d="M553.5 93.7247C554.204 93.8596 554.897 94.0744 555.613 94.1292L565.331 94.9383C566.872 99.3634 564.414 92.661 566.598 97.3653 566.96 98.1444 567.162 98.9832 567.443 99.7922L567.866 101.006C568.007 101.41 567.918 101.983 568.289 102.219L570.824 103.837C571.246 103.702 571.776 103.734 572.091 103.433 574.756 100.882 573.141 101.827 574.204 99.7922 574.431 99.3573 574.797 99.0008 575.049 98.5788 575.362 98.0552 575.582 97.4843 575.894 96.9608 576.146 96.5387 576.512 96.1821 576.739 95.7473 577.426 94.4315 576.796 94.4792 578.007 93.3203 578.366 92.9765 578.852 92.781 579.274 92.5114 579.838 91.7024 580.001 90.3918 580.964 90.0844L583.5 89.2754 584.767 88.8708C585.19 89.0057 585.645 89.0682 586.035 89.2754 586.922 89.7475 588.57 90.8934 588.57 90.8934 588.852 91.7024 588.921 92.6107 589.415 93.3203 589.697 93.7247 590.054 94.0895 590.26 94.5338 590.622 95.313 590.823 96.1518 591.105 96.9608L593.218 103.028 593.64 104.242C593.781 104.646 593.816 105.1 594.063 105.455 596.161 108.468 593.464 104.767 596.175 107.882 597.646 109.571 596.207 108.836 598.288 109.5 598.593 109.442 601.111 109.046 601.668 108.691 602.644 108.068 603.157 107.159 603.781 106.264 603.922 105.86 604.004 105.432 604.203 105.051 605.384 102.791 605.167 104.889 605.893 101.41L607.161 95.3428C607.302 94.6685 607.356 93.9725 607.584 93.3203 608.027 92.0468 608.11 91.9112 608.429 90.4889 608.73 89.1444 608.819 87.7483 609.274 86.4439L610.541 82.8035 610.964 81.59C611.105 81.1855 611.278 80.7902 611.386 80.3764 611.527 79.8372 611.642 79.291 611.809 78.7586 612.193 77.5334 612.654 76.3316 613.076 75.1181 613.543 73.7764 613.499 74.3309 613.499 73.5001" stroke="#00549F" stroke-width="1.33333" stroke-miterlimit="8" stroke-dasharray="4 1.33333" fill="none" fill-rule="evenodd"/><path d="M556.569 97.7247C557.295 97.8596 553.866 98.0744 554.605 98.1292 557.949 98.399 565.437 98.6685 568.78 98.9383 570.371 103.363 567.834 96.661 570.089 101.365 570.462 102.144 570.67 102.983 570.961 103.792L571.397 105.006C571.542 105.41 571.451 105.983 571.833 106.219L574.45 107.837C574.886 107.702 575.433 107.734 575.758 107.433 578.509 104.882 576.842 105.827 577.939 103.792 578.173 103.357 578.551 103.001 578.811 102.579 579.134 102.055 579.361 101.484 579.683 100.961 579.943 100.539 580.321 100.182 580.556 99.7473 581.265 98.4315 580.614 98.4792 581.864 97.3203 582.235 96.9765 582.736 96.781 583.172 96.5114 583.754 95.7024 583.922 94.3918 584.917 94.0844L587.534 93.2754 588.842 92.8708C589.278 93.0057 589.749 93.0682 590.151 93.2754 591.067 93.7475 592.767 94.8934 592.767 94.8934 593.058 95.7024 593.13 96.6107 593.64 97.3203 593.93 97.7247 594.299 98.0895 594.512 98.5338 594.885 99.313 595.093 100.152 595.384 100.961L597.565 107.028 598.001 108.242C598.146 108.646 598.182 109.1 598.437 109.455 600.603 112.468 597.819 108.767 600.618 111.882 602.135 113.571 600.65 112.836 602.798 113.5 603.113 113.442 605.713 113.046 606.287 112.691 607.295 112.068 607.824 111.159 608.468 110.264 608.613 109.86 608.698 109.432 608.904 109.051 610.122 106.791 609.898 108.889 610.649 105.41L611.957 99.3428C612.102 98.6685 612.159 97.9725 612.393 97.3203 612.851 96.0468 612.937 95.9112 613.265 94.4889 613.576 93.1444 613.669 91.7483 614.138 90.4439L615.446 86.8035 615.882 85.59C616.028 85.1855 616.207 84.7902 616.318 84.3764 616.464 83.8372 616.582 83.291 616.755 82.7586 617.151 81.5334 617.627 80.3316 618.063 79.1181 618.545 77.7764 618.499 78.3309 618.499 77.5001" stroke="#00549F" stroke-width="1.33333" stroke-miterlimit="8" stroke-dasharray="4 1.33333" fill="none" fill-rule="evenodd"/><path d="M630.5 99.5001C631.574 99.627 632.652 99.7254 633.722 99.881 634.508 99.9953 636.504 100.404 637.347 100.643 638.161 100.874 638.958 101.151 639.764 101.405 640.167 101.532 640.619 101.563 640.972 101.786 643.972 103.677 640.288 101.246 643.389 103.691 643.761 103.984 644.195 104.198 644.597 104.452 645.381 106.677 644.387 104.634 646.208 106.357 646.551 106.681 646.704 107.148 647.014 107.5 647.379 107.914 647.858 108.229 648.222 108.643 648.532 108.995 648.65 109.5 649.028 109.786 649.359 110.037 649.833 110.04 650.236 110.167 652.385 113.215 649.565 109.531 652.25 112.072 652.592 112.395 652.691 112.913 653.056 113.214 653.784 113.817 654.667 114.23 655.472 114.738L656.681 115.5C658.56 115.373 660.448 115.327 662.32 115.119 663.166 115.025 664.111 114.469 664.736 113.976 665.174 113.631 665.507 113.178 665.945 112.833 666.316 112.54 666.75 112.326 667.153 112.072 669.153 109.234 666.582 112.719 669.167 109.786 669.477 109.434 669.662 108.995 669.972 108.643 670.337 108.229 670.816 107.914 671.181 107.5 671.491 107.148 671.676 106.709 671.986 106.357 673.092 105.102 673.098 105.334 674.403 104.452 674.949 104.083 675.414 103.594 676.014 103.31 676.014 103.309 679.035 102.357 679.639 102.167 680.282 101.964 681.858 101.435 682.458 101.405 684.469 101.305 686.486 101.405 688.5 101.405" stroke="#00549F" stroke-width="1.33333" stroke-miterlimit="8" fill="none" fill-rule="evenodd"/><path d="M629.5 92.6393C630.663 92.7748 630.413 92.5009 630.851 92.5009 631.289 92.5009 631.479 92.4806 632.128 92.6392 632.777 92.7978 633.872 93.1814 634.744 93.4526 635.18 93.5881 635.67 93.6215 636.052 93.8593 639.3 95.8787 635.311 93.2833 638.668 95.8927 639.071 96.2057 639.54 96.435 639.976 96.7061 640.825 99.0812 639.748 96.9002 641.72 98.7396 642.09 99.0852 642.257 99.5841 642.592 99.9596 642.987 100.401 643.505 100.738 643.9 101.18 644.236 101.555 644.363 102.094 644.772 102.4 645.131 102.668 645.644 102.671 646.08 102.806 648.406 106.06 645.353 102.128 648.26 104.84 648.631 105.185 648.738 105.738 649.132 106.06 649.921 106.704 650.876 107.144 651.748 107.687L653.056 108.5C655.091 108.365 657.134 108.316 659.16 108.093 660.076 107.993 661.1 107.399 661.776 106.873 662.25 106.505 662.61 106.022 663.084 105.653 663.487 105.34 663.956 105.111 664.392 104.84 666.557 101.811 663.774 105.531 666.572 102.4 666.908 102.024 667.109 101.555 667.444 101.18 667.839 100.738 668.357 100.401 668.752 99.9596 669.088 99.5841 669.289 99.1151 669.624 98.7396 670.821 97.3994 670.828 97.647 672.24 96.7061 672.831 96.3122 673.334 95.7892 673.984 95.4861 673.984 95.4859 677.254 94.4693 677.908 94.266 678.604 94.0497 680.31 93.4845 680.96 93.4526 683.137 93.3458 685.32 93.4526 687.5 93.4526" stroke="#00549F" stroke-width="1.33333" stroke-miterlimit="8" fill="none" fill-rule="evenodd"/><path d="M630.5 102.5C631.574 102.635 632.652 102.739 633.722 102.905 634.508 103.026 636.504 103.46 637.347 103.714 638.161 103.959 638.958 104.254 639.764 104.524 640.167 104.659 640.619 104.692 640.972 104.929 643.972 106.938 640.288 104.355 643.389 106.952 643.761 107.264 644.195 107.492 644.597 107.762 645.381 110.126 644.387 107.955 646.208 109.786 646.551 110.13 646.704 110.626 647.014 111 647.379 111.44 647.858 111.775 648.222 112.214 648.532 112.588 648.65 113.125 649.028 113.429 649.359 113.695 649.833 113.699 650.236 113.833 652.385 117.072 649.565 113.158 652.25 115.857 652.592 116.201 652.691 116.751 653.056 117.072 653.784 117.712 654.667 118.151 655.472 118.691L656.681 119.5C658.56 119.365 660.448 119.316 662.32 119.095 663.166 118.995 664.111 118.404 664.736 117.881 665.174 117.515 665.507 117.033 665.945 116.667 666.316 116.355 666.75 116.127 667.153 115.857 669.153 112.842 666.582 116.545 669.167 113.429 669.477 113.055 669.662 112.588 669.972 112.214 670.337 111.775 670.816 111.44 671.181 111 671.491 110.626 671.676 110.159 671.986 109.786 673.092 108.452 673.098 108.698 674.403 107.762 674.949 107.37 675.414 106.849 676.014 106.548 676.014 106.548 679.035 105.536 679.639 105.333 680.282 105.118 681.858 104.556 682.458 104.524 684.469 104.417 686.486 104.524 688.5 104.524" stroke="#00549F" stroke-width="1.33333" stroke-miterlimit="8" fill="none" fill-rule="evenodd"/><path d="M207.5 111.422C207.944 110.75 208.444 110.112 208.833 109.406 209.004 109.097 209.01 108.715 209.167 108.398 209.346 108.037 209.671 107.76 209.833 107.391 210.119 106.743 210.11 105.964 210.5 105.375L211.833 103.359C212.056 103.023 212.373 102.735 212.5 102.352 212.982 100.893 212.585 101.594 213.833 100.336 213.944 100 213.947 99.6047 214.167 99.3282 214.417 99.0129 214.841 98.891 215.167 98.6563 215.619 98.3308 216.003 97.8989 216.5 97.6485 217.129 97.3318 218.5 96.9766 218.5 96.9766 219.167 97.0886 219.859 97.0971 220.5 97.3126 221.3 97.5813 221.811 98.2756 222.167 98.9922 222.324 99.3089 222.329 99.6905 222.5 100 222.889 100.706 223.833 102.016 223.833 102.016 224.715 105.57 223.518 101.384 224.833 104.367 225.119 105.014 225.278 105.711 225.5 106.383L225.833 107.391 226.833 110.414 227.167 111.422C227.278 111.758 227.415 112.086 227.5 112.43 227.607 112.86 227.928 114.299 228.167 114.781 228.346 115.142 228.654 115.428 228.833 115.789 228.991 116.106 228.996 116.487 229.167 116.797 229.556 117.503 230.056 118.141 230.5 118.813L231.167 119.82C231.389 120.156 231.453 120.7 231.833 120.828L233.833 121.5C234.722 121.388 235.658 121.473 236.5 121.164 236.943 121.002 237.198 120.521 237.5 120.156 238.238 119.263 238.241 118.85 238.833 117.805 239.032 117.454 239.278 117.133 239.5 116.797 239.611 116.349 239.702 115.895 239.833 115.453 240.035 114.775 240.33 114.125 240.5 113.438L241.167 110.75C241.278 110.302 241.41 109.859 241.5 109.406 241.765 108.074 242.098 106.255 242.5 105.039L244.5 98.9922 245.167 96.9766C245.278 96.6407 245.415 96.3124 245.5 95.9688 245.611 95.5209 245.708 95.069 245.833 94.6251 246.37 92.7327 245.944 94.5131 246.833 92.2735 247.776 89.898 247.244 90.894 247.833 88.9141 248.035 88.2358 248.278 87.5704 248.5 86.8985 248.611 86.5626 248.639 86.1853 248.833 85.8907 249.278 85.2188 249.913 84.6411 250.167 83.8751 250.501 82.865 250.449 82.7277 251.167 81.8594 251.469 81.4945 251.865 81.2165 252.167 80.8516 252.423 80.5415 252.55 80.1293 252.833 79.8438 253.117 79.5583 253.467 79.3359 253.833 79.1719 254.476 78.8843 255.833 78.5001 255.833 78.5001 256.492 78.7214 257.363 78.9159 257.833 79.5079 258.053 79.7843 258.01 80.199 258.167 80.5157 258.346 80.8768 258.654 81.1624 258.833 81.5235 258.991 81.8402 259.01 82.2146 259.167 82.5313 259.346 82.8924 259.671 83.1702 259.833 83.5391 260.559 85.1837 260.386 85.3952 260.833 86.8985 261.035 87.5768 261.278 88.2422 261.5 88.9141L262.5 91.9376 262.833 92.9454C262.944 93.2813 263.081 93.6096 263.167 93.9532 264.209 98.1539 262.877 92.9312 263.833 96.3047 264.358 98.1558 263.891 97.0922 264.5 98.3204" stroke="#00549F" stroke-width="1.33333" stroke-miterlimit="8" stroke-dasharray="4 1.33333" fill="none" fill-rule="evenodd"/><path d="M207.5 89.2929C207.831 89.8525 208.148 90.421 208.493 90.9715 208.92 91.6523 209.376 92.3143 209.817 92.9858L211.141 95.0001 211.803 96.0072C212.024 96.3429 212.339 96.6316 212.465 97.0143L213.789 101.043C213.899 101.379 213.927 101.756 214.12 102.05 214.341 102.386 214.621 102.688 214.782 103.057 215.065 103.704 215.057 104.483 215.444 105.071 215.665 105.407 215.945 105.71 216.106 106.079 216.389 106.725 216.547 107.421 216.768 108.093 216.878 108.429 216.906 108.806 217.099 109.1 218.148 110.696 217.635 109.724 218.423 112.121L218.754 113.129C218.864 113.464 218.892 113.841 219.085 114.136 220.982 117.022 218.708 113.37 220.078 116.15 220.488 116.981 220.882 117.445 221.733 117.829 222.371 118.116 223.719 118.5 223.719 118.5 224.625 117.888 224.91 117.882 225.374 116.821 225.658 116.175 226.036 114.807 226.036 114.807 226.146 113.017 226.281 111.228 226.367 109.436 226.502 106.639 226.526 103.837 226.698 101.043 226.767 99.9206 227.208 97.8377 227.36 96.6786 227.989 91.8939 227.362 95.3245 228.022 91.9786 228.133 90.7476 228.353 89.5218 228.353 88.2858 228.353 80.9809 227.508 88.0902 228.353 81.2358 228.41 80.7762 228.877 77.5247 229.346 77.2072L231.332 75.8643C231.344 75.8672 233.491 76.3753 233.649 76.5358 234.212 77.1063 234.532 77.8786 234.973 78.5501L235.635 79.5572C235.856 79.8929 236.171 80.1816 236.297 80.5643 236.408 80.9001 236.472 81.255 236.628 81.5715 236.806 81.9324 237.129 82.2099 237.29 82.5786 237.574 83.2254 237.732 83.9215 237.952 84.5929L238.283 85.6001C238.394 85.9358 238.546 86.2602 238.614 86.6072 238.725 87.1668 238.797 87.7353 238.945 88.2858 239.129 88.9686 239.387 89.6286 239.607 90.3L240.269 92.3143C240.505 93.0327 240.658 93.7926 241.262 94.3286 241.861 94.8601 242.586 95.2239 243.248 95.6715 244.532 96.5392 243.864 96.2153 245.234 96.6786 245.896 96.231 246.779 96.0072 247.22 95.3358 248.142 93.9336 247.601 94.6139 248.875 93.3215 249.096 92.6501 249.15 91.896 249.537 91.3072 249.758 90.9715 250.038 90.6688 250.199 90.3 250.483 89.6533 250.641 88.9572 250.861 88.2858L251.523 86.2715 252.185 84.2572C252.296 83.9215 252.432 83.5934 252.516 83.2501 252.627 82.8025 252.717 82.3492 252.847 81.9072 253.048 81.2293 253.289 80.5643 253.509 79.8929 253.62 79.5572 253.756 79.2291 253.84 78.8858L254.502 76.2001C254.613 75.7525 254.744 75.3096 254.833 74.8572 254.944 74.2976 255.028 73.7322 255.164 73.1786 255.565 71.5527 255.495 72.7824 255.495 71.5001" stroke="#00549F" stroke-width="1.33333" stroke-miterlimit="8" stroke-dasharray="4 1.33333" fill="none" fill-rule="evenodd"/><path d="M207.5 124.5C207.942 123.944 208.41 123.409 208.826 122.833 209.294 122.185 209.709 121.5 210.151 120.833 210.372 120.5 210.483 120.056 210.814 119.833L211.808 119.167C212.641 116.653 211.421 119.654 213.134 117.5 214.963 115.2 211.61 117.744 214.459 115.833 216.227 113.167 213.907 116.389 216.116 114.167 216.398 113.883 216.479 113.431 216.779 113.167 217.379 112.639 218.105 112.278 218.767 111.833 219.099 111.611 219.48 111.45 219.762 111.167 220.424 110.5 220.97 109.69 221.75 109.167L224.733 107.167 225.727 106.5C226.058 106.278 226.343 105.96 226.721 105.833L231.692 104.167 232.686 103.833C233.017 103.722 233.338 103.569 233.68 103.5 238.191 102.593 235.872 102.936 240.64 102.5 241.302 102.611 241.963 102.738 242.628 102.833 243.51 102.96 244.399 103.031 245.279 103.167 245.836 103.253 246.382 103.399 246.936 103.5 247.597 103.621 248.269 103.687 248.924 103.833 249.265 103.91 249.582 104.074 249.919 104.167 254.496 105.422 250.748 104.223 254.558 105.5 254.89 105.611 255.262 105.639 255.552 105.833 259.966 108.793 253.425 104.533 257.541 106.833 261.377 108.977 258.108 107.277 260.523 109.167 261.152 109.659 262.512 110.5 262.512 110.5 262.733 110.833 262.893 111.217 263.174 111.5 264.774 113.109 263.742 111.31 264.5 112.833" stroke="#00549F" stroke-width="1.33333" stroke-miterlimit="8" stroke-dasharray="4 1.33333" fill="none" fill-rule="evenodd"/><path d="M281.5 123.5C285.249 123.092 283.573 123.485 286.568 122.507L287.581 122.176C287.919 122.066 288.298 122.039 288.595 121.845 289.613 121.181 289.759 121.025 290.96 120.522 291.974 120.096 292.328 120.261 293.324 119.529 293.834 119.154 294.178 118.595 294.676 118.205 295.31 117.708 296.027 117.323 296.703 116.881L301.77 113.572 302.784 112.91 303.797 112.248C304.447 111.294 304.782 110.661 305.824 109.932 306.114 109.729 306.5 109.711 306.838 109.601 307.288 108.939 307.514 108.056 308.189 107.615 309.998 106.434 308.916 107.235 311.23 104.968 312.153 102.255 310.556 106.454 313.595 101.989 314.045 101.327 314.372 100.566 314.946 100.004 315.284 99.6727 315.673 99.3852 315.96 99.0108 317.028 97.6155 317.741 95.9421 319 94.7087 321.961 91.8082 318.337 95.4875 320.689 92.7231 323.173 89.8036 319.955 94.2496 323.054 90.0756L325.081 87.0972C325.306 86.7662 325.419 86.325 325.757 86.1044L326.77 85.4425C327.574 83.0819 326.435 85.9358 328.122 83.4569 328.319 83.1666 328.262 82.7544 328.46 82.4641 329.52 80.9054 329.412 82.1026 330.149 80.4785 330.438 79.8409 330.429 79.0733 330.824 78.4929L331.5 77.5001" stroke="#00549F" stroke-width="1.33333" stroke-miterlimit="8" fill="none" fill-rule="evenodd"/><path d="M282.5 94.1761C284.639 93.8146 286.163 93.5001 288.5 93.5001 289.176 93.5001 289.835 93.7154 290.5 93.8381 291.361 93.9968 293.483 94.3901 294.167 94.8522L295.167 95.5282C295.389 95.8662 295.55 96.2551 295.833 96.5423 296.117 96.8296 296.57 96.9126 296.833 97.2184 297.361 97.8298 297.722 98.5705 298.167 99.2465 298.389 99.5846 298.707 99.8752 298.833 100.261 298.944 100.599 298.996 100.963 299.167 101.275 299.556 101.985 300.056 102.627 300.5 103.303 300.722 103.641 301.04 103.932 301.167 104.317 302.887 109.549 300.915 104.145 302.5 107.359 302.657 107.678 302.676 108.055 302.833 108.373 303.013 108.737 303.321 109.024 303.5 109.387 303.657 109.706 303.663 110.09 303.833 110.401 304.222 111.112 304.722 111.754 305.167 112.43 305.389 112.768 305.5 113.218 305.833 113.444L306.833 114.12C308.744 117.026 306.2 113.606 308.5 115.472 308.813 115.726 308.827 116.271 309.167 116.486 309.763 116.864 310.5 116.937 311.167 117.162L312.167 117.5C314.86 117.045 313.526 117.379 316.167 116.486L317.167 116.148C317.5 115.81 317.775 115.399 318.167 115.134 318.459 114.936 318.918 115.048 319.167 114.796 319.733 114.221 320.056 113.444 320.5 112.768L321.167 111.754C321.389 111.416 321.707 111.125 321.833 110.739 321.944 110.401 322.01 110.044 322.167 109.725 322.41 109.231 323.607 107.665 323.833 107.359 324.671 104.81 323.541 107.952 324.833 105.331 325.672 103.631 324.398 104.42 326.5 102.289 326.833 101.951 327.198 101.642 327.5 101.275 327.757 100.963 327.91 100.573 328.167 100.261 328.469 99.8934 328.865 99.6137 329.167 99.2465 329.423 98.9345 329.532 98.5 329.833 98.2324 332.636 95.7455 330.849 97.5482 332.833 96.5423 333.192 96.3606 333.475 96.048 333.833 95.8662 334.148 95.7069 334.519 95.6876 334.833 95.5282 335.192 95.3465 335.467 95.0172 335.833 94.8522 337.492 94.1049 337.305 94.1761 338.5 94.1761" stroke="#00549F" stroke-width="1.33333" stroke-miterlimit="8" fill="none" fill-rule="evenodd"/><path d="M283.497 83.0401C279.897 85.2201 282.121 83.7089 282.835 83.7089 283.945 83.7089 285.043 83.9318 286.148 84.0432 286.956 84.3152 287.493 84.3982 288.136 85.0464 289.085 86.0046 288.591 85.9648 289.129 87.0527 289.308 87.4121 289.571 87.7214 289.792 88.0558 289.902 88.7246 289.983 89.3991 290.123 90.0621L291.117 94.0746C291.228 94.5204 291.359 94.9615 291.449 95.4121 291.559 95.9695 291.643 96.5327 291.78 97.084 291.865 97.426 292.035 97.7431 292.111 98.0872 292.414 99.4636 292.412 100.427 292.774 101.765 292.958 102.445 293.216 103.103 293.436 103.772L293.768 104.775C293.878 105.109 294.042 105.43 294.099 105.778 294.209 106.447 294.299 107.119 294.43 107.784 294.681 109.048 295.002 109.849 295.424 111.128 295.535 111.462 295.562 111.838 295.756 112.131 296.197 112.8 296.829 113.375 297.081 114.137 297.191 114.472 297.243 114.832 297.412 115.141 297.799 115.843 298.486 116.384 298.737 117.147 298.848 117.481 298.899 117.842 299.069 118.15 299.455 118.853 299.731 119.71 300.394 120.156L302.382 121.494C302.713 121.717 302.998 122.035 303.376 122.163 305.741 122.958 304.782 122.44 306.357 123.5 307.012 123.28 307.878 123.086 308.345 122.497 308.563 122.222 308.52 121.809 308.676 121.494 308.855 121.134 309.177 120.858 309.339 120.491 309.623 119.846 309.781 119.153 310.002 118.484L310.333 117.481C310.443 117.147 310.607 116.826 310.664 116.478 310.775 115.809 310.921 115.146 310.996 114.472 311.536 109.562 310.859 111.876 311.658 109.456 311.91 107.427 312.226 105.118 312.321 103.103 312.987 88.9764 312.185 96.9764 312.983 89.7277 313.094 87.0527 312.51 84.2539 313.315 81.7026 313.526 81.0309 314.618 82.2331 315.303 82.3713L316.959 82.7057C318.063 82.5943 319.172 82.5194 320.272 82.3713 324.221 81.84 319.117 81.8555 326.236 81.7026 329.99 81.622 333.745 81.7026 337.5 81.7026" stroke="#00549F" stroke-width="1.33333" stroke-miterlimit="8" fill="none" fill-rule="evenodd"/><rect x="25.5001" y="30.5001" width="154" height="144" stroke="#00549F" stroke-width="1.33333" stroke-miterlimit="8" fill="none"/><text font-family="Arial,Arial_MSFontService,sans-serif" font-weight="700" font-size="15" transform="translate(115.44 234)">(a)<tspan font-weight="400" font-size="15" x="21.8333" y="0">Non</tspan><tspan font-weight="400" font-size="15" x="48.8333" y="0">-</tspan><tspan font-weight="400" font-size="15" x="53.6667" y="0">distinct clusters</tspan></text><path d="M53 58C53 56.3431 54.3431 55 56 55 57.6569 55 59 56.3431 59 58 59 59.6569 57.6569 61 56 61 54.3431 61 53 59.6569 53 58Z" fill="#8EBAE5" fill-rule="evenodd"/><path d="M40 64C40 62.3431 41.3431 61 43 61 44.6569 61 46 62.3431 46 64 46 65.6569 44.6569 67 43 67 41.3431 67 40 65.6569 40 64Z" fill="#8EBAE5" fill-rule="evenodd"/><path d="M85 90C85 88.3431 86.3431 87 88 87 89.6569 87 91 88.3431 91 90 91 91.6569 89.6569 93 88 93 86.3431 93 85 91.6569 85 90Z" fill="#8EBAE5" fill-rule="evenodd"/><path d="M102 122C102 120.343 103.343 119 105 119 106.657 119 108 120.343 108 122 108 123.657 106.657 125 105 125 103.343 125 102 123.657 102 122Z" fill="#8EBAE5" fill-rule="evenodd"/><path d="M99 141C99 139.343 100.343 138 102 138 103.657 138 105 139.343 105 141 105 142.657 103.657 144 102 144 100.343 144 99 142.657 99 141Z" fill="#8EBAE5" fill-rule="evenodd"/><path d="M118 133C118 131.343 119.343 130 121 130 122.657 130 124 131.343 124 133 124 134.657 122.657 136 121 136 119.343 136 118 134.657 118 133Z" fill="#8EBAE5" fill-rule="evenodd"/><path d="M151 109.5C151 107.567 152.343 106 154 106 155.657 106 157 107.567 157 109.5 157 111.433 155.657 113 154 113 152.343 113 151 111.433 151 109.5Z" fill="#8EBAE5" fill-rule="evenodd"/><path d="M163 116C163 114.343 164.343 113 166 113 167.657 113 169 114.343 169 116 169 117.657 167.657 119 166 119 164.343 119 163 117.657 163 116Z" fill="#8EBAE5" fill-rule="evenodd"/><path d="M132 56C132 54.3431 133.343 53 135 53 136.657 53 138 54.3431 138 56 138 57.6569 136.657 59 135 59 133.343 59 132 57.6569 132 56Z" fill="#8EBAE5" fill-rule="evenodd"/><path d="M152 62C152 60.3431 153.567 59 155.5 59 157.433 59 159 60.3431 159 62 159 63.6569 157.433 65 155.5 65 153.567 65 152 63.6569 152 62Z" fill="#8EBAE5" fill-rule="evenodd"/><path d="M116 69C116 67.3431 117.343 66 119 66 120.657 66 122 67.3431 122 69 122 70.6569 120.657 72 119 72 117.343 72 116 70.6569 116 69Z" fill="#8EBAE5" fill-rule="evenodd"/><path d="M163 88C163 86.3431 164.343 85 166 85 167.657 85 169 86.3431 169 88 169 89.6569 167.657 91 166 91 164.343 91 163 89.6569 163 88Z" fill="#8EBAE5" fill-rule="evenodd"/><path d="M138 95C138 93.3431 139.343 92 141 92 142.657 92 144 93.3431 144 95 144 96.6569 142.657 98 141 98 139.343 98 138 96.6569 138 95Z" fill="#8EBAE5" fill-rule="evenodd"/><path d="M123 97C123 95.3431 124.343 94 126 94 127.657 94 129 95.3431 129 97 129 98.6569 127.657 100 126 100 124.343 100 123 98.6569 123 97Z" fill="#8EBAE5" fill-rule="evenodd"/><path d="M100 90C100 88.3431 101.343 87 103 87 104.657 87 106 88.3431 106 90 106 91.6569 104.657 93 103 93 101.343 93 100 91.6569 100 90Z" fill="#8EBAE5" fill-rule="evenodd"/><path d="M75 76C75 74.3431 76.3431 73 78 73 79.6569 73 81 74.3431 81 76 81 77.6569 79.6569 79 78 79 76.3431 79 75 77.6569 75 76Z" fill="#8EBAE5" fill-rule="evenodd"/><path d="M40 82C40 80.3431 41.3431 79 43 79 44.6569 79 46 80.3431 46 82 46 83.6569 44.6569 85 43 85 41.3431 85 40 83.6569 40 82Z" fill="#8EBAE5" fill-rule="evenodd"/><path d="M50 100.5C50 98.567 51.3431 97 53 97 54.6569 97 56 98.567 56 100.5 56 102.433 54.6569 104 53 104 51.3431 104 50 102.433 50 100.5Z" fill="#8EBAE5" fill-rule="evenodd"/><path d="M40 116C40 114.343 41.3431 113 43 113 44.6569 113 46 114.343 46 116 46 117.657 44.6569 119 43 119 41.3431 119 40 117.657 40 116Z" fill="#8EBAE5" fill-rule="evenodd"/><path d="M86 116C86 114.343 87.3431 113 89 113 90.6569 113 92 114.343 92 116 92 117.657 90.6569 119 89 119 87.3431 119 86 117.657 86 116Z" fill="#8EBAE5" fill-rule="evenodd"/><path d="M80 130C80 128.343 81.3431 127 83 127 84.6569 127 86 128.343 86 130 86 131.657 84.6569 133 83 133 81.3431 133 80 131.657 80 130Z" fill="#8EBAE5" fill-rule="evenodd"/><path d="M136.5 49.5001C134.181 50.4277 135.401 49.9775 132.833 50.8334 132.5 50.9445 132.126 50.9719 131.833 51.1667 128.968 53.0773 132.593 50.7867 129.833 52.1667 129.475 52.3459 129.199 52.6707 128.833 52.8334 128.191 53.1187 127.5 53.2778 126.833 53.5001L124.833 54.1667C124.5 54.2778 124.126 54.3052 123.833 54.5001 123.5 54.7223 123.192 54.9875 122.833 55.1667 122.519 55.3239 122.141 55.3294 121.833 55.5001 121.133 55.8891 120.5 56.389 119.833 56.8334 119.5 57.0556 119.117 57.2168 118.833 57.5001 118.5 57.8334 118.205 58.2106 117.833 58.5001 117.201 58.9919 116.4 59.2669 115.833 59.8334 113.55 62.1166 114.618 61.3104 112.833 62.5001 111.278 64.8334 112.167 64.0556 110.5 65.1667 108.845 67.6496 110.972 64.6002 108.833 67.1667 108.577 67.4744 108.45 67.8835 108.167 68.1667 106.163 70.1706 107.966 66.6338 105.167 70.8334L103.833 72.8334C103.611 73.1667 103.293 73.4533 103.167 73.8334 103.056 74.1667 103.004 74.5262 102.833 74.8334 102.444 75.5338 101.944 76.1667 101.5 76.8334 101.278 77.1667 100.96 77.4533 100.833 77.8334 100.373 79.2134 100.695 78.541 99.8334 79.8334 99.7223 80.2778 99.6259 80.7262 99.5001 81.1667 99.4036 81.5046 99.2592 81.8277 99.1667 82.1667 98.9257 83.0507 98.5001 84.8334 98.5001 84.8334 98.5547 85.7079 98.3974 90.5126 99.5001 92.1667 99.7223 92.5001 99.9875 92.8084 100.167 93.1667 100.709 94.2511 100.211 94.2114 101.167 95.1667 101.45 95.45 101.833 95.6111 102.167 95.8334 103.389 97.6667 102.167 96.1112 103.833 97.5001 104.195 97.8019 104.441 98.2385 104.833 98.5001 105.126 98.6949 105.526 98.6628 105.833 98.8334 106.534 99.2225 107.167 99.7223 107.833 100.167 108.167 100.389 108.453 100.707 108.833 100.833 109.5 101.056 110.249 101.11 110.833 101.5 111.47 101.925 112.028 102.423 112.833 102.5 114.827 102.69 116.835 102.696 118.833 102.833 121.071 102.988 123.273 103.253 125.5 103.5L135.833 103.167C140.367 102.989 143.411 102.776 147.833 102.5 148.611 102.389 149.396 102.321 150.167 102.167 150.511 102.098 150.824 101.91 151.167 101.833 151.826 101.687 152.502 101.621 153.167 101.5 153.972 101.354 155.344 101.08 156.167 100.833 157.176 100.531 158.167 100.167 159.167 99.8334 159.5 99.7223 159.826 99.5853 160.167 99.5001 162.182 98.9963 161.065 99.3116 163.5 98.5001L164.5 98.1667C164.833 98.0556 165.208 98.0282 165.5 97.8334 165.833 97.6111 166.142 97.3459 166.5 97.1667 166.814 97.0096 167.193 97.004 167.5 96.8334 168.2 96.4443 169.5 95.5001 169.5 95.5001L170.833 93.5001C171.056 93.1667 171.373 92.8801 171.5 92.5001 171.611 92.1667 171.663 91.8072 171.833 91.5001 172.222 90.7997 172.913 90.2602 173.167 89.5001 173.278 89.1667 173.343 88.8143 173.5 88.5001 173.679 88.1417 174.004 87.8661 174.167 87.5001 174.452 86.8578 174.611 86.1667 174.833 85.5001L175.167 84.5001 175.5 83.5001C175.389 79.389 175.367 75.2744 175.167 71.1667 175.157 70.9775 174.664 69.129 174.5 68.8334 174.111 68.133 173.611 67.5001 173.167 66.8334L172.5 65.8334C172.278 65.5001 172.167 65.0556 171.833 64.8334L170.833 64.1667C170.722 63.8334 170.657 63.4809 170.5 63.1667 170.15 62.4664 169.437 61.6358 168.833 61.1667 168.201 60.6749 166.833 59.8334 166.833 59.8334 165.722 58.1667 166.5 59.0556 164.167 57.5001L163.167 56.8334C162.944 56.5001 162.813 56.0837 162.5 55.8334 162.226 55.6139 161.814 55.6572 161.5 55.5001 161.142 55.3208 160.858 55.0126 160.5 54.8334 160.186 54.6762 159.814 54.6572 159.5 54.5001 159.142 54.3208 158.858 54.0126 158.5 53.8334 158.186 53.6762 157.807 53.6707 157.5 53.5001 156.8 53.111 156.217 52.525 155.5 52.1667 154.121 51.4771 153.814 51.2453 152.167 50.8334 151.722 50.7223 151.274 50.6259 150.833 50.5001 150.496 50.4036 150.176 50.2458 149.833 50.1667 148.729 49.9119 146.5 49.5001 146.5 49.5001 142.005 49.9496 144.077 49.9465 139.167 49.5001L136.5 49.5001Z" stroke="#00549F" stroke-miterlimit="8" stroke-dasharray="4 3" fill="none" fill-rule="evenodd"/><path d="M47.5615 50.5001C46.9479 50.8334 46.4256 51.3649 45.888 51.8334 45.5318 52.1438 45.2575 52.5439 44.8839 52.8334 44.2489 53.3252 42.8757 54.1667 42.8757 54.1667 42.6525 54.5001 42.4907 54.8835 42.2063 55.1667 41.9219 55.45 41.4671 55.5319 41.2022 55.8334 38.4689 58.9445 41.1185 57.0001 38.8593 58.5001 38.7478 58.8334 38.6959 59.1929 38.5246 59.5001L36.5164 62.5001C36.2933 62.8334 35.9743 63.12 35.847 63.5001L34.8429 66.5001C34.7314 66.8334 34.6661 67.1858 34.5082 67.5001 33.6332 69.2431 33.9599 68.3513 33.5042 70.1667 33.3926 73.8334 33.333 77.5019 33.1695 81.1667 33.1098 82.5033 32.9212 83.8315 32.8348 85.1667 32.6981 87.2763 32.6116 89.389 32.5001 91.5001 32.6116 93.7223 32.7591 95.943 32.8348 98.1667 32.9822 102.499 32.9882 106.836 33.1695 111.167 33.2419 112.897 33.4017 113.976 33.8388 115.5 33.9357 115.838 34.0157 116.186 34.1735 116.5 34.3535 116.858 34.663 117.142 34.8429 117.5 35.0008 117.814 34.982 118.208 35.1776 118.5 35.4402 118.892 35.8911 119.128 36.1817 119.5 36.6756 120.132 37.0743 120.833 37.5205 121.5 37.7437 121.833 37.9055 122.217 38.1899 122.5L39.194 123.5C39.8456 125.447 39.0189 123.659 40.5328 125.167 42.4666 127.093 39.7389 125.255 42.2063 127.167 42.8413 127.659 43.5451 128.056 44.2145 128.5L45.2186 129.167 47.2268 130.5C47.5615 130.722 47.9465 130.883 48.2309 131.167 49.8038 132.733 48.8412 131.905 51.2432 133.5 51.5779 133.722 51.8657 134.04 52.2473 134.167 53.2861 134.512 53.5562 134.549 54.5902 135.167 55.28 135.579 55.8351 136.247 56.5984 136.5 56.9331 136.611 57.2869 136.676 57.6025 136.833 57.9622 137.013 58.2369 137.342 58.6066 137.5 59.0294 137.681 59.503 137.708 59.9454 137.833 62.5087 138.563 59.3132 137.665 61.9535 138.833 63.0823 139.333 64.4139 139.641 65.6352 139.833 67.1937 140.078 70.321 140.5 70.321 140.5 77.4794 140.203 76.1902 140.524 80.6967 139.833 81.3674 139.731 82.0424 139.647 82.7049 139.5 83.0493 139.424 83.3697 139.263 83.709 139.167 84.5275 138.934 86.4594 138.563 87.0559 138.167L88.06 137.5C89.8451 134.833 87.5022 138.056 89.7335 135.833 90.018 135.55 90.1454 135.141 90.4029 134.833 90.706 134.471 91.0723 134.167 91.407 133.833 91.5186 133.5 91.5704 133.141 91.7417 132.833 92.1324 132.133 92.8262 131.593 93.0805 130.833 93.192 130.5 93.2439 130.141 93.4152 129.833 93.8059 129.133 94.4996 128.593 94.754 127.833 94.9772 127.167 95.032 126.418 95.4234 125.833 95.6466 125.5 95.9294 125.199 96.0928 124.833 96.3793 124.191 96.539 123.5 96.7622 122.833 96.8737 122.5 96.9013 122.126 97.0969 121.833 97.3201 121.5 97.5864 121.192 97.7663 120.833 97.9241 120.519 97.9297 120.141 98.101 119.833L100.109 116.833C100.332 116.5 100.651 116.213 100.779 115.833 101.593 113.399 101.277 114.515 101.783 112.5 101.894 109.944 101.957 107.386 102.117 104.833 102.428 99.8802 102.795 103.576 102.117 97.5001 101.936 95.8785 101.292 94.3668 100.779 92.8334 100.667 92.5001 100.529 92.1743 100.444 91.8334 100.337 91.4062 100.015 89.9783 99.7745 89.5001 99.5946 89.1417 99.285 88.8584 99.1051 88.5001 98.9473 88.1858 98.9282 87.8143 98.7704 87.5001 98.5905 87.1417 98.281 86.8584 98.101 86.5001 97.9432 86.1858 97.9376 85.8072 97.7663 85.5001 97.3756 84.7997 96.8737 84.1667 96.4275 83.5001 96.2043 83.1667 95.8854 82.8801 95.7581 82.5001 95.6466 82.1667 95.5947 81.8072 95.4234 81.5001 95.0327 80.7997 94.5308 80.1667 94.0846 79.5001L93.4152 78.5001C93.192 78.1667 92.8731 77.8801 92.7458 77.5001 91.9046 74.9866 93.0394 78.0847 91.7417 75.5001 90.7729 73.5704 92.3063 75.3957 90.4029 73.5001 89.8139 71.7399 90.2639 72.7924 88.7294 70.5001 88.5063 70.1667 88.1873 69.8801 88.06 69.5001 87.4718 67.7427 88.1141 69.1646 86.7212 67.5001 84.3913 64.7156 87.9812 68.4215 85.0478 65.5001 84.7123 64.4978 84.7646 64.3616 84.0437 63.5001 83.7406 63.138 83.3426 62.8622 83.0396 62.5001 81.645 60.8334 83.2069 62.0556 81.3661 60.8334 80.2504 59.1667 81.0314 60.0556 78.6885 58.5001L77.6844 57.8334C77.3497 57.6111 77.0619 57.2934 76.6803 57.1667 76.3456 57.0556 75.9846 57.004 75.6762 56.8334 74.973 56.4443 74.4312 55.7534 73.668 55.5001L69.6516 54.1667C69.3169 54.0556 68.9411 54.0282 68.6475 53.8334 68.3128 53.6111 68.0032 53.3459 67.6434 53.1667 67.3279 53.0096 66.9478 53.004 66.6393 52.8334 65.9361 52.4443 65.3943 51.7534 64.6311 51.5001 60.9692 50.2844 66.5159 52.2232 62.6229 50.5001 61.9781 50.2147 61.2018 50.2232 60.6147 49.8334 60.28 49.6111 59.9704 49.3459 59.6106 49.1667 58.676 48.7013 57.127 48.6229 56.2637 48.5001 55.148 48.6111 54.0248 48.6636 52.9167 48.8334 52.568 48.8868 52.2518 49.0702 51.9126 49.1667 51.4702 49.2926 51.0161 49.3742 50.5738 49.5001 50.2346 49.5965 49.9157 49.7645 49.5697 49.8334 47.8173 50.1825 48.1751 50.1667 47.5615 50.5001Z" stroke="#00549F" stroke-miterlimit="8" stroke-dasharray="1 1" fill="none" fill-rule="evenodd"/><path d="M140 141C140 139.343 141.343 138 143 138 144.657 138 146 139.343 146 141 146 142.657 144.657 144 143 144 141.343 144 140 142.657 140 141Z" fill="#8EBAE5" fill-rule="evenodd"/><path d="M171.82 107.869C169.448 106.447 170.684 107.224 168.125 105.52L167.117 104.849C166.781 104.625 166.492 104.305 166.109 104.178 162.433 102.954 168.001 104.906 164.093 103.171 163.446 102.884 162.077 102.5 162.077 102.5 155.616 102.769 153.951 102.653 147.966 103.507 147.183 103.619 146.394 103.701 145.615 103.842 145.16 103.925 144.724 104.087 144.271 104.178 143.603 104.311 142.92 104.366 142.255 104.513 141.909 104.59 141.593 104.772 141.247 104.849 140.582 104.997 139.896 105.037 139.231 105.185 138.886 105.261 138.564 105.423 138.223 105.52 137.779 105.647 137.332 105.765 136.88 105.856 134.208 106.389 131.437 106.413 128.816 107.198 127.799 107.503 126.8 107.869 125.793 108.205L119.745 110.218 116.721 111.225 115.713 111.56C115.378 111.672 115 111.7 114.706 111.896 114.37 112.12 114.067 112.403 113.698 112.567 113.05 112.854 112.354 113.015 111.682 113.238L106.642 114.916 105.634 115.252C105.298 115.364 104.921 115.391 104.627 115.587 103.029 116.651 104.002 116.131 101.603 116.93L100.595 117.265 99.587 117.601C99.363 117.936 99.2006 118.322 98.9151 118.607 97.5712 119.95 98.1312 118.496 97.2352 120.285 97.0768 120.602 97.0577 120.976 96.8993 121.292 96.7186 121.653 96.3913 121.93 96.2273 122.299 95.9397 122.945 95.7794 123.641 95.5554 124.312 95.4434 124.648 95.4158 125.024 95.2194 125.319L93.2036 128.339C92.9796 128.675 92.6594 128.963 92.5317 129.346 91.6873 131.876 92.8264 128.757 91.5238 131.359 91.3654 131.675 91.3462 132.049 91.1878 132.366 91.0072 132.727 90.6965 133.012 90.5159 133.373 90.3575 133.689 90.3383 134.063 90.1799 134.379 89.9993 134.74 89.672 135.017 89.508 135.386 88.888 136.779 88.7875 137.642 88.5001 139.077 89.4318 141.869 88.0138 137.42 89.172 142.433 89.3312 143.122 89.6199 143.775 89.8439 144.446L90.1799 145.453C90.2918 145.789 90.3195 146.165 90.5159 146.46 90.7399 146.795 90.8839 147.201 91.1878 147.466 91.7955 147.998 93.2036 148.809 93.2036 148.809 94.3363 150.506 93.2606 149.341 94.8835 150.151 95.2446 150.331 95.5224 150.658 95.8914 150.822 96.5386 151.109 97.3179 151.101 97.9072 151.493 99.4818 152.542 98.5168 152.098 100.931 152.5L108.994 152.164 127.136 151.829C128.684 151.779 130.304 151.362 131.84 151.158 144.543 149.466 126.916 151.956 137.215 150.487 139.142 149.845 137.268 150.423 139.903 149.815 142.865 149.133 141.858 149.247 144.271 148.809 145.31 148.62 147.382 148.415 148.302 147.802 150.758 146.167 147.67 148.163 150.654 146.46 151.005 146.26 151.301 145.969 151.662 145.789 151.979 145.63 152.36 145.625 152.67 145.453 153.376 145.061 154.014 144.558 154.686 144.111L155.694 143.44C156.03 143.216 156.416 143.054 156.702 142.769 159.646 139.827 155.911 143.427 158.717 141.091 161.304 138.938 158.231 141.079 160.733 139.413 160.957 139.077 161.137 138.708 161.405 138.406L164.429 135.386C164.765 135.05 165.173 134.774 165.437 134.379L167.453 131.359C167.677 131.024 167.944 130.713 168.125 130.352 168.349 129.905 168.599 129.47 168.796 129.01 168.936 128.685 168.974 128.32 169.132 128.003 169.313 127.643 169.624 127.357 169.804 126.997 169.963 126.68 169.982 126.306 170.14 125.99 170.321 125.629 170.648 125.352 170.812 124.983 171.1 124.337 171.26 123.641 171.484 122.97L171.82 121.963C171.932 121.628 172.087 121.303 172.156 120.956 172.38 119.838 172.467 118.683 172.828 117.601 173.31 116.156 173.078 116.937 173.5 115.252 173.388 113.798 173.392 112.33 173.164 110.889 173.054 110.19 172.492 108.876 171.82 107.869Z" stroke="#00549F" stroke-miterlimit="8" fill="none" fill-rule="evenodd"/><path d="M117.5 69.5001 117.5 77.0591" stroke="#00549F" stroke-width="1.33333" stroke-miterlimit="8" fill="none" fill-rule="evenodd"/><path d="M0 0 7.55905 0.000104987" stroke="#00549F" stroke-width="1.33333" stroke-miterlimit="8" fill="none" fill-rule="evenodd" transform="matrix(-1 0 0 1 121.059 72.5001)"/><path d="M138.5 136.5 138.5 144.059" stroke="#00549F" stroke-width="1.33333" stroke-miterlimit="8" fill="none" fill-rule="evenodd"/><path d="M0 0 7.55905 0.000104987" stroke="#00549F" stroke-width="1.33333" stroke-miterlimit="8" fill="none" fill-rule="evenodd" transform="matrix(-1 0 0 1 142.059 140.5)"/><path d="M53.5001 97.5001 53.5002 105.059" stroke="#00549F" stroke-width="1.33333" stroke-miterlimit="8" fill="none" fill-rule="evenodd"/><path d="M0 0 7.55905 0.000104987" stroke="#00549F" stroke-width="1.33333" stroke-miterlimit="8" fill="none" fill-rule="evenodd" transform="matrix(-1 0 0 1 58.0591 100.5)"/><text font-family="Arial,Arial_MSFontService,sans-serif" font-weight="700" font-size="15" transform="translate(472.182 234)">(b)<tspan font-weight="400" font-size="15" x="22.6667" y="0">Distinct clusters</tspan></text><path d="M400 85C400 83.3431 401.343 82 403 82 404.657 82 406 83.3431 406 85 406 86.6569 404.657 88 403 88 401.343 88 400 86.6569 400 85Z" fill="#8EBAE5" fill-rule="evenodd"/><path d="M391 86C391 84.3431 392.343 83 394 83 395.657 83 397 84.3431 397 86 397 87.6569 395.657 89 394 89 392.343 89 391 87.6569 391 86Z" fill="#8EBAE5" fill-rule="evenodd"/><path d="M407 101C407 99.3431 408.343 98 410 98 411.657 98 413 99.3431 413 101 413 102.657 411.657 104 410 104 408.343 104 407 102.657 407 101Z" fill="#8EBAE5" fill-rule="evenodd"/><path d="M445 141C445 139.343 446.343 138 448 138 449.657 138 451 139.343 451 141 451 142.657 449.657 144 448 144 446.343 144 445 142.657 445 141Z" fill="#8EBAE5" fill-rule="evenodd"/><path d="M442 160C442 158.343 443.343 157 445 157 446.657 157 448 158.343 448 160 448 161.657 446.657 163 445 163 443.343 163 442 161.657 442 160Z" fill="#8EBAE5" fill-rule="evenodd"/><path d="M461 152C461 150.343 462.343 149 464 149 465.657 149 467 150.343 467 152 467 153.657 465.657 155 464 155 462.343 155 461 153.657 461 152Z" fill="#8EBAE5" fill-rule="evenodd"/><path d="M484 91C484 89.3431 485.343 88 487 88 488.657 88 490 89.3431 490 91 490 92.6569 488.657 94 487 94 485.343 94 484 92.6569 484 91Z" fill="#8EBAE5" fill-rule="evenodd"/><path d="M498 93C498 91.3431 499.343 90 501 90 502.657 90 504 91.3431 504 93 504 94.6569 502.657 96 501 96 499.343 96 498 94.6569 498 93Z" fill="#8EBAE5" fill-rule="evenodd"/><path d="M480 56C480 54.3431 481.343 53 483 53 484.657 53 486 54.3431 486 56 486 57.6569 484.657 59 483 59 481.343 59 480 57.6569 480 56Z" fill="#8EBAE5" fill-rule="evenodd"/><path d="M490 61C490 59.3431 491.343 58 493 58 494.657 58 496 59.3431 496 61 496 62.6569 494.657 64 493 64 491.343 64 490 62.6569 490 61Z" fill="#8EBAE5" fill-rule="evenodd"/><path d="M467 58C467 56.3431 468.343 55 470 55 471.657 55 473 56.3431 473 58 473 59.6569 471.657 61 470 61 468.343 61 467 59.6569 467 58Z" fill="#8EBAE5" fill-rule="evenodd"/><path d="M498 72C498 70.3431 499.343 69 501 69 502.657 69 504 70.3431 504 72 504 73.6569 502.657 75 501 75 499.343 75 498 73.6569 498 72Z" fill="#8EBAE5" fill-rule="evenodd"/><path d="M484 77.5C484 75.567 485.343 74 487 74 488.657 74 490 75.567 490 77.5 490 79.433 488.657 81 487 81 485.343 81 484 79.433 484 77.5Z" fill="#8EBAE5" fill-rule="evenodd"/><path d="M469 79C469 77.3431 470.567 76 472.5 76 474.433 76 476 77.3431 476 79 476 80.6569 474.433 82 472.5 82 470.567 82 469 80.6569 469 79Z" fill="#8EBAE5" fill-rule="evenodd"/><path d="M459 69C459 67.3431 460.343 66 462 66 463.657 66 465 67.3431 465 69 465 70.6569 463.657 72 462 72 460.343 72 459 70.6569 459 69Z" fill="#8EBAE5" fill-rule="evenodd"/><path d="M410 91C410 89.3431 411.343 88 413 88 414.657 88 416 89.3431 416 91 416 92.6569 414.657 94 413 94 411.343 94 410 92.6569 410 91Z" fill="#8EBAE5" fill-rule="evenodd"/><path d="M384 93C384 91.3431 385.343 90 387 90 388.657 90 390 91.3431 390 93 390 94.6569 388.657 96 387 96 385.343 96 384 94.6569 384 93Z" fill="#8EBAE5" fill-rule="evenodd"/><path d="M391 105C391 103.343 392.343 102 394 102 395.657 102 397 103.343 397 105 397 106.657 395.657 108 394 108 392.343 108 391 106.657 391 105Z" fill="#8EBAE5" fill-rule="evenodd"/><path d="M388 113C388 111.343 389.343 110 391 110 392.657 110 394 111.343 394 113 394 114.657 392.657 116 391 116 389.343 116 388 114.657 388 113Z" fill="#8EBAE5" fill-rule="evenodd"/><path d="M436 141C436 139.343 437.343 138 439 138 440.657 138 442 139.343 442 141 442 142.657 440.657 144 439 144 437.343 144 436 142.657 436 141Z" fill="#8EBAE5" fill-rule="evenodd"/><path d="M426 149C426 147.343 427.567 146 429.5 146 431.433 146 433 147.343 433 149 433 150.657 431.433 152 429.5 152 427.567 152 426 150.657 426 149Z" fill="#8EBAE5" fill-rule="evenodd"/><path d="M483 160C483 158.343 484.343 157 486 157 487.657 157 489 158.343 489 160 489 161.657 487.657 163 486 163 484.343 163 483 161.657 483 160Z" fill="#8EBAE5" fill-rule="evenodd"/><path d="M400.5 92.5001 400.5 100.059" stroke="#00549F" stroke-width="1.33333" stroke-miterlimit="8" fill="none" fill-rule="evenodd"/><path d="M0 0 7.55905 0.000104987" stroke="#00549F" stroke-width="1.33333" stroke-miterlimit="8" fill="none" fill-rule="evenodd" transform="matrix(-1 0 0 1 405.059 96.5001)"/><path d="M482.5 67.5001 482.5 75.0591" stroke="#00549F" stroke-width="1.33333" stroke-miterlimit="8" fill="none" fill-rule="evenodd"/><path d="M0 0 7.55905 0.000104987" stroke="#00549F" stroke-width="1.33333" stroke-miterlimit="8" fill="none" fill-rule="evenodd" transform="matrix(-1 0 0 1 486.059 71.5001)"/><path d="M452.5 147.5 452.5 155.059" stroke="#00549F" stroke-width="1.33333" stroke-miterlimit="8" fill="none" fill-rule="evenodd"/><path d="M0 0 7.55905 0.000104987" stroke="#00549F" stroke-width="1.33333" stroke-miterlimit="8" fill="none" fill-rule="evenodd" transform="matrix(-1 0 0 1 456.059 151.5)"/><path d="M384.5 85.3729C384.241 85.6696 383.698 85.7964 383.389 86.0848 383.237 86.2272 383.28 86.4547 383.167 86.6187 382.907 86.9926 382.447 87.2807 382.278 87.6865L381.389 89.8221 380.945 90.8899C380.87 91.0678 380.779 91.2418 380.722 91.4238L380.5 92.1356C380.574 94.5085 380.618 96.8821 380.722 99.2543 380.739 99.6254 381.075 104.145 381.167 104.771 381.194 104.958 381.325 105.125 381.389 105.305 381.473 105.54 381.551 105.777 381.611 106.017 381.7 106.371 381.724 106.735 381.833 107.085 381.947 107.449 382.13 107.797 382.278 108.153L382.5 108.686C382.574 108.864 382.665 109.038 382.722 109.22 382.796 109.458 382.861 109.697 382.945 109.932 383.009 110.113 383.105 110.285 383.167 110.466L383.833 112.602C383.907 112.839 383.959 113.082 384.056 113.314L384.945 115.449 385.389 116.517C385.463 116.695 385.481 116.895 385.611 117.051 385.907 117.407 386.331 117.713 386.5 118.119 386.681 118.553 386.736 118.841 387.167 119.186 387.356 119.338 387.628 119.405 387.833 119.542 388.075 119.704 388.252 119.922 388.5 120.076 391.022 121.647 388.891 120.322 390.5 120.966 392.026 121.577 390.134 121.157 392.278 121.5 394.521 121.276 393.489 121.473 395.389 120.966L396.056 120.788 396.722 120.61 397.611 119.542C397.759 119.364 397.971 119.211 398.056 119.009 398.13 118.831 398.164 118.639 398.278 118.475 398.537 118.101 398.998 117.813 399.167 117.407 399.488 116.634 399.223 117.006 400.056 116.339 400.488 115.3 399.939 116.254 400.945 115.449 402.228 114.421 400.417 115.402 402.056 114.381 402.477 114.119 403.011 113.972 403.389 113.67 403.964 113.209 404.592 112.637 405.389 112.424 405.611 112.364 405.851 112.337 406.056 112.246 406.523 112.038 406.871 111.638 407.389 111.534 407.886 111.434 409.287 111.173 409.611 111 411.572 109.953 408.438 111.559 411.611 110.288 412.919 109.764 412.186 110.016 413.833 109.576 415.509 109.129 413.444 109.732 415.167 109.042 415.376 108.959 415.629 108.956 415.833 108.864 416.3 108.657 416.722 108.39 417.167 108.153L418.5 107.441 419.167 107.085C419.315 106.907 419.44 106.715 419.611 106.551 420.225 105.961 420.309 106.146 420.722 105.483 420.827 105.315 420.84 105.117 420.945 104.949 421.064 104.758 421.28 104.611 421.389 104.415 421.698 103.858 421.871 103.227 422.056 102.636 422.13 101.746 422.167 100.854 422.278 99.9662 422.315 99.6652 422.5 99.3788 422.5 99.0763 422.5 98.362 422.388 97.6496 422.278 96.9407 422.197 96.4211 421.832 94.7105 421.611 93.9153 421.545 93.6765 421.455 93.4422 421.389 93.2034 420.97 91.6942 421.416 92.9126 420.722 91.2458L420.5 90.7119C420.426 90.534 420.335 90.36 420.278 90.178 420.204 89.9408 420.176 89.691 420.056 89.4662 419.95 89.2696 419.731 89.1236 419.611 88.9323 419.506 88.7645 419.503 88.5624 419.389 88.3984 419.13 88.0244 418.669 87.7364 418.5 87.3306 418.221 86.6592 418.153 86.3408 417.389 85.7289 417.167 85.5509 416.915 85.3936 416.722 85.195 416.394 84.8573 416.211 84.4296 415.833 84.1272 415.611 83.9492 415.368 83.7866 415.167 83.5933 414.996 83.429 414.9 83.2192 414.722 83.0594 414.305 82.6832 413.833 82.3475 413.389 81.9916L412.722 81.4577C412.5 81.2797 412.317 81.0634 412.056 80.9238 411.833 80.8051 411.621 80.674 411.389 80.5678 410.835 80.3142 410.43 80.1642 409.833 80.034 409.244 79.9053 408.663 79.7267 408.056 79.678L405.833 79.5001C401.804 79.9034 406.381 79.4832 399.167 79.856 398.497 79.8906 397.833 79.9746 397.167 80.034 396.574 80.1526 395.968 80.2352 395.389 80.3899 394.945 80.5085 394.515 80.6722 394.056 80.7458 393.459 80.8413 392.095 81.0217 391.611 81.2797 391.389 81.3984 391.183 81.54 390.945 81.6356 390.735 81.7196 390.483 81.7225 390.278 81.8136 389.811 82.0213 389.389 82.2882 388.945 82.5255 387.034 83.5455 389.451 82.3226 387.611 83.0594 387.372 83.1551 387.183 83.3196 386.945 83.4153 386.735 83.4992 386.483 83.5022 386.278 83.5933 385.811 83.801 384.945 84.3051 384.945 84.3051 384.459 84.8884 384.759 85.0763 384.5 85.3729Z" stroke="#00549F" stroke-miterlimit="8" stroke-dasharray="1 1" fill="none" fill-rule="evenodd"/><path d="M429.557 136.274C428.594 137.161 427.425 137.891 426.67 138.935 423.427 143.418 426.937 138.817 424.425 141.596 423.577 142.533 423.608 142.967 423.142 144.257L422.821 145.144C422.714 146.129 422.5 147.11 422.5 148.1 422.5 148.412 422.773 148.678 422.821 148.987 423.286 151.986 422.866 151.52 423.462 153.717 423.544 154.02 423.619 154.332 423.783 154.604 424.157 155.226 424.425 155.984 425.066 156.378L426.028 156.97C427.846 159.483 424.852 155.59 428.594 159.039 430.102 160.429 429.179 159.694 431.481 161.109L432.443 161.7C432.764 161.897 433.04 162.179 433.406 162.291 433.726 162.39 434.066 162.448 434.368 162.587 437.418 163.993 432.29 162.244 437.255 163.77L438.217 164.065C438.538 164.164 438.898 164.188 439.179 164.361 440.704 165.298 439.776 164.84 442.066 165.544L443.991 166.135C444.311 166.233 444.621 166.369 444.953 166.43L446.557 166.726C447.197 166.833 447.843 166.904 448.481 167.022 448.913 167.102 449.332 167.238 449.764 167.317 452.865 167.889 450.545 167.341 453.934 167.909 454.368 167.981 454.781 168.143 455.217 168.204 456.174 168.34 457.142 168.402 458.104 168.5L469.33 168.204C472.222 168.075 477.991 167.613 477.991 167.613 478.418 167.515 478.85 167.429 479.274 167.317 479.599 167.232 479.91 167.104 480.236 167.022 481.087 166.808 481.966 166.687 482.802 166.43L484.726 165.839C485.047 165.741 485.361 165.619 485.689 165.544 486.116 165.445 486.549 165.365 486.972 165.248 487.619 165.069 488.896 164.657 488.896 164.657 490.367 162.623 489.936 163.557 490.5 161.996 490.273 160.319 490.313 159.843 489.859 158.448 489.664 157.851 489.592 157.193 489.217 156.674 488.27 155.365 487.491 154.037 486.009 153.126L484.085 151.944C483.764 151.746 483.395 151.603 483.123 151.352 481.888 150.214 482.538 150.697 481.198 149.874 479.36 147.332 481.808 150.323 479.594 148.691 479.293 148.469 479.225 148.056 478.953 147.804 478.68 147.553 478.287 147.441 477.991 147.213 477.642 146.945 477.386 146.583 477.028 146.326 476.42 145.89 475.745 145.538 475.104 145.144L473.179 143.961 470.293 142.187 469.33 141.596C469.009 141.399 468.734 141.117 468.368 141.004 467.726 140.807 467.006 140.759 466.443 140.413 466.123 140.216 465.833 139.966 465.481 139.822 463.911 139.179 463.709 139.332 462.274 138.935 461.626 138.756 460.991 138.541 460.349 138.344L454.576 136.57 452.651 135.978C452.33 135.88 452.02 135.744 451.689 135.683 450.62 135.486 449.539 135.335 448.481 135.091 446.669 134.674 447.63 134.875 445.594 134.5 442.494 134.599 439.39 134.628 436.293 134.796 435.191 134.855 433.76 135.377 432.764 135.683 431.384 136.107 432.13 135.903 430.519 136.274L429.557 136.274Z" stroke="#00549F" stroke-miterlimit="8" fill="none" fill-rule="evenodd"/><path d="M469.925 53.8658C469.459 54.1304 469.008 54.4141 468.529 54.6596 467.81 55.0274 467.622 55.0496 466.9 55.2549 465.941 56.4816 467.006 55.285 465.737 56.2471 465.245 56.62 464.706 56.9708 464.341 57.4378 464.186 57.6362 464.073 57.8645 463.876 58.0331 463.678 58.2018 463.41 58.2977 463.178 58.43 463.022 58.6285 462.891 58.8422 462.712 59.0253 462.152 59.5983 462.003 59.6273 461.316 60.0176 461.161 60.216 461.049 60.4443 460.851 60.6129 460.653 60.7815 460.337 60.8303 460.153 61.0098 459.785 61.3687 459.533 61.8036 459.223 62.2004 459.067 62.3989 458.955 62.6271 458.757 62.7958L458.059 63.3911C457.982 63.5895 457.963 63.8124 457.827 63.9864 457.096 64.9211 457.171 64.2032 456.663 65.1771 456.464 65.5594 456.353 65.9709 456.198 66.3678L455.733 67.5584 455.5 68.1537C455.578 69.6752 455.601 71.1993 455.733 72.7179 455.756 72.99 455.903 73.2443 455.965 73.5117 456.058 73.9063 456.084 74.3121 456.198 74.7024L456.896 76.4884C456.974 76.6868 457.069 76.8808 457.129 77.0837 457.206 77.3483 457.218 77.6335 457.361 77.8775 457.535 78.1733 457.827 78.4067 458.059 78.6713 458.644 80.1676 457.855 78.3232 458.757 79.8619 458.867 80.049 458.837 80.2939 458.99 80.4573 459.165 80.6435 459.455 80.7218 459.688 80.8541 460.92 82.9556 458.971 79.8405 461.782 83.037 462.014 83.3016 462.254 83.5617 462.48 83.8308 462.642 84.0249 462.766 84.2429 462.945 84.4261 463.156 84.6417 463.432 84.8059 463.643 85.0215 464.612 86.0137 463.527 85.286 464.806 86.0137 465.024 86.2926 465.745 87.2387 465.969 87.4028 466.233 87.5953 466.618 87.6277 466.9 87.7997 467.168 87.9628 467.338 88.2227 467.598 88.395 468.039 88.6878 468.529 88.9242 468.994 89.1888L470.39 89.9825C470.622 90.1149 470.823 90.304 471.088 90.3794 471.32 90.4456 471.566 90.4843 471.786 90.5779 472.036 90.6846 472.241 90.8564 472.484 90.9748 473.847 91.6392 472.979 91.0778 474.112 91.7685 474.428 91.9608 474.696 92.2159 475.043 92.3639 475.482 92.5509 476.031 92.5287 476.439 92.7607 476.904 93.0253 477.304 93.4037 477.835 93.5545 478.618 93.7772 478.658 93.7575 479.463 94.1499 479.706 94.2682 479.906 94.4499 480.161 94.5467L482.255 95.1421C482.488 95.2082 482.749 95.2245 482.953 95.3405 483.917 95.8887 483.38 95.6796 484.582 95.9359 484.814 96.0682 485.03 96.226 485.28 96.3327 485.499 96.4263 485.763 96.4296 485.978 96.5312 486.466 96.7628 486.843 97.1741 487.374 97.325 489.128 97.8237 486.965 97.1509 488.769 97.9203 488.989 98.0139 489.248 98.0252 489.467 98.1187 489.717 98.2254 489.91 98.4187 490.165 98.5156 490.614 98.6855 491.096 98.7802 491.561 98.9125L492.957 99.3094 495.051 99.9047 495.749 100.103C495.982 100.169 496.207 100.261 496.447 100.302L497.61 100.5C499.161 100.434 500.716 100.412 502.263 100.302 502.582 100.279 502.888 100.182 503.194 100.103 503.664 99.983 504.182 99.9383 504.59 99.7063 505.62 99.1206 506.665 98.6386 507.382 97.7218L508.312 96.5312 508.778 95.9359C508.933 95.7374 509.154 95.5668 509.243 95.3405 509.564 94.5189 509.34 94.9193 509.941 94.1499 510.018 93.8853 510.061 93.6115 510.174 93.3561 510.896 91.7137 510.476 93.5138 511.104 91.3716 511.182 91.1071 511.249 90.8401 511.337 90.5779 511.404 90.3767 511.505 90.1844 511.569 89.9825 511.99 88.6661 511.996 88.5599 512.267 87.4028 512.345 86.2121 512.5 85.0233 512.5 83.8308 512.5 80.3071 512.384 80.4072 512.035 77.8775 511.737 75.7189 511.986 76.7188 511.569 75.2977 511.492 74.4378 511.443 73.5757 511.337 72.7179 511.287 72.3178 511.167 71.9261 511.104 71.5273 511.011 70.9335 510.971 70.3343 510.871 69.7413 510.816 69.4074 510.695 69.083 510.639 68.7491 510.54 68.1561 510.544 67.5505 510.406 66.9631 510.31 66.5528 510.096 66.1693 509.941 65.7724L509.708 65.1771C509.631 64.9787 509.535 64.7847 509.476 64.5818 509.398 64.3172 509.335 64.0492 509.243 63.788 509.102 63.3873 508.897 63.0032 508.778 62.5973 508.7 62.3328 508.637 62.0648 508.545 61.8036 508.404 61.4029 508.235 61.0098 508.08 60.6129 508.002 60.4145 507.983 60.1916 507.847 60.0176 506.184 57.8902 508.774 61.1188 506.684 58.8269 506.34 58.4504 506.149 57.9735 505.753 57.6362 505.52 57.4378 505.266 57.2565 505.055 57.0409 504.181 56.1462 504.891 56.2198 503.194 55.2549L501.798 54.4611 501.1 54.0643C500.325 53.072 500.867 53.6012 499.239 52.6752 499.006 52.5428 498.806 52.3537 498.541 52.2783 498.308 52.2121 498.057 52.1814 497.843 52.0798 497.354 51.8482 496.978 51.4369 496.447 51.286 495.982 51.1537 495.459 51.1212 495.051 50.8892 494.216 50.4141 494.144 50.2978 492.957 50.0954 490.384 49.6564 492.789 50.0204 488.071 49.6985 487.371 49.6507 486.676 49.5662 485.978 49.5001 485.512 49.5662 485.044 49.6196 484.582 49.6985 484.268 49.752 483.963 49.8377 483.651 49.8969 483.265 49.9701 482.874 50.0222 482.488 50.0954 482.176 50.1546 481.869 50.2346 481.557 50.2938 480.703 50.4557 480.274 50.4833 479.463 50.6907 478.994 50.8109 478.533 50.9553 478.067 51.0876L475.276 51.8814 474.578 52.0798C474.345 52.1459 474.084 52.1623 473.88 52.2783 472.774 52.9072 473.447 52.5997 471.786 53.072L470.39 53.4689 469.925 53.8658Z" stroke="#00549F" stroke-miterlimit="8" stroke-dasharray="4 3" fill="none" fill-rule="evenodd"/><rect x="372.5" y="30.5001" width="154" height="144" stroke="#00549F" stroke-width="1.33333" stroke-miterlimit="8" fill="none"/><text fill="#FFFFFF" font-family="Calibri,Calibri_MSFontService,sans-serif" font-weight="400" font-size="24" transform="translate(442.793 110)">e</text><rect x="199.5" y="30.5001" width="153" height="144" stroke="#00549F" stroke-width="1.33333" stroke-miterlimit="8" fill="none"/><rect x="545.5" y="31.5001" width="153" height="145" stroke="#00549F" stroke-width="1.33333" stroke-miterlimit="8" fill="none"/><text font-family="Arial,Arial_MSFontService,sans-serif" font-weight="400" font-size="15" transform="translate(420.305 194)">Datapoints<tspan font-size="15" x="163.3" y="1">Time series</tspan><tspan font-size="15" x="-350.032" y="1">Datapoints</tspan><tspan font-size="15" x="-186.732" y="1">Time series</tspan></text><path d="M-0.666667 55.7467-0.666667-0.666667 61.7467-0.666667 61.7467 0.666667 0 0.666667 0.666667 0 0.666667 55.7467ZM3.89867 50.7667 0 57.0045-3.89867 50.7667C-4.09381 50.4544-3.99889 50.0431-3.68667 49.848-3.37444 49.6529-2.96314 49.7478-2.768 50.06L0.565332 55.3933-0.565332 55.3933 2.768 50.06C2.96314 49.7478 3.37444 49.6529 3.68667 49.848 3.99889 50.0431 4.09381 50.4544 3.89867 50.7667ZM56.7667-3.89867 63.0045 0 56.7667 3.89867C56.4544 4.09381 56.0431 3.99889 55.848 3.68667 55.6529 3.37444 55.7478 2.96314 56.06 2.768L61.3933-0.565332 61.3933 0.565332 56.06-2.768C55.7478-2.96314 55.6529-3.37444 55.848-3.68667 56.0431-3.99889 56.4544-4.09381 56.7667-3.89867Z" transform="matrix(1 0 0 -1 554.5 128.5)"/><path d="M-0.666667 55.7467-0.666667-0.666667 61.7467-0.666667 61.7467 0.666667 0 0.666667 0.666667 0 0.666667 55.7467ZM3.89867 50.7667 0 57.0045-3.89867 50.7667C-4.09381 50.4544-3.99889 50.0431-3.68667 49.848-3.37444 49.6529-2.96314 49.7478-2.768 50.06L0.565332 55.3933-0.565332 55.3933 2.768 50.06C2.96314 49.7478 3.37444 49.6529 3.68667 49.848 3.99889 50.0431 4.09381 50.4544 3.89867 50.7667ZM56.7667-3.89867 63.0045 0 56.7667 3.89867C56.4544 4.09381 56.0431 3.99889 55.848 3.68667 55.6529 3.37444 55.7478 2.96314 56.06 2.768L61.3933-0.565332 61.3933 0.565332 56.06-2.768C55.7478-2.96314 55.6529-3.37444 55.848-3.68667 56.0431-3.99889 56.4544-4.09381 56.7667-3.89867Z" transform="matrix(1 0 0 -1 629.5 129.5)"/><text font-family="Arial,Arial_MSFontService,sans-serif" font-weight="400" font-size="15" transform="translate(583.95 145)">t<tspan font-size="15" x="73.5477" y="0">t</tspan></text><path d="M-0.666667 54.7467-0.666667-0.666667 62.747-0.666667 62.747 0.666667 0 0.666667 0.666667 0 0.666667 54.7467ZM3.89867 49.7667 0 56.0045-3.89867 49.7667C-4.09381 49.4544-3.99889 49.0431-3.68667 48.848-3.37444 48.6529-2.96314 48.7478-2.768 49.06L0.565332 54.3933-0.565332 54.3933 2.768 49.06C2.96314 48.7478 3.37444 48.6529 3.68667 48.848 3.99889 49.0431 4.09381 49.4544 3.89867 49.7667ZM57.7667-3.89867 64.0045 0 57.7667 3.89867C57.4544 4.09381 57.0431 3.99889 56.848 3.68667 56.6529 3.37444 56.7478 2.96314 57.06 2.768L62.3933-0.565332 62.3933 0.565332 57.06-2.768C56.7478-2.96314 56.6529-3.37444 56.848-3.68667 57.0431-3.99889 57.4544-4.09381 57.7667-3.89867Z" transform="matrix(1 0 0 -1 206.5 128.5)"/><text font-family="Arial,Arial_MSFontService,sans-serif" font-weight="400" font-size="15" transform="translate(236.219 146)">t<tspan font-size="15" x="73.5477" y="-1">t</tspan></text><path d="M-0.666667 55.7467-0.666667-0.666667 61.7467-0.666667 61.7467 0.666667 0 0.666667 0.666667 0 0.666667 55.7467ZM3.89867 50.7667 0 57.0045-3.89867 50.7667C-4.09381 50.4544-3.99889 50.0431-3.68667 49.848-3.37444 49.6529-2.96314 49.7478-2.768 50.06L0.565332 55.3933-0.565332 55.3933 2.768 50.06C2.96314 49.7478 3.37444 49.6529 3.68667 49.848 3.99889 50.0431 4.09381 50.4544 3.89867 50.7667ZM56.7667-3.89867 63.0045 0 56.7667 3.89867C56.4544 4.09381 56.0431 3.99889 55.848 3.68667 55.6529 3.37444 55.7478 2.96314 56.06 2.768L61.3933-0.565332 61.3933 0.565332 56.06-2.768C55.7478-2.96314 55.6529-3.37444 55.848-3.68667 56.0431-3.99889 56.4544-4.09381 56.7667-3.89867Z" transform="matrix(1 0 0 -1 281.5 129.5)"/></g></svg>